SplineFontDB: 3.2
FontName: Gontserrat-Regular
FullName: Gontserrat Regular
FamilyName: Gontserrat
Weight: Book
Copyright: Gontserrat is a derivative work of Montserrat under the Open Font License, version 1.1. Copyright 2020 Gabriel Classon (gabeclasson.com). Montserrat copyright 2011 The Montserrat Project Authors (https://github.com/JulietaUla/Montserrat). 
Version: 6.002
ItalicAngle: 0
UnderlinePosition: -100
UnderlineWidth: 50
Ascent: 800
Descent: 200
InvalidEm: 0
sfntRevision: 0x00010000
LayerCount: 2
Layer: 0 1 "Back" 1
Layer: 1 1 "Fore" 0
XUID: [1021 930 -1503615855 1168]
StyleMap: 0x0040
FSType: 0
OS2Version: 4
OS2_WeightWidthSlopeOnly: 0
OS2_UseTypoMetrics: 1
CreationTime: 1485852831
ModificationTime: 1642920966
PfmFamily: 81
TTFWeight: 400
TTFWidth: 5
LineGap: 0
VLineGap: 0
Panose: 0 0 5 0 0 0 0 0 0 0
OS2TypoAscent: 968
OS2TypoAOffset: 0
OS2TypoDescent: -251
OS2TypoDOffset: 0
OS2TypoLinegap: 0
OS2WinAscent: 1177
OS2WinAOffset: 0
OS2WinDescent: 496
OS2WinDOffset: 0
HheadAscent: 968
HheadAOffset: 0
HheadDescent: -251
HheadDOffset: 0
OS2SubXSize: 650
OS2SubYSize: 600
OS2SubXOff: 0
OS2SubYOff: 75
OS2SupXSize: 650
OS2SupYSize: 600
OS2SupXOff: 0
OS2SupYOff: 350
OS2StrikeYSize: 50
OS2StrikeYPos: 317
OS2CapHeight: 700
OS2XHeight: 529
OS2Vendor: 'ULA '
OS2CodePages: 20000193.00000000
OS2UnicodeRanges: 20000007.00000001.00000000.00000000
Lookup: 1 0 0 "'rtla' Right to Left Alternates in Latin lookup 0" { "'rtla' Right to Left Alternates in Latin lookup 0 subtable"  } ['rtla' ('DFLT' <'dflt' > 'latn' <'dflt' > ) ]
Lookup: 1 0 0 "<10,2> Inferiors lookup 1" { "<10,2> Inferiors lookup 1 subtable" ("inferior") } [<10,2> ('DFLT' <'dflt' > ) 'subs' ('DFLT' <'dflt' > ) ]
Lookup: 1 0 0 "<10,1> Superiors lookup 2" { "<10,1> Superiors lookup 2 subtable" ("superior") } [<10,1> ('DFLT' <'dflt' > ) 'sups' ('DFLT' <'dflt' > ) ]

StartChar: .notdef
Encoding: 65536 -1 0
Width: 587
Flags: W
LayerCount: 2
Fore
SplineSet
40 0 m 1,0,-1
 40 700 l 1,1,-1
 547 700 l 1,2,-1
 547 0 l 1,3,-1
 40 0 l 1,0,-1
120 70 m 1,4,-1
 467 70 l 1,5,-1
 467 630 l 1,6,-1
 120 630 l 1,7,-1
 120 70 l 1,4,-1
EndSplineSet
EndChar

StartChar: exclam
Encoding: 33 33 5
Width: 206
Flags: W
LayerCount: 2
Fore
SplineSet
70 690 m 1,0,-1
 160 690 l 1,1,-1
 160 519 l 1,2,-1
 145 215 l 1,3,-1
 84 215 l 1,4,-1
 70 519 l 1,5,-1
 70 690 l 1,0,-1
153.5 90 m 128,-1,7
 169 74 169 74 169 49 c 256,8,9
 169 24 169 24 153.5 7.5 c 128,-1,10
 138 -9 138 -9 115 -9 c 256,11,12
 92 -9 92 -9 76 7.5 c 128,-1,13
 60 24 60 24 60 49 c 256,14,15
 60 74 60 74 76 90 c 128,-1,16
 92 106 92 106 115 106 c 256,17,6
 138 106 138 106 153.5 90 c 128,-1,7
EndSplineSet
Substitution2: "<3,3> Small Caps in Latin lookup 11 subtable" exclam.sc
EndChar

StartChar: numbersign
Encoding: 35 35 7
Width: 721
Flags: W
LayerCount: 2
Fore
SplineSet
682 442 m 1,0,-1
 537 442 l 1,1,-1
 514 252 l 1,2,-1
 655 252 l 1,3,-1
 649 181 l 1,4,-1
 505 181 l 1,5,-1
 483 0 l 1,6,-1
 413 0 l 1,7,-1
 435 181 l 1,8,-1
 243 181 l 1,9,-1
 221 0 l 1,10,-1
 151 0 l 1,11,-1
 173 181 l 1,12,-1
 32 181 l 1,13,-1
 38 252 l 1,14,-1
 182 252 l 1,15,-1
 205 442 l 1,16,-1
 64 442 l 1,17,-1
 70 513 l 1,18,-1
 214 513 l 1,19,-1
 237 700 l 1,20,-1
 308 700 l 1,21,-1
 285 513 l 1,22,-1
 476 513 l 1,23,-1
 499 700 l 1,24,-1
 569 700 l 1,25,-1
 546 513 l 1,26,-1
 688 513 l 1,27,-1
 682 442 l 1,0,-1
444 252 m 1,28,-1
 467 442 l 1,29,-1
 276 442 l 1,30,-1
 252 252 l 1,31,-1
 444 252 l 1,28,-1
EndSplineSet
EndChar

StartChar: dollar
Encoding: 36 36 8
Width: 616
Flags: W
LayerCount: 2
Fore
SplineSet
199 467.5 m 128,-1,1
 221 444 221 444 253 430.5 c 128,-1,2
 285 417 285 417 342 399 c 0,3,4
 413 377 413 377 457 357 c 128,-1,5
 501 337 501 337 532 297.5 c 128,-1,6
 563 258 563 258 563 193 c 0,7,8
 563 112 563 112 505 59.5 c 128,-1,9
 447 7 447 7 349 -4 c 1,10,-1
 349 -137 l 1,11,-1
 276 -137 l 1,12,-1
 276 -5 l 1,13,14
 207 0 207 0 142.5 29 c 128,-1,15
 78 58 78 58 29 104 c 1,16,-1
 72 187 l 1,17,18
 122 138 122 138 184.5 111.5 c 128,-1,19
 247 85 247 85 306 85 c 0,20,21
 376 85 376 85 416.5 112.5 c 128,-1,22
 457 140 457 140 457 187 c 0,23,24
 457 224 457 224 435 248 c 128,-1,25
 413 272 413 272 379.5 286 c 128,-1,26
 346 300 346 300 289 317 c 0,27,28
 219 338 219 338 175 358 c 128,-1,29
 131 378 131 378 100.5 417 c 128,-1,30
 70 456 70 456 70 520 c 0,31,32
 70 597 70 597 126 646.5 c 128,-1,33
 182 696 182 696 276 706 c 1,34,-1
 276 827 l 1,35,-1
 349 827 l 1,36,-1
 349 707 l 1,37,38
 404 703 404 703 456 685 c 128,-1,39
 508 667 508 667 549 640 c 1,40,-1
 509 554 l 1,41,42
 460 585 460 585 407.5 600.5 c 128,-1,43
 355 616 355 616 311 616 c 0,44,45
 250 616 250 616 213.5 592.5 c 128,-1,46
 177 569 177 569 177 528 c 0,47,0
 177 491 177 491 199 467.5 c 128,-1,1
EndSplineSet
EndChar

StartChar: ampersand
Encoding: 38 38 10
Width: 655
Flags: W
LayerCount: 2
Fore
SplineSet
599 -15 m 1,0,-1
 485 97 l 1,1,2
 438 48 438 48 383.5 22 c 128,-1,3
 329 -4 329 -4 271 -4 c 0,4,5
 212 -4 212 -4 163 21 c 128,-1,6
 114 46 114 46 85.5 90.5 c 128,-1,7
 57 135 57 135 57 190 c 0,8,9
 57 258 57 258 98.5 302.5 c 128,-1,10
 140 347 140 347 213 386 c 1,11,12
 177 433 177 433 160 472.5 c 128,-1,13
 143 512 143 512 143 550 c 0,14,15
 143 618 143 618 192 661 c 128,-1,16
 241 704 241 704 319 704 c 0,17,18
 394 704 394 704 441 664 c 128,-1,19
 488 624 488 624 488 561 c 0,20,21
 488 516 488 516 464.5 481.5 c 128,-1,22
 441 447 441 447 405.5 422.5 c 128,-1,23
 370 398 370 398 316 370 c 1,24,25
 366 312 366 312 477 202 c 1,26,27
 517 263 517 263 544 334 c 1,28,-1
 606 288 l 1,29,30
 575 214 575 214 530 150 c 1,31,-1
 648 35 l 1,32,-1
 599 -15 l 1,0,-1
276 418 m 1,34,35
 343 453 343 453 377.5 484 c 128,-1,36
 412 515 412 515 412 560 c 0,37,38
 412 598 412 598 387 621 c 128,-1,39
 362 644 362 644 320 644 c 0,40,41
 274 644 274 644 246.5 617.5 c 128,-1,42
 219 591 219 591 219 551 c 0,43,33
 219 496 219 496 276 418 c 1,34,35
434 148 m 1,45,46
 316 265 316 265 253 337 c 1,47,48
 197 306 197 306 166.5 273 c 128,-1,49
 136 240 136 240 136 196 c 0,50,51
 136 140 136 140 176 104 c 128,-1,52
 216 68 216 68 274 68 c 0,53,44
 357 68 357 68 434 148 c 1,45,46
EndSplineSet
Substitution2: "<3,3> Small Caps in Latin lookup 11 subtable" ampersand.sc
EndChar

StartChar: quotesingle
Encoding: 39 39 11
Width: 193
Flags: W
LayerCount: 2
Fore
SplineSet
60 700 m 1,0,-1
 133 700 l 1,1,-1
 133 467 l 1,2,-1
 60 467 l 1,3,-1
 60 700 l 1,0,-1
EndSplineSet
Substitution2: "<3,3> Small Caps in Latin lookup 11 subtable" quotesingle.sc
EndChar

StartChar: parenleft
Encoding: 40 40 12
Width: 304
Flags: W
LayerCount: 2
Fore
SplineSet
196.5 544 m 128,-1,1
 166 432 166 432 166 309 c 256,2,3
 166 186 166 186 196.5 74 c 128,-1,4
 227 -38 227 -38 283 -124 c 1,5,-1
 197 -124 l 1,6,7
 139 -39 139 -39 108 72.5 c 128,-1,8
 77 184 77 184 77 309 c 256,9,10
 77 434 77 434 108 545.5 c 128,-1,11
 139 657 139 657 197 742 c 1,12,-1
 283 742 l 1,13,0
 227 656 227 656 196.5 544 c 128,-1,1
EndSplineSet
Substitution2: "'rtla' Right to Left Alternates in Latin lookup 0 subtable" parenright
EndChar

StartChar: parenright
Encoding: 41 41 13
Width: 304
Flags: W
LayerCount: 2
Fore
SplineSet
107 742 m 1,0,1
 165 657 165 657 196 545.5 c 128,-1,2
 227 434 227 434 227 309 c 256,3,4
 227 184 227 184 196 72.5 c 128,-1,5
 165 -39 165 -39 107 -124 c 1,6,-1
 21 -124 l 1,7,8
 77 -38 77 -38 107.5 74 c 128,-1,9
 138 186 138 186 138 309 c 256,10,11
 138 432 138 432 107.5 544 c 128,-1,12
 77 656 77 656 21 742 c 1,13,-1
 107 742 l 1,0,1
EndSplineSet
Substitution2: "'rtla' Right to Left Alternates in Latin lookup 0 subtable" parenleft
EndChar

StartChar: asterisk
Encoding: 42 42 14
Width: 337
Flags: W
LayerCount: 2
Fore
SplineSet
143 721 m 1,0,-1
 194 721 l 1,1,-1
 193 615 l 1,2,-1
 285 669 l 1,3,-1
 310 622 l 1,4,-1
 217 570 l 1,5,-1
 310 518 l 1,6,-1
 285 471 l 1,7,-1
 193 525 l 1,8,-1
 194 419 l 1,9,-1
 143 419 l 1,10,-1
 144 526 l 1,11,-1
 52 472 l 1,12,-1
 26 518 l 1,13,-1
 119 570 l 1,14,-1
 26 622 l 1,15,-1
 52 670 l 1,16,-1
 144 615 l 1,17,-1
 143 721 l 1,0,-1
EndSplineSet
EndChar

StartChar: plus
Encoding: 43 43 15
Width: 494
Flags: W
LayerCount: 2
Fore
SplineSet
458 357 m 1,0,-1
 458 290 l 1,1,-1
 279 290 l 1,2,-1
 279 112 l 1,3,-1
 216 112 l 1,4,-1
 216 290 l 1,5,-1
 36 290 l 1,6,-1
 36 357 l 1,7,-1
 216 357 l 1,8,-1
 216 535 l 1,9,-1
 279 535 l 1,10,-1
 279 357 l 1,11,-1
 458 357 l 1,0,-1
EndSplineSet
EndChar

StartChar: comma
Encoding: 44 44 16
Width: 204
Flags: W
LayerCount: 2
Fore
SplineSet
141.5 88 m 128,-1,1
 157 73 157 73 157 48 c 0,2,3
 157 37 157 37 152.5 25 c 128,-1,4
 148 13 148 13 143 2 c 2,5,-1
 89 -112 l 1,6,-1
 38 -112 l 1,7,-1
 78 1 l 1,8,9
 64 8 64 8 57 20.5 c 128,-1,10
 50 33 50 33 50 48 c 0,11,12
 50 72 50 72 65.5 87.5 c 128,-1,13
 81 103 81 103 104 103 c 0,14,0
 126 103 126 103 141.5 88 c 128,-1,1
EndSplineSet
EndChar

StartChar: hyphen
Encoding: 45 45 17
Width: 366
Flags: W
LayerCount: 2
Fore
SplineSet
63 337 m 1,0,-1
 302 337 l 1,1,-1
 302 270 l 1,2,-1
 63 270 l 1,3,-1
 63 337 l 1,0,-1
EndSplineSet
EndChar

StartChar: period
Encoding: 46 46 18
Width: 207
Flags: W
LayerCount: 2
Fore
SplineSet
142.5 90 m 128,-1,1
 158 74 158 74 158 49 c 256,2,3
 158 24 158 24 142.5 7.5 c 128,-1,4
 127 -9 127 -9 104 -9 c 256,5,6
 81 -9 81 -9 65 7.5 c 128,-1,7
 49 24 49 24 49 49 c 256,8,9
 49 74 49 74 65 90 c 128,-1,10
 81 106 81 106 104 106 c 256,11,0
 127 106 127 106 142.5 90 c 128,-1,1
EndSplineSet
Substitution2: "<3,3> Small Caps in Latin lookup 11 subtable" period.sc
EndChar

StartChar: slash
Encoding: 47 47 19
Width: 323
Flags: W
LayerCount: 2
Fore
SplineSet
299 819 m 1,0,-1
 380 819 l 1,1,-1
 65 -120 l 1,2,-1
 -15 -120 l 1,3,-1
 299 819 l 1,0,-1
EndSplineSet
Substitution2: "<11,2> Diagonal Fractions lookup 3 subtable" fraction
EndChar

StartChar: zero
Encoding: 48 48 20
Width: 711
Flags: W
LayerCount: 2
Fore
SplineSet
579 612.5 m 128,-1,1
 655 521 655 521 655 350 c 256,2,3
 655 179 655 179 579 87 c 128,-1,4
 503 -5 503 -5 362 -5 c 0,5,6
 220 -5 220 -5 144.5 87 c 128,-1,7
 69 179 69 179 69 350 c 256,8,9
 69 521 69 521 144.5 612.5 c 128,-1,10
 220 704 220 704 362 704 c 0,11,0
 503 704 503 704 579 612.5 c 128,-1,1
168 350 m 0,13,14
 168 212 168 212 217 142 c 128,-1,15
 266 72 266 72 362 72 c 256,16,17
 458 72 458 72 507 142 c 128,-1,18
 556 212 556 212 556 350 c 0,19,20
 556 628 556 628 362 628 c 256,21,12
 168 628 168 628 168 350 c 0,13,14
EndSplineSet
Substitution2: "<21,0> Lower Case Numbers lookup 10 subtable" zero.osf
Substitution2: "<6,0> Monospaced Numbers lookup 9 subtable" zero.tf
Substitution2: "<11,2> Diagonal Fractions lookup 4 subtable" zero.numr
Substitution2: "<10,1> Superiors lookup 2 subtable" uni2070
Substitution2: "<10,2> Inferiors lookup 1 subtable" uni2080
EndChar

StartChar: one
Encoding: 49 49 21
Width: 369
Flags: W
LayerCount: 2
Fore
SplineSet
6 700 m 1,0,-1
 261 700 l 1,1,-1
 261 0 l 1,2,-1
 165 0 l 1,3,-1
 165 613 l 1,4,-1
 6 613 l 1,5,-1
 6 700 l 1,0,-1
EndSplineSet
Substitution2: "<21,0> Lower Case Numbers lookup 10 subtable" one.osf
Substitution2: "<6,0> Monospaced Numbers lookup 9 subtable" one.tf
Substitution2: "<11,2> Diagonal Fractions lookup 4 subtable" one.numr
Substitution2: "<10,1> Superiors lookup 2 subtable" uni00B9
Substitution2: "<10,2> Inferiors lookup 1 subtable" uni2081
EndChar

StartChar: two
Encoding: 50 50 22
Width: 578
Flags: W
LayerCount: 2
Fore
SplineSet
544 87 m 1,0,-1
 544 0 l 1,1,-1
 38 0 l 1,2,-1
 38 74 l 1,3,-1
 309 355 l 2,4,5
 353 399 353 399 379 442.5 c 128,-1,6
 405 486 405 486 405 518 c 0,7,8
 405 565 405 565 368.5 592 c 128,-1,9
 332 619 332 619 268 619 c 0,10,11
 219 619 219 619 166 596.5 c 128,-1,12
 113 574 113 574 70 534 c 1,13,-1
 29 607 l 1,14,15
 86 653 86 653 150.5 678.5 c 128,-1,16
 215 704 215 704 280 704 c 0,17,18
 382 704 382 704 443.5 657 c 128,-1,19
 505 610 505 610 505 531 c 0,20,21
 505 438 505 438 375 303 c 2,22,-1
 164 87 l 1,23,-1
 544 87 l 1,0,-1
EndSplineSet
Substitution2: "<21,0> Lower Case Numbers lookup 10 subtable" two.osf
Substitution2: "<6,0> Monospaced Numbers lookup 9 subtable" two.tf
Substitution2: "<11,2> Diagonal Fractions lookup 4 subtable" two.numr
Substitution2: "<10,1> Superiors lookup 2 subtable" uni00B2
Substitution2: "<10,2> Inferiors lookup 1 subtable" uni2082
EndChar

StartChar: three
Encoding: 51 51 23
Width: 585
Flags: W
LayerCount: 2
Fore
SplineSet
472 348 m 128,-1,1
 534 299 534 299 534 216 c 0,2,3
 534 151 534 151 500.5 101 c 128,-1,4
 467 51 467 51 405.5 23 c 128,-1,5
 344 -5 344 -5 262 -5 c 0,6,7
 196 -5 196 -5 129.5 15 c 128,-1,8
 63 35 63 35 15 68 c 1,9,-1
 56 146 l 1,10,11
 98 113 98 113 150 95 c 128,-1,12
 202 77 202 77 256 77 c 0,13,14
 342 77 342 77 391 114 c 128,-1,15
 440 151 440 151 440 213 c 256,16,17
 440 275 440 275 391 307.5 c 128,-1,18
 342 340 342 340 253 340 c 2,19,-1
 157 340 l 1,20,-1
 157 401 l 1,21,-1
 372 613 l 1,22,-1
 49 613 l 1,23,-1
 48 700 l 1,24,-1
 498 700 l 1,25,-1
 498 639 l 1,26,-1
 263 406 l 1,27,-1
 305 403 l 2,28,0
 410 397 410 397 472 348 c 128,-1,1
EndSplineSet
Substitution2: "<21,0> Lower Case Numbers lookup 10 subtable" three.osf
Substitution2: "<6,0> Monospaced Numbers lookup 9 subtable" three.tf
Substitution2: "<11,2> Diagonal Fractions lookup 4 subtable" three.numr
Substitution2: "<10,1> Superiors lookup 2 subtable" uni00B3
Substitution2: "<10,2> Inferiors lookup 1 subtable" uni2083
EndChar

StartChar: four
Encoding: 52 52 24
Width: 591
Flags: W
LayerCount: 2
Fore
SplineSet
561 266 m 1,0,-1
 561 180 l 1,1,-1
 453 180 l 1,2,-1
 453 0 l 1,3,-1
 363 0 l 1,4,-1
 363 180 l 1,5,-1
 16 180 l 1,6,-1
 16 254 l 1,7,-1
 266 700 l 1,8,-1
 360 700 l 1,9,-1
 120 266 l 1,10,-1
 363 266 l 1,11,-1
 363 445 l 1,12,-1
 453 445 l 1,13,-1
 453 266 l 1,14,-1
 561 266 l 1,0,-1
EndSplineSet
Substitution2: "<21,0> Lower Case Numbers lookup 10 subtable" four.osf
Substitution2: "<6,0> Monospaced Numbers lookup 9 subtable" four.tf
Substitution2: "<11,2> Diagonal Fractions lookup 4 subtable" four.numr
Substitution2: "<10,1> Superiors lookup 2 subtable" uni2074
Substitution2: "<10,2> Inferiors lookup 1 subtable" uni2084
EndChar

StartChar: five
Encoding: 53 53 25
Width: 615
Flags: W
LayerCount: 2
Fore
SplineSet
452.5 412 m 128,-1,1
 511 385 511 385 542.5 337 c 128,-1,2
 574 289 574 289 574 229 c 0,3,4
 574 159 574 159 541.5 106 c 128,-1,5
 509 53 509 53 449 24 c 128,-1,6
 389 -5 389 -5 310 -5 c 0,7,8
 248 -5 248 -5 179.5 16.5 c 128,-1,9
 111 38 111 38 57 74 c 1,10,-1
 96 151 l 1,11,12
 141 117 141 117 195 99 c 128,-1,13
 249 81 249 81 301 81 c 0,14,15
 380 81 380 81 426 119 c 128,-1,16
 472 157 472 157 472 222 c 0,17,18
 472 283 472 283 426 317.5 c 128,-1,19
 380 352 380 352 295 352 c 0,20,21
 264 352 264 352 205 348 c 128,-1,22
 146 344 146 344 110 338 c 1,23,-1
 110 700 l 1,24,-1
 545 700 l 1,25,-1
 545 613 l 1,26,-1
 200 613 l 1,27,-1
 200 435 l 1,28,29
 247 439 247 439 317 439 c 0,30,0
 394 439 394 439 452.5 412 c 128,-1,1
EndSplineSet
Substitution2: "<21,0> Lower Case Numbers lookup 10 subtable" five.osf
Substitution2: "<6,0> Monospaced Numbers lookup 9 subtable" five.tf
Substitution2: "<11,2> Diagonal Fractions lookup 4 subtable" five.numr
Substitution2: "<10,1> Superiors lookup 2 subtable" uni2075
Substitution2: "<10,2> Inferiors lookup 1 subtable" uni2085
EndChar

StartChar: six
Encoding: 54 54 26
Width: 637
Flags: W
LayerCount: 2
Fore
SplineSet
447.5 612.5 m 128,-1,1
 405 624 405 624 364 624 c 0,2,3
 263 624 263 624 209 554 c 128,-1,4
 155 484 155 484 155 362 c 0,5,6
 155 343 155 343 156 333 c 1,7,8
 182 390 182 390 234 420 c 128,-1,9
 286 450 286 450 359 450 c 0,10,11
 464 450 464 450 524.5 390 c 128,-1,12
 585 330 585 330 585 228 c 0,13,14
 585 157 585 157 555 104.5 c 128,-1,15
 525 52 525 52 470 23.5 c 128,-1,16
 415 -5 415 -5 342 -5 c 0,17,18
 255 -5 255 -5 191.5 35 c 128,-1,19
 128 75 128 75 94.5 151.5 c 128,-1,20
 61 228 61 228 61 335 c 0,21,22
 61 446 61 446 97.5 529.5 c 128,-1,23
 134 613 134 613 200.5 658.5 c 128,-1,24
 267 704 267 704 357 704 c 0,25,26
 407 704 407 704 462.5 690 c 128,-1,27
 518 676 518 676 561 653 c 1,28,-1
 523 580 l 1,29,0
 490 601 490 601 447.5 612.5 c 128,-1,1
253 352.5 m 128,-1,31
 215 332 215 332 194.5 298 c 128,-1,32
 174 264 174 264 175 224 c 0,33,34
 174 189 174 189 192 156 c 128,-1,35
 210 123 210 123 246.5 101 c 128,-1,36
 283 79 283 79 336 79 c 0,37,38
 408 79 408 79 451.5 119 c 128,-1,39
 495 159 495 159 495 229 c 0,40,41
 495 295 495 295 453.5 334 c 128,-1,42
 412 373 412 373 342 373 c 0,43,30
 291 373 291 373 253 352.5 c 128,-1,31
EndSplineSet
Substitution2: "<21,0> Lower Case Numbers lookup 10 subtable" six.osf
Substitution2: "<6,0> Monospaced Numbers lookup 9 subtable" six.tf
Substitution2: "<11,2> Diagonal Fractions lookup 4 subtable" six.numr
Substitution2: "<10,1> Superiors lookup 2 subtable" uni2076
Substitution2: "<10,2> Inferiors lookup 1 subtable" uni2086
EndChar

StartChar: seven
Encoding: 55 55 27
Width: 567
Flags: W
LayerCount: 2
Fore
SplineSet
14 700 m 1,0,-1
 538 700 l 1,1,-1
 538 625 l 1,2,-1
 233 0 l 1,3,-1
 131 0 l 1,4,-1
 430 613 l 1,5,-1
 101 613 l 1,6,-1
 100 512 l 1,7,-1
 14 512 l 1,8,-1
 14 700 l 1,0,-1
EndSplineSet
Substitution2: "<21,0> Lower Case Numbers lookup 10 subtable" seven.osf
Substitution2: "<6,0> Monospaced Numbers lookup 9 subtable" seven.tf
Substitution2: "<11,2> Diagonal Fractions lookup 4 subtable" seven.numr
Substitution2: "<10,1> Superiors lookup 2 subtable" uni2077
Substitution2: "<10,2> Inferiors lookup 1 subtable" uni2087
EndChar

StartChar: eight
Encoding: 56 56 28
Width: 636
Flags: W
LayerCount: 2
Fore
SplineSet
486 656.5 m 128,-1,1
 547 609 547 609 547 526 c 0,2,3
 547 474 547 474 518.5 434.5 c 128,-1,4
 490 395 490 395 439 374 c 1,5,6
 506 353 506 353 544 306.5 c 128,-1,7
 582 260 582 260 582 196 c 0,8,9
 582 103 582 103 511.5 49 c 128,-1,10
 441 -5 441 -5 320 -5 c 256,11,12
 199 -5 199 -5 128.5 48.5 c 128,-1,13
 58 102 58 102 58 194 c 0,14,15
 58 259 58 259 97 306 c 128,-1,16
 136 353 136 353 205 374 c 1,17,18
 151 397 151 397 121.5 436.5 c 128,-1,19
 92 476 92 476 92 529 c 0,20,21
 92 610 92 610 153 657 c 128,-1,22
 214 704 214 704 319 704 c 0,23,0
 425 704 425 704 486 656.5 c 128,-1,1
212.5 604 m 128,-1,25
 174 574 174 574 174 521 c 0,26,27
 174 467 174 467 212.5 437 c 128,-1,28
 251 407 251 407 320 407 c 256,29,30
 389 407 389 407 427 437 c 128,-1,31
 465 467 465 467 465 521 c 0,32,33
 465 574 465 574 427 604 c 128,-1,34
 389 634 389 634 320 634 c 256,35,24
 251 634 251 634 212.5 604 c 128,-1,25
194 297.5 m 128,-1,37
 149 264 149 264 149 205 c 0,38,39
 149 142 149 142 194 107 c 128,-1,40
 239 72 239 72 320 72 c 0,41,42
 400 72 400 72 445.5 107 c 128,-1,43
 491 142 491 142 491 204 c 0,44,45
 491 263 491 263 445.5 297 c 128,-1,46
 400 331 400 331 319 331 c 0,47,36
 239 331 239 331 194 297.5 c 128,-1,37
EndSplineSet
Substitution2: "<21,0> Lower Case Numbers lookup 10 subtable" eight.osf
Substitution2: "<6,0> Monospaced Numbers lookup 9 subtable" eight.tf
Substitution2: "<11,2> Diagonal Fractions lookup 4 subtable" eight.numr
Substitution2: "<10,1> Superiors lookup 2 subtable" uni2078
Substitution2: "<10,2> Inferiors lookup 1 subtable" uni2088
EndChar

StartChar: nine
Encoding: 57 57 29
Width: 634
Flags: W
LayerCount: 2
Fore
SplineSet
194.5 87.5 m 128,-1,1
 236 76 236 76 277 76 c 0,2,3
 377 76 377 76 430.5 146.5 c 128,-1,4
 484 217 484 217 484 339 c 0,5,6
 484 358 484 358 483 368 c 1,7,8
 458 310 458 310 406.5 280 c 128,-1,9
 355 250 355 250 282 250 c 0,10,11
 178 250 178 250 118 310 c 128,-1,12
 58 370 58 370 58 472 c 0,13,14
 58 543 58 543 88 595.5 c 128,-1,15
 118 648 118 648 172.5 676 c 128,-1,16
 227 704 227 704 299 704 c 0,17,18
 385 704 385 704 448 664 c 128,-1,19
 511 624 511 624 544.5 548 c 128,-1,20
 578 472 578 472 578 366 c 0,21,22
 578 255 578 255 542 171 c 128,-1,23
 506 87 506 87 439 41 c 128,-1,24
 372 -5 372 -5 283 -5 c 0,25,26
 234 -5 234 -5 179 9.5 c 128,-1,27
 124 24 124 24 81 47 c 1,28,-1
 119 120 l 1,29,0
 153 99 153 99 194.5 87.5 c 128,-1,1
191 581 m 128,-1,31
 148 541 148 541 148 471 c 0,32,33
 148 405 148 405 189 366 c 128,-1,34
 230 327 230 327 299 327 c 0,35,36
 350 327 350 327 387.5 347.5 c 128,-1,37
 425 368 425 368 445 402.5 c 128,-1,38
 465 437 465 437 465 477 c 0,39,40
 465 511 465 511 447.5 544.5 c 128,-1,41
 430 578 430 578 394 599.5 c 128,-1,42
 358 621 358 621 305 621 c 0,43,30
 234 621 234 621 191 581 c 128,-1,31
EndSplineSet
Substitution2: "<21,0> Lower Case Numbers lookup 10 subtable" nine.osf
Substitution2: "<6,0> Monospaced Numbers lookup 9 subtable" nine.tf
Substitution2: "<11,2> Diagonal Fractions lookup 4 subtable" nine.numr
Substitution2: "<10,1> Superiors lookup 2 subtable" uni2079
Substitution2: "<10,2> Inferiors lookup 1 subtable" uni2089
EndChar

StartChar: less
Encoding: 60 60 32
Width: 494
Flags: W
LayerCount: 2
Fore
SplineSet
458 554 m 1,0,-1
 458 480 l 1,1,-1
 100 326 l 1,2,-1
 458 172 l 1,3,-1
 458 98 l 1,4,-1
 36 284 l 1,5,-1
 36 368 l 1,6,-1
 458 554 l 1,0,-1
EndSplineSet
Substitution2: "'rtla' Right to Left Alternates in Latin lookup 0 subtable" greater
EndChar

StartChar: equal
Encoding: 61 61 33
Width: 494
Flags: W
LayerCount: 2
Fore
SplineSet
36 460 m 1,0,-1
 458 460 l 1,1,-1
 458 394 l 1,2,-1
 36 394 l 1,3,-1
 36 460 l 1,0,-1
36 253 m 1,4,-1
 458 253 l 1,5,-1
 458 187 l 1,6,-1
 36 187 l 1,7,-1
 36 253 l 1,4,-1
EndSplineSet
EndChar

StartChar: greater
Encoding: 62 62 34
Width: 494
Flags: W
LayerCount: 2
Fore
SplineSet
36 102 m 1,0,-1
 36 176 l 1,1,-1
 394 330 l 1,2,-1
 36 484 l 1,3,-1
 36 558 l 1,4,-1
 458 372 l 1,5,-1
 458 288 l 1,6,-1
 36 102 l 1,0,-1
EndSplineSet
Substitution2: "'rtla' Right to Left Alternates in Latin lookup 0 subtable" less
EndChar

StartChar: question
Encoding: 63 63 35
Width: 432
Flags: W
LayerCount: 2
Fore
SplineSet
80 642.5 m 128,-1,1
 134 692 134 692 223 692 c 0,2,3
 311 692 311 692 364 649.5 c 128,-1,4
 417 607 417 607 417 528 c 0,5,6
 417 489 417 489 404.5 460 c 128,-1,7
 392 431 392 431 373 411 c 128,-1,8
 354 391 354 391 324 365 c 0,9,10
 295 340 295 340 279 322.5 c 128,-1,11
 263 305 263 305 251.5 280 c 128,-1,12
 240 255 240 255 240 223 c 1,13,-1
 167 223 l 1,14,15
 167 263 167 263 179 293 c 128,-1,16
 191 323 191 323 208 342.5 c 128,-1,17
 225 362 225 362 254 388 c 0,18,19
 292 422 292 422 310 448 c 128,-1,20
 328 474 328 474 328 515 c 0,21,22
 328 562 328 562 298 586.5 c 128,-1,23
 268 611 268 611 215 611 c 256,24,25
 162 611 162 611 131 583.5 c 128,-1,26
 100 556 100 556 98 504 c 1,27,-1
 23 505 l 1,28,0
 26 593 26 593 80 642.5 c 128,-1,1
240.5 90 m 128,-1,30
 256 74 256 74 256 49 c 256,31,32
 256 24 256 24 240.5 7.5 c 128,-1,33
 225 -9 225 -9 202 -9 c 256,34,35
 179 -9 179 -9 163 7.5 c 128,-1,36
 147 24 147 24 147 49 c 256,37,38
 147 74 147 74 163 90 c 128,-1,39
 179 106 179 106 202 106 c 256,40,29
 225 106 225 106 240.5 90 c 128,-1,30
EndSplineSet
Substitution2: "<3,3> Small Caps in Latin lookup 11 subtable" question.sc
EndChar

StartChar: at
Encoding: 64 64 36
Width: 981
Flags: W
LayerCount: 2
Fore
SplineSet
732.5 93.5 m 128,-1,1
 747 78 747 78 770 78 c 0,2,3
 798 78 798 78 821.5 102 c 128,-1,4
 845 126 845 126 858.5 169 c 128,-1,5
 872 212 872 212 872 267 c 0,6,7
 872 372 872 372 825.5 456 c 128,-1,8
 779 540 779 540 693.5 588 c 128,-1,9
 608 636 608 636 496 636 c 0,10,11
 389 636 389 636 300 587 c 128,-1,12
 211 538 211 538 160 453 c 128,-1,13
 109 368 109 368 109 266 c 0,14,15
 109 166 109 166 158 85.5 c 128,-1,16
 207 5 207 5 292.5 -40.5 c 128,-1,17
 378 -86 378 -86 483 -86 c 0,18,19
 529 -86 529 -86 581.5 -71.5 c 128,-1,20
 634 -57 634 -57 673 -30 c 1,21,-1
 707 -93 l 1,22,23
 664 -122 664 -122 601 -140 c 128,-1,24
 538 -158 538 -158 483 -158 c 0,25,26
 357 -158 357 -158 255.5 -103 c 128,-1,27
 154 -48 154 -48 96 49 c 128,-1,28
 38 146 38 146 38 266 c 0,29,30
 38 389 38 389 98.5 489.5 c 128,-1,31
 159 590 159 590 263.5 647.5 c 128,-1,32
 368 705 368 705 496 705 c 0,33,34
 623 705 623 705 725.5 649 c 128,-1,35
 828 593 828 593 886 493.5 c 128,-1,36
 944 394 944 394 944 270 c 0,37,38
 944 194 944 194 921 136.5 c 128,-1,39
 898 79 898 79 856.5 47.5 c 128,-1,40
 815 16 815 16 761 16 c 0,41,42
 716 16 716 16 686.5 38.5 c 128,-1,43
 657 61 657 61 651 103 c 2,44,-1
 649 131 l 1,45,46
 619 81 619 81 570.5 55 c 128,-1,47
 522 29 522 29 463 29 c 0,48,49
 400 29 400 29 346 59.5 c 128,-1,50
 292 90 292 90 260 145 c 128,-1,51
 228 200 228 200 228 269 c 0,52,53
 228 336 228 336 256.5 391.5 c 128,-1,54
 285 447 285 447 337 479 c 128,-1,55
 389 511 389 511 455 511 c 0,56,57
 498 511 498 511 534.5 496.5 c 128,-1,58
 571 482 571 482 596 461.5 c 128,-1,59
 621 441 621 441 630 422 c 1,60,-1
 630 503 l 1,61,-1
 718 503 l 1,62,-1
 718 139 l 2,63,0
 718 109 718 109 732.5 93.5 c 128,-1,1
394.5 405.5 m 128,-1,65
 361 385 361 385 342 350 c 128,-1,66
 323 315 323 315 323 273 c 0,67,68
 323 229 323 229 342 192.5 c 128,-1,69
 361 156 361 156 395.5 135 c 128,-1,70
 430 114 430 114 473 114 c 0,71,72
 540 114 540 114 582 159 c 128,-1,73
 624 204 624 204 624 272 c 0,74,75
 624 315 624 315 605 350 c 128,-1,76
 586 385 586 385 551 405.5 c 128,-1,77
 516 426 516 426 471 426 c 0,78,64
 428 426 428 426 394.5 405.5 c 128,-1,65
EndSplineSet
EndChar

StartChar: A
Encoding: 65 65 37
Width: 726
Flags: W
LayerCount: 2
Fore
SplineSet
620 0 m 1,0,-1
 546 170 l 1,1,-1
 177 170 l 1,2,-1
 104 0 l 1,3,-1
 3 0 l 1,4,-1
 314 700 l 1,5,-1
 414 700 l 1,6,-1
 724 0 l 1,7,-1
 620 0 l 1,0,-1
215 257 m 1,8,-1
 509 257 l 1,9,-1
 361 597 l 1,10,-1
 215 257 l 1,8,-1
EndSplineSet
Substitution2: "<11,2> Diagonal Fractions lookup 7 nested-substitutions 0 subtable" ordfeminine
Substitution2: "<11,2> Diagonal Fractions lookup 5 nested-substitutions 0 subtable" ordfeminine
EndChar

StartChar: B
Encoding: 66 66 38
Width: 712
Flags: W
LayerCount: 2
Fore
SplineSet
567.5 653.5 m 128,-1,1
 629 607 629 607 629 525 c 0,2,3
 629 465 629 465 595 423.5 c 128,-1,4
 561 382 561 382 502 368 c 1,5,6
 575 357 575 357 616.5 309.5 c 128,-1,7
 658 262 658 262 658 191 c 0,8,9
 658 101 658 101 590.5 50.5 c 128,-1,10
 523 0 523 0 404 0 c 2,11,-1
 100 0 l 1,12,-1
 100 700 l 1,13,-1
 399 700 l 2,14,0
 506 700 506 700 567.5 653.5 c 128,-1,1
494.5 430.5 m 128,-1,16
 530 458 530 458 530 509 c 0,17,18
 530 559 530 559 494.5 586 c 128,-1,19
 459 613 459 613 394 612 c 2,20,-1
 196 612 l 1,21,-1
 196 403 l 1,22,-1
 394 403 l 2,23,15
 459 403 459 403 494.5 430.5 c 128,-1,16
516 117.5 m 128,-1,25
 560 148 560 148 560 203 c 0,26,27
 560 256 560 256 516 286 c 128,-1,28
 472 316 472 316 394 316 c 2,29,-1
 196 316 l 1,30,-1
 196 88 l 1,31,-1
 394 88 l 2,32,24
 472 87 472 87 516 117.5 c 128,-1,25
EndSplineSet
EndChar

StartChar: C
Encoding: 67 67 39
Width: 699
Flags: W
LayerCount: 2
Fore
SplineSet
514 597.5 m 128,-1,1
 461 621 461 621 405 621 c 0,2,3
 331 621 331 621 269 585 c 128,-1,4
 207 549 207 549 171 487.5 c 128,-1,5
 135 426 135 426 135 352 c 0,6,7
 135 279 135 279 171 217 c 128,-1,8
 207 155 207 155 269 119 c 128,-1,9
 331 83 331 83 405 83 c 0,10,11
 460 83 460 83 513 105.5 c 128,-1,12
 566 128 566 128 607 167 c 1,13,-1
 665 104 l 1,14,15
 612 52 612 52 542 22.5 c 128,-1,16
 472 -7 472 -7 400 -7 c 0,17,18
 300 -7 300 -7 217 40.5 c 128,-1,19
 134 88 134 88 86 170 c 128,-1,20
 38 252 38 252 38 351 c 0,21,22
 38 449 38 449 86.5 530.5 c 128,-1,23
 135 612 135 612 219 659 c 128,-1,24
 303 706 303 706 404 706 c 0,25,26
 477 706 477 706 545.5 678.5 c 128,-1,27
 614 651 614 651 664 601 c 1,28,-1
 607 532 l 1,29,0
 567 574 567 574 514 597.5 c 128,-1,1
EndSplineSet
EndChar

StartChar: D
Encoding: 68 68 40
Width: 783
Flags: W
LayerCount: 2
Fore
SplineSet
569.5 654.5 m 128,-1,1
 652 609 652 609 699 529 c 128,-1,2
 746 449 746 449 746 350 c 256,3,4
 746 251 746 251 698.5 171 c 128,-1,5
 651 91 651 91 568 45.5 c 128,-1,6
 485 0 485 0 382 0 c 2,7,-1
 100 0 l 1,8,-1
 100 700 l 1,9,-1
 385 700 l 2,10,0
 487 700 487 700 569.5 654.5 c 128,-1,1
519.5 121 m 128,-1,12
 579 155 579 155 613.5 215 c 128,-1,13
 648 275 648 275 648 349 c 0,14,15
 648 424 648 424 613 484 c 128,-1,16
 578 544 578 544 517.5 578.5 c 128,-1,17
 457 613 457 613 383 613 c 2,18,-1
 196 613 l 1,19,-1
 196 87 l 1,20,-1
 387 87 l 2,21,11
 460 87 460 87 519.5 121 c 128,-1,12
EndSplineSet
EndChar

StartChar: E
Encoding: 69 69 41
Width: 653
Flags: W
LayerCount: 2
Fore
SplineSet
100 700 m 1,0,-1
 586 700 l 1,1,-1
 586 613 l 1,2,-1
 196 613 l 1,3,-1
 196 397 l 1,4,-1
 545 397 l 1,5,-1
 545 310 l 1,6,-1
 196 310 l 1,7,-1
 196 87 l 1,8,-1
 598 87 l 1,9,-1
 598 0 l 1,10,-1
 100 0 l 1,11,-1
 100 700 l 1,0,-1
EndSplineSet
EndChar

StartChar: F
Encoding: 70 70 42
Width: 568
Flags: W
LayerCount: 2
Fore
SplineSet
100 700 m 1,0,-1
 556 700 l 1,1,-1
 555 613 l 1,2,-1
 196 613 l 1,3,-1
 196 383 l 1,4,-1
 519 383 l 1,5,-1
 519 296 l 1,6,-1
 196 296 l 1,7,-1
 196 0 l 1,8,-1
 100 0 l 1,9,-1
 100 700 l 1,0,-1
EndSplineSet
EndChar

StartChar: G
Encoding: 71 71 43
Width: 751
Flags: W
LayerCount: 2
Fore
SplineSet
672 380 m 1,0,-1
 672 85 l 1,1,2
 619 43 619 43 546.5 18 c 128,-1,3
 474 -7 474 -7 404 -7 c 0,4,5
 303 -7 303 -7 219 40.5 c 128,-1,6
 135 88 135 88 86.5 170.5 c 128,-1,7
 38 253 38 253 38 351 c 256,8,9
 38 449 38 449 87 530.5 c 128,-1,10
 136 612 136 612 221 659 c 128,-1,11
 306 706 306 706 409 706 c 0,12,13
 482 706 482 706 550 680 c 128,-1,14
 618 654 618 654 669 609 c 1,15,-1
 614 539 l 1,16,17
 572 578 572 578 519 599.5 c 128,-1,18
 466 621 466 621 409 621 c 0,19,20
 334 621 334 621 271 585 c 128,-1,21
 208 549 208 549 171.5 487 c 128,-1,22
 135 425 135 425 135 351 c 256,23,24
 135 277 135 277 172 214.5 c 128,-1,25
 209 152 209 152 272 115.5 c 128,-1,26
 335 79 335 79 410 79 c 0,27,28
 454 79 454 79 499.5 93.5 c 128,-1,29
 545 108 545 108 584 134 c 1,30,-1
 584 292 l 1,31,-1
 409 292 l 1,32,-1
 409 380 l 1,33,-1
 672 380 l 1,0,-1
EndSplineSet
EndChar

StartChar: H
Encoding: 72 72 44
Width: 793
Flags: W
LayerCount: 2
Fore
SplineSet
100 700 m 1,0,-1
 196 700 l 1,1,-1
 196 388 l 1,2,-1
 596 388 l 1,3,-1
 596 700 l 1,4,-1
 693 700 l 1,5,-1
 693 0 l 1,6,-1
 596 0 l 1,7,-1
 596 301 l 1,8,-1
 196 301 l 1,9,-1
 196 0 l 1,10,-1
 100 0 l 1,11,-1
 100 700 l 1,0,-1
EndSplineSet
EndChar

StartChar: I
Encoding: 73 73 45
Width: 296
Flags: W
LayerCount: 2
Fore
SplineSet
100 700 m 1,0,-1
 196 700 l 1,1,-1
 196 0 l 1,2,-1
 100 0 l 1,3,-1
 100 700 l 1,0,-1
EndSplineSet
EndChar

StartChar: J
Encoding: 74 74 46
Width: 490
Flags: W
LayerCount: 2
Fore
SplineSet
351 52.5 m 128,-1,1
 296 -4 296 -4 198 -4 c 0,2,3
 139 -4 139 -4 88 22 c 128,-1,4
 37 48 37 48 -1 96 c 1,5,-1
 46 170 l 1,6,7
 79 131 79 131 118.5 110.5 c 128,-1,8
 158 90 158 90 197 90 c 0,9,10
 251 90 251 90 280 122.5 c 128,-1,11
 309 155 309 155 309 215 c 2,12,-1
 309 612 l 1,13,-1
 62 612 l 1,14,-1
 62 700 l 1,15,-1
 406 700 l 1,16,-1
 406 212 l 2,17,0
 406 109 406 109 351 52.5 c 128,-1,1
EndSplineSet
EndChar

StartChar: K
Encoding: 75 75 47
Width: 707
Flags: W
LayerCount: 2
Fore
SplineSet
687 0 m 1,0,-1
 571 0 l 1,1,-1
 325 323 l 1,2,-1
 196 183 l 1,3,-1
 196 0 l 1,4,-1
 100 0 l 1,5,-1
 100 700 l 1,6,-1
 196 700 l 1,7,-1
 196 307 l 1,8,-1
 554 700 l 1,9,-1
 669 700 l 1,10,-1
 392 398 l 1,11,-1
 687 0 l 1,0,-1
EndSplineSet
EndChar

StartChar: L
Encoding: 76 76 48
Width: 524
Flags: W
LayerCount: 2
Fore
SplineSet
100 700 m 1,0,-1
 196 700 l 1,1,-1
 196 87 l 1,2,-1
 502 87 l 1,3,-1
 502 0 l 1,4,-1
 100 0 l 1,5,-1
 100 700 l 1,0,-1
EndSplineSet
EndChar

StartChar: M
Encoding: 77 77 49
Width: 939
Flags: W
LayerCount: 2
Fore
SplineSet
100 700 m 1,0,-1
 214 700 l 1,1,-1
 470 208 l 1,2,-1
 724 700 l 1,3,-1
 839 700 l 1,4,-1
 839 0 l 1,5,-1
 749 0 l 1,6,-1
 748 559 l 1,7,-1
 499 74 l 1,8,-1
 440 74 l 1,9,-1
 189 559 l 1,10,-1
 189 0 l 1,11,-1
 100 0 l 1,12,-1
 100 700 l 1,0,-1
EndSplineSet
EndChar

StartChar: N
Encoding: 78 78 50
Width: 794
Flags: W
LayerCount: 2
Fore
SplineSet
598 700 m 1,0,-1
 693 700 l 1,1,-1
 693 0 l 1,2,-1
 596 0 l 1,3,-1
 196 542 l 1,4,-1
 196 0 l 1,5,-1
 100 0 l 1,6,-1
 100 700 l 1,7,-1
 197 700 l 1,8,-1
 598 157 l 1,9,-1
 598 700 l 1,0,-1
EndSplineSet
EndChar

StartChar: O
Encoding: 79 79 51
Width: 812
Flags: W
LayerCount: 2
Fore
SplineSet
591.5 659 m 128,-1,1
 676 612 676 612 725 530.5 c 128,-1,2
 774 449 774 449 774 351 c 256,3,4
 774 253 774 253 725 170.5 c 128,-1,5
 676 88 676 88 591.5 40.5 c 128,-1,6
 507 -7 507 -7 406 -7 c 256,7,8
 305 -7 305 -7 220.5 40.5 c 128,-1,9
 136 88 136 88 87 170.5 c 128,-1,10
 38 253 38 253 38 351 c 256,11,12
 38 449 38 449 87 530.5 c 128,-1,13
 136 612 136 612 220 659 c 128,-1,14
 304 706 304 706 406 706 c 0,15,0
 507 706 507 706 591.5 659 c 128,-1,1
271.5 584 m 128,-1,17
 209 548 209 548 172 486.5 c 128,-1,18
 135 425 135 425 135 351 c 256,19,20
 135 277 135 277 172 215 c 128,-1,21
 209 153 209 153 271.5 116.5 c 128,-1,22
 334 80 334 80 407 80 c 256,23,24
 480 80 480 80 541.5 116.5 c 128,-1,25
 603 153 603 153 639.5 215 c 128,-1,26
 676 277 676 277 676 351 c 256,27,28
 676 425 676 425 639.5 486.5 c 128,-1,29
 603 548 603 548 541.5 584 c 128,-1,30
 480 620 480 620 407 620 c 256,31,16
 334 620 334 620 271.5 584 c 128,-1,17
EndSplineSet
Substitution2: "<11,2> Diagonal Fractions lookup 7 nested-substitutions 0 subtable" ordmasculine
Substitution2: "<11,2> Diagonal Fractions lookup 5 nested-substitutions 0 subtable" ordmasculine
EndChar

StartChar: P
Encoding: 80 80 52
Width: 671
Flags: W
LayerCount: 2
Fore
SplineSet
572.5 638 m 128,-1,1
 644 576 644 576 644 464 c 0,2,3
 644 347 644 347 572 282.5 c 128,-1,4
 500 218 500 218 370 218 c 2,5,-1
 196 218 l 1,6,-1
 196 0 l 1,7,-1
 100 0 l 1,8,-1
 100 700 l 1,9,-1
 370 700 l 2,10,0
 501 700 501 700 572.5 638 c 128,-1,1
504 344.5 m 128,-1,12
 552 384 552 384 552 461 c 0,13,14
 552 536 552 536 504 574.5 c 128,-1,15
 456 613 456 613 366 613 c 2,16,-1
 196 612 l 1,17,-1
 196 305 l 1,18,-1
 366 305 l 2,19,11
 456 305 456 305 504 344.5 c 128,-1,12
EndSplineSet
EndChar

StartChar: Q
Encoding: 81 81 53
Width: 822
Flags: W
LayerCount: 2
Fore
SplineSet
815 -71 m 1,0,1
 775 -107 775 -107 727 -127 c 128,-1,2
 679 -147 679 -147 632 -147 c 0,3,4
 569 -147 569 -147 513 -111 c 128,-1,5
 457 -75 457 -75 412 -7 c 1,6,-1
 406 -7 l 2,7,8
 305 -7 305 -7 220.5 40.5 c 128,-1,9
 136 88 136 88 87 170.5 c 128,-1,10
 38 253 38 253 38 351 c 256,11,12
 38 449 38 449 87 530.5 c 128,-1,13
 136 612 136 612 220 659 c 128,-1,14
 304 706 304 706 406 706 c 0,15,16
 507 706 507 706 591.5 659 c 128,-1,17
 676 612 676 612 725 530.5 c 128,-1,18
 774 449 774 449 774 351 c 0,19,20
 774 270 774 270 740.5 200 c 128,-1,21
 707 130 707 130 648 80 c 128,-1,22
 589 30 589 30 513 8 c 1,23,24
 579 -63 579 -63 643 -63 c 0,25,26
 701 -63 701 -63 775 -2 c 1,27,-1
 815 -71 l 1,0,1
172 215 m 128,-1,29
 209 153 209 153 271.5 116.5 c 128,-1,30
 334 80 334 80 407 80 c 256,31,32
 480 80 480 80 541.5 116.5 c 128,-1,33
 603 153 603 153 639.5 215 c 128,-1,34
 676 277 676 277 676 351 c 256,35,36
 676 425 676 425 639.5 486.5 c 128,-1,37
 603 548 603 548 541.5 584 c 128,-1,38
 480 620 480 620 407 620 c 256,39,40
 334 620 334 620 271.5 584 c 128,-1,41
 209 548 209 548 172 486.5 c 128,-1,42
 135 425 135 425 135 351 c 256,43,28
 135 277 135 277 172 215 c 128,-1,29
EndSplineSet
EndChar

StartChar: R
Encoding: 82 82 54
Width: 723
Flags: W
LayerCount: 2
Fore
SplineSet
552 0 m 1,0,-1
 413 220 l 1,1,2
 389 218 389 218 374 218 c 2,3,-1
 196 218 l 1,4,-1
 196 0 l 1,5,-1
 100 0 l 1,6,-1
 100 700 l 1,7,-1
 374 700 l 2,8,9
 507 700 507 700 579.5 638.5 c 128,-1,10
 652 577 652 577 652 464 c 0,11,12
 652 379 652 379 612.5 321 c 128,-1,13
 573 263 573 263 499 237 c 1,14,-1
 662 0 l 1,15,-1
 552 0 l 1,0,-1
374 305 m 2,16,17
 464 305 464 305 512 344.5 c 128,-1,18
 560 384 560 384 560 461 c 0,19,20
 560 536 560 536 512 574.5 c 128,-1,21
 464 613 464 613 374 613 c 2,22,-1
 196 613 l 1,23,-1
 196 305 l 1,24,-1
 374 305 l 2,16,17
EndSplineSet
EndChar

StartChar: S
Encoding: 83 83 55
Width: 616
Flags: W
LayerCount: 2
Fore
SplineSet
407.5 600.5 m 128,-1,1
 355 616 355 616 311 616 c 0,2,3
 250 616 250 616 213.5 592.5 c 128,-1,4
 177 569 177 569 177 528 c 0,5,6
 177 491 177 491 199 467.5 c 128,-1,7
 221 444 221 444 253 430.5 c 128,-1,8
 285 417 285 417 342 399 c 0,9,10
 413 377 413 377 457 357 c 128,-1,11
 501 337 501 337 532 297.5 c 128,-1,12
 563 258 563 258 563 193 c 0,13,14
 563 133 563 133 530.5 88 c 128,-1,15
 498 43 498 43 439.5 18.5 c 128,-1,16
 381 -6 381 -6 305 -6 c 0,17,18
 228 -6 228 -6 155 24 c 128,-1,19
 82 54 82 54 29 104 c 1,20,-1
 72 187 l 1,21,22
 122 138 122 138 184.5 111.5 c 128,-1,23
 247 85 247 85 306 85 c 0,24,25
 376 85 376 85 416.5 112.5 c 128,-1,26
 457 140 457 140 457 187 c 0,27,28
 457 224 457 224 435 248 c 128,-1,29
 413 272 413 272 379.5 286 c 128,-1,30
 346 300 346 300 289 317 c 0,31,32
 219 338 219 338 175 358 c 128,-1,33
 131 378 131 378 100.5 417 c 128,-1,34
 70 456 70 456 70 520 c 0,35,36
 70 576 70 576 101 619 c 128,-1,37
 132 662 132 662 188 685 c 128,-1,38
 244 708 244 708 318 708 c 0,39,40
 381 708 381 708 441.5 689.5 c 128,-1,41
 502 671 502 671 549 640 c 1,42,-1
 509 554 l 1,43,0
 460 585 460 585 407.5 600.5 c 128,-1,1
EndSplineSet
EndChar

StartChar: T
Encoding: 84 84 56
Width: 567
Flags: W
LayerCount: 2
Fore
SplineSet
10 700 m 1,0,-1
 557 700 l 1,1,-1
 557 612 l 1,2,-1
 331 612 l 1,3,-1
 331 0 l 1,4,-1
 235 0 l 1,5,-1
 235 612 l 1,6,-1
 10 612 l 1,7,-1
 10 700 l 1,0,-1
EndSplineSet
EndChar

StartChar: U
Encoding: 85 85 57
Width: 762
Flags: W
LayerCount: 2
Fore
SplineSet
234.5 134.5 m 128,-1,1
 288 80 288 80 382 80 c 0,2,3
 475 80 475 80 528 134.5 c 128,-1,4
 581 189 581 189 581 286 c 2,5,-1
 581 700 l 1,6,-1
 677 700 l 1,7,-1
 677 286 l 2,8,9
 677 149 677 149 598.5 71 c 128,-1,10
 520 -7 520 -7 382 -7 c 0,11,12
 243 -7 243 -7 164 71 c 128,-1,13
 85 149 85 149 85 286 c 2,14,-1
 85 700 l 1,15,-1
 181 700 l 1,16,-1
 181 286 l 2,17,0
 181 189 181 189 234.5 134.5 c 128,-1,1
EndSplineSet
EndChar

StartChar: V
Encoding: 86 86 58
Width: 676
Flags: W
LayerCount: 2
Fore
SplineSet
5 700 m 1,0,-1
 108 700 l 1,1,-1
 339 107 l 1,2,-1
 570 700 l 1,3,-1
 671 700 l 1,4,-1
 387 0 l 1,5,-1
 287 0 l 1,6,-1
 5 700 l 1,0,-1
EndSplineSet
EndChar

StartChar: W
Encoding: 87 87 59
Width: 1046
Flags: W
LayerCount: 2
Fore
SplineSet
942 700 m 1,0,-1
 1042 700 l 1,1,-1
 805 0 l 1,2,-1
 705 0 l 1,3,-1
 524 578 l 1,4,-1
 340 0 l 1,5,-1
 241 0 l 1,6,-1
 5 700 l 1,7,-1
 108 700 l 1,8,-1
 293 103 l 1,9,-1
 477 700 l 1,10,-1
 573 700 l 1,11,-1
 758 103 l 1,12,-1
 942 700 l 1,0,-1
EndSplineSet
EndChar

StartChar: X
Encoding: 88 88 60
Width: 677
Flags: W
LayerCount: 2
Fore
SplineSet
37 700 m 1,0,-1
 149 700 l 1,1,-1
 333 439 l 1,2,-1
 518 700 l 1,3,-1
 631 700 l 1,4,-1
 394 364 l 1,5,-1
 651 0 l 1,6,-1
 536 0 l 1,7,-1
 333 283 l 1,8,-1
 132 0 l 1,9,-1
 19 0 l 1,10,-1
 275 360 l 1,11,-1
 37 700 l 1,0,-1
EndSplineSet
EndChar

StartChar: Y
Encoding: 89 89 61
Width: 630
Flags: W
LayerCount: 2
Fore
SplineSet
627 700 m 1,0,-1
 365 240 l 1,1,-1
 365 0 l 1,2,-1
 269 0 l 1,3,-1
 269 236 l 1,4,-1
 3 700 l 1,5,-1
 101 700 l 1,6,-1
 317 343 l 1,7,-1
 529 700 l 1,8,-1
 627 700 l 1,0,-1
EndSplineSet
EndChar

StartChar: Z
Encoding: 90 90 62
Width: 662
Flags: W
LayerCount: 2
Fore
SplineSet
54 700 m 1,0,-1
 617 700 l 1,1,-1
 617 629 l 1,2,-1
 169 87 l 1,3,-1
 622 87 l 1,4,-1
 621 0 l 1,5,-1
 41 0 l 1,6,-1
 41 71 l 1,7,-1
 489 613 l 1,8,-1
 53 613 l 1,9,-1
 54 700 l 1,0,-1
EndSplineSet
EndChar

StartChar: bracketleft
Encoding: 91 91 63
Width: 319
Flags: W
LayerCount: 2
Fore
SplineSet
88 742 m 1,0,-1
 297 742 l 1,1,-1
 297 666 l 1,2,-1
 172 666 l 1,3,-1
 172 -48 l 1,4,-1
 297 -48 l 1,5,-1
 297 -124 l 1,6,-1
 88 -124 l 1,7,-1
 88 742 l 1,0,-1
EndSplineSet
Substitution2: "'rtla' Right to Left Alternates in Latin lookup 0 subtable" bracketright
EndChar

StartChar: backslash
Encoding: 92 92 64
Width: 323
Flags: W
LayerCount: 2
Fore
SplineSet
24 819 m 1,0,-1
 338 -120 l 1,1,-1
 258 -120 l 1,2,-1
 -57 819 l 1,3,-1
 24 819 l 1,0,-1
EndSplineSet
EndChar

StartChar: bracketright
Encoding: 93 93 65
Width: 319
Flags: W
LayerCount: 2
Fore
SplineSet
231 742 m 1,0,-1
 231 -124 l 1,1,-1
 22 -124 l 1,2,-1
 22 -48 l 1,3,-1
 147 -48 l 1,4,-1
 147 666 l 1,5,-1
 22 666 l 1,6,-1
 22 742 l 1,7,-1
 231 742 l 1,0,-1
EndSplineSet
Substitution2: "'rtla' Right to Left Alternates in Latin lookup 0 subtable" bracketleft
EndChar

StartChar: asciicircum
Encoding: 94 94 66
Width: 524
Flags: W
LayerCount: 2
Fore
SplineSet
490 131 m 1,0,-1
 416 131 l 1,1,-1
 262 467 l 1,2,-1
 108 131 l 1,3,-1
 34 131 l 1,4,-1
 220 527 l 1,5,-1
 304 527 l 1,6,-1
 490 131 l 1,0,-1
EndSplineSet
EndChar

StartChar: underscore
Encoding: 95 95 67
Width: 560
Flags: W
LayerCount: 2
Fore
SplineSet
0 -146 m 1,0,-1
 559 -146 l 1,1,-1
 559 -204 l 1,2,-1
 0 -204 l 1,3,-1
 0 -146 l 1,0,-1
EndSplineSet
EndChar

StartChar: a
Encoding: 97 97 69
Width: 581
Flags: W
LayerCount: 2
Fore
SplineSet
414 0 m 1,0,-1
 414 74 l 1,1,2
 355 -4 355 -4 229 -4 c 0,3,4
 174 -4 174 -4 132.5 17 c 128,-1,5
 91 38 91 38 68.5 75 c 128,-1,6
 46 112 46 112 46 158 c 0,7,8
 46 229 46 229 98.5 270.5 c 128,-1,9
 151 312 151 312 245 313 c 2,10,-1
 413 313 l 1,11,-1
 413 338 l 2,12,13
 413 394 413 394 378.5 424.5 c 128,-1,14
 344 455 344 455 278 455 c 0,15,16
 198 455 198 455 115 398 c 1,17,-1
 76 462 l 1,18,19
 133 499 133 499 181.5 515.5 c 128,-1,20
 230 532 230 532 297 532 c 0,21,22
 396 532 396 532 450 483.5 c 128,-1,23
 504 435 504 435 505 348 c 2,24,-1
 506 0 l 1,25,-1
 414 0 l 1,0,-1
358.5 104.5 m 128,-1,27
 404 136 404 136 413 188 c 1,28,-1
 413 241 l 1,29,-1
 258 241 l 2,30,31
 195 241 195 241 164.5 222 c 128,-1,32
 134 203 134 203 134 162 c 256,33,34
 134 121 134 121 165 97 c 128,-1,35
 196 73 196 73 248 73 c 0,36,26
 313 73 313 73 358.5 104.5 c 128,-1,27
EndSplineSet
Substitution2: "<3,3> Small Caps in Latin lookup 11 subtable" a.sc
Substitution2: "<11,2> Diagonal Fractions lookup 7 nested-substitutions 0 subtable" ordfeminine
Substitution2: "<11,2> Diagonal Fractions lookup 5 nested-substitutions 0 subtable" ordfeminine
EndChar

StartChar: b
Encoding: 98 98 70
Width: 678
Flags: W
LayerCount: 2
Fore
SplineSet
517 498 m 128,-1,1
 575 464 575 464 607 403 c 128,-1,2
 639 342 639 342 639 263 c 0,3,4
 639 185 639 185 607.5 124.5 c 128,-1,5
 576 64 576 64 518.5 30.5 c 128,-1,6
 461 -3 461 -3 387 -3 c 0,7,8
 320 -3 320 -3 269 25 c 128,-1,9
 218 53 218 53 189 105 c 1,10,-1
 189 0 l 1,11,-1
 96 0 l 1,12,-1
 96 742 l 1,13,-1
 189 742 l 1,14,-1
 189 424 l 1,15,16
 218 476 218 476 268.5 504 c 128,-1,17
 319 532 319 532 385 532 c 0,18,0
 459 532 459 532 517 498 c 128,-1,1
458.5 102 m 128,-1,20
 499 126 499 126 521.5 169 c 128,-1,21
 544 212 544 212 544 266 c 0,22,23
 544 319 544 319 521 362 c 128,-1,24
 498 405 498 405 458 429 c 128,-1,25
 418 453 418 453 367 453 c 256,26,27
 316 453 316 453 275.5 429 c 128,-1,28
 235 405 235 405 212 362 c 128,-1,29
 189 319 189 319 189 266 c 0,30,31
 189 211 189 211 212 168.5 c 128,-1,32
 235 126 235 126 275.5 102 c 128,-1,33
 316 78 316 78 367 78 c 256,34,19
 418 78 418 78 458.5 102 c 128,-1,20
EndSplineSet
Substitution2: "<3,3> Small Caps in Latin lookup 11 subtable" b.sc
EndChar

StartChar: c
Encoding: 99 99 71
Width: 562
Flags: W
LayerCount: 2
Fore
SplineSet
311 449 m 0,1,2
 259 449 259 449 218.5 426 c 128,-1,3
 178 403 178 403 155 361 c 128,-1,4
 132 319 132 319 132 264 c 256,5,6
 132 209 132 209 154.5 167 c 128,-1,7
 177 125 177 125 216.5 101.5 c 128,-1,8
 256 78 256 78 307 78 c 256,9,10
 358 78 358 78 399 95 c 128,-1,11
 440 112 440 112 467 144 c 1,12,-1
 520 90 l 1,13,14
 484 45 484 45 428.5 21 c 128,-1,15
 373 -3 373 -3 303 -3 c 0,16,17
 226 -3 226 -3 166 31 c 128,-1,18
 106 65 106 65 72.5 125.5 c 128,-1,19
 39 186 39 186 39 264 c 256,20,21
 39 342 39 342 72.5 403 c 128,-1,22
 106 464 106 464 166 498 c 128,-1,23
 226 532 226 532 303 532 c 0,24,25
 370 532 370 532 423.5 511.5 c 128,-1,26
 477 491 477 491 513 452 c 1,27,-1
 462 388 l 1,28,0
 399 449 399 449 311 449 c 0,1,2
EndSplineSet
Substitution2: "<3,3> Small Caps in Latin lookup 11 subtable" c.sc
EndChar

StartChar: d
Encoding: 100 100 72
Width: 680
Flags: W
LayerCount: 2
Fore
SplineSet
584 742 m 1,0,-1
 584 0 l 1,1,-1
 491 0 l 1,2,-1
 491 105 l 1,3,4
 461 52 461 52 410.5 23.5 c 128,-1,5
 360 -5 360 -5 293 -5 c 0,6,7
 218 -5 218 -5 160.5 29.5 c 128,-1,8
 103 64 103 64 71 125.5 c 128,-1,9
 39 187 39 187 39 266 c 0,10,11
 39 344 39 344 71 404.5 c 128,-1,12
 103 465 103 465 160.5 499 c 128,-1,13
 218 533 218 533 292 533 c 0,14,15
 360 533 360 533 411 505 c 128,-1,16
 462 477 462 477 491 424 c 1,17,-1
 491 742 l 1,18,-1
 584 742 l 1,0,-1
404.5 99 m 128,-1,20
 445 123 445 123 468 166 c 128,-1,21
 491 209 491 209 491 263 c 0,22,23
 491 318 491 318 468 361 c 128,-1,24
 445 404 445 404 404.5 428 c 128,-1,25
 364 452 364 452 312 452 c 256,26,27
 260 452 260 452 219.5 427.5 c 128,-1,28
 179 403 179 403 156 360 c 128,-1,29
 133 317 133 317 133 263 c 256,30,31
 133 209 133 209 156 166 c 128,-1,32
 179 123 179 123 219.5 99 c 128,-1,33
 260 75 260 75 312 75 c 256,34,19
 364 75 364 75 404.5 99 c 128,-1,20
EndSplineSet
Substitution2: "<3,3> Small Caps in Latin lookup 11 subtable" d.sc
EndChar

StartChar: e
Encoding: 101 101 73
Width: 588
Flags: W
LayerCount: 2
Fore
SplineSet
489 459.5 m 128,-1,1
 552 387 552 387 552 258 c 0,2,3
 552 238 552 238 551 228 c 1,4,-1
 133 228 l 1,5,6
 144 157 144 157 192.5 115 c 128,-1,7
 241 73 241 73 312 73 c 0,8,9
 359 73 359 73 399.5 90 c 128,-1,10
 440 107 440 107 470 138 c 1,11,-1
 521 85 l 1,12,13
 482 43 482 43 427 20 c 128,-1,14
 372 -3 372 -3 305 -3 c 0,15,16
 227 -3 227 -3 166.5 30.5 c 128,-1,17
 106 64 106 64 72.5 125 c 128,-1,18
 39 186 39 186 39 264 c 256,19,20
 39 342 39 342 72.5 402.5 c 128,-1,21
 106 463 106 463 166 497.5 c 128,-1,22
 226 532 226 532 303 532 c 0,23,0
 426 532 426 532 489 459.5 c 128,-1,1
468 300 m 1,24,25
 464 372 464 372 420 413.5 c 128,-1,26
 376 455 376 455 304 455 c 0,27,28
 234 455 234 455 187.5 413 c 128,-1,29
 141 371 141 371 132 300 c 1,30,-1
 468 300 l 1,24,25
EndSplineSet
Substitution2: "<3,3> Small Caps in Latin lookup 11 subtable" e.sc
EndChar

StartChar: f
Encoding: 102 102 74
Width: 342
Flags: W
LayerCount: 2
Fore
SplineSet
226 643 m 128,-1,1
 202 621 202 621 202 580 c 2,2,-1
 202 511 l 1,3,-1
 348 511 l 1,4,-1
 348 440 l 1,5,-1
 202 440 l 1,6,-1
 202 0 l 1,7,-1
 109 0 l 1,8,-1
 109 440 l 1,9,-1
 40 440 l 1,10,-1
 40 511 l 1,11,-1
 109 511 l 1,12,-1
 109 568 l 2,13,14
 109 626 109 626 133.5 666.5 c 128,-1,15
 158 707 158 707 198 727.5 c 128,-1,16
 238 748 238 748 284 748 c 0,17,18
 328 748 328 748 376 724 c 1,19,-1
 354 648 l 1,20,21
 318 665 318 665 286 665 c 0,22,0
 250 665 250 665 226 643 c 128,-1,1
EndSplineSet
Substitution2: "<3,3> Small Caps in Latin lookup 11 subtable" f.sc
EndChar

StartChar: g
Encoding: 103 103 75
Width: 638
Flags: W
LayerCount: 2
Fore
SplineSet
559 529 m 1,0,-1
 559 54 l 2,1,2
 559 -22 559 -22 525.5 -79 c 128,-1,3
 492 -136 492 -136 431 -166.5 c 128,-1,4
 370 -197 370 -197 289 -197 c 0,5,6
 172 -197 172 -197 71 -123 c 1,7,-1
 112 -55 l 1,8,9
 151 -87 151 -87 193 -102.5 c 128,-1,10
 235 -118 235 -118 285 -118 c 0,11,12
 367 -118 367 -118 416 -72 c 128,-1,13
 465 -26 465 -26 465 51 c 2,14,-1
 465 125 l 1,15,16
 437 77 437 77 389 50.5 c 128,-1,17
 341 24 341 24 279 24 c 0,18,19
 208 24 208 24 153.5 56.5 c 128,-1,20
 99 89 99 89 69 147 c 128,-1,21
 39 205 39 205 39 280 c 0,22,23
 39 354 39 354 69 411 c 128,-1,24
 99 468 99 468 153.5 500 c 128,-1,25
 208 532 208 532 279 532 c 0,26,27
 342 532 342 532 389.5 506 c 128,-1,28
 437 480 437 480 465 432 c 1,29,-1
 465 529 l 1,30,-1
 559 529 l 1,0,-1
384 122 m 128,-1,32
 422 145 422 145 443.5 185.5 c 128,-1,33
 465 226 465 226 465 277 c 0,34,35
 465 329 465 329 443.5 369.5 c 128,-1,36
 422 410 422 410 384 433 c 128,-1,37
 346 456 346 456 297 456 c 256,38,39
 248 456 248 456 209.5 433 c 128,-1,40
 171 410 171 410 149 369.5 c 128,-1,41
 127 329 127 329 127 277 c 0,42,43
 128 199 128 199 175 149 c 128,-1,44
 222 99 222 99 297 99 c 0,45,31
 346 99 346 99 384 122 c 128,-1,32
EndSplineSet
Substitution2: "<3,3> Small Caps in Latin lookup 11 subtable" g.sc
EndChar

StartChar: h
Encoding: 104 104 76
Width: 665
Flags: W
LayerCount: 2
Fore
SplineSet
537 477.5 m 128,-1,1
 590 423 590 423 590 327 c 2,2,-1
 590 0 l 1,3,-1
 497 0 l 1,4,-1
 497 302 l 2,5,6
 497 369 497 369 459.5 406.5 c 128,-1,7
 422 444 422 444 356 444 c 0,8,9
 279 443 279 443 234 392 c 128,-1,10
 189 341 189 341 189 260 c 2,11,-1
 189 0 l 1,12,-1
 96 0 l 1,13,-1
 96 742 l 1,14,-1
 189 742 l 1,15,-1
 189 415 l 1,16,17
 242 530 242 530 391 532 c 0,18,0
 484 532 484 532 537 477.5 c 128,-1,1
EndSplineSet
Substitution2: "<3,3> Small Caps in Latin lookup 11 subtable" h.sc
EndChar

StartChar: k
Encoding: 107 107 79
Width: 582
Flags: W
LayerCount: 2
Fore
SplineSet
461 0 m 1,0,-1
 292 257 l 1,1,-1
 189 150 l 1,2,-1
 189 0 l 1,3,-1
 96 0 l 1,4,-1
 96 742 l 1,5,-1
 189 742 l 1,6,-1
 189 269 l 1,7,-1
 445 529 l 1,8,-1
 554 529 l 1,9,-1
 357 324 l 1,10,-1
 573 0 l 1,11,-1
 461 0 l 1,0,-1
EndSplineSet
Substitution2: "<3,3> Small Caps in Latin lookup 11 subtable" k.sc
EndChar

StartChar: l
Encoding: 108 108 80
Width: 285
Flags: W
LayerCount: 2
Fore
SplineSet
96 742 m 1,0,-1
 189 742 l 1,1,-1
 189 0 l 1,2,-1
 96 0 l 1,3,-1
 96 742 l 1,0,-1
EndSplineSet
Substitution2: "<3,3> Small Caps in Latin lookup 11 subtable" l.sc
EndChar

StartChar: m
Encoding: 109 109 81
Width: 1044
Flags: W
LayerCount: 2
Fore
SplineSet
917 477 m 128,-1,1
 969 422 969 422 969 327 c 2,2,-1
 969 0 l 1,3,-1
 875 0 l 1,4,-1
 875 302 l 2,5,6
 875 369 875 369 838.5 407 c 128,-1,7
 802 445 802 445 738 445 c 0,8,9
 663 443 663 443 620 392 c 128,-1,10
 577 341 577 341 577 261 c 2,11,-1
 577 0 l 1,12,-1
 483 0 l 1,13,-1
 483 302 l 2,14,15
 483 369 483 369 447 407 c 128,-1,16
 411 445 411 445 346 445 c 0,17,18
 271 443 271 443 227.5 392 c 128,-1,19
 184 341 184 341 184 261 c 2,20,-1
 184 0 l 1,21,-1
 91 0 l 1,22,-1
 91 529 l 1,23,-1
 184 529 l 1,24,-1
 184 418 l 1,25,26
 236 530 236 530 381 532 c 0,27,28
 454 532 454 532 502.5 497 c 128,-1,29
 551 462 551 462 568 399 c 1,30,31
 617 530 617 530 774 532 c 0,32,0
 865 532 865 532 917 477 c 128,-1,1
EndSplineSet
Substitution2: "<3,3> Small Caps in Latin lookup 11 subtable" m.sc
EndChar

StartChar: n
Encoding: 110 110 82
Width: 659
Flags: W
LayerCount: 2
Fore
SplineSet
531 477.5 m 128,-1,1
 584 423 584 423 584 327 c 2,2,-1
 584 0 l 1,3,-1
 491 0 l 1,4,-1
 491 302 l 2,5,6
 491 369 491 369 453.5 406.5 c 128,-1,7
 416 444 416 444 350 444 c 0,8,9
 279 443 279 443 234.5 398.5 c 128,-1,10
 190 354 190 354 184 283 c 1,11,-1
 184 0 l 1,12,-1
 91 0 l 1,13,-1
 91 529 l 1,14,-1
 184 529 l 1,15,-1
 184 417 l 1,16,17
 237 530 237 530 385 532 c 0,18,0
 478 532 478 532 531 477.5 c 128,-1,1
EndSplineSet
Substitution2: "<3,3> Small Caps in Latin lookup 11 subtable" n.sc
EndChar

StartChar: o
Encoding: 111 111 83
Width: 621
Flags: W
LayerCount: 2
Fore
SplineSet
451.5 498 m 128,-1,1
 513 464 513 464 547.5 403.5 c 128,-1,2
 582 343 582 343 582 265 c 256,3,4
 582 187 582 187 547.5 126 c 128,-1,5
 513 65 513 65 451.5 31 c 128,-1,6
 390 -3 390 -3 311 -3 c 0,7,8
 231 -3 231 -3 169.5 31 c 128,-1,9
 108 65 108 65 73.5 125.5 c 128,-1,10
 39 186 39 186 39 265 c 0,11,12
 39 343 39 343 73.5 403.5 c 128,-1,13
 108 464 108 464 169.5 498 c 128,-1,14
 231 532 231 532 311 532 c 0,15,0
 390 532 390 532 451.5 498 c 128,-1,1
218.5 427 m 128,-1,17
 178 403 178 403 155.5 360.5 c 128,-1,18
 133 318 133 318 133 264 c 0,19,20
 133 209 133 209 155.5 166 c 128,-1,21
 178 123 178 123 218.5 99.5 c 128,-1,22
 259 76 259 76 311 76 c 0,23,24
 362 76 362 76 402.5 99.5 c 128,-1,25
 443 123 443 123 465.5 166 c 128,-1,26
 488 209 488 209 488 264 c 0,27,28
 488 318 488 318 465.5 360.5 c 128,-1,29
 443 403 443 403 402.5 427 c 128,-1,30
 362 451 362 451 311 451 c 0,31,16
 259 451 259 451 218.5 427 c 128,-1,17
EndSplineSet
Substitution2: "<3,3> Small Caps in Latin lookup 11 subtable" o.sc
Substitution2: "<11,2> Diagonal Fractions lookup 7 nested-substitutions 0 subtable" ordmasculine
Substitution2: "<11,2> Diagonal Fractions lookup 5 nested-substitutions 0 subtable" ordmasculine
EndChar

StartChar: p
Encoding: 112 112 84
Width: 678
Flags: W
LayerCount: 2
Fore
SplineSet
517 498 m 128,-1,1
 575 464 575 464 607 403 c 128,-1,2
 639 342 639 342 639 263 c 0,3,4
 639 185 639 185 607.5 124.5 c 128,-1,5
 576 64 576 64 518.5 30.5 c 128,-1,6
 461 -3 461 -3 387 -3 c 0,7,8
 320 -3 320 -3 269 25 c 128,-1,9
 218 53 218 53 189 105 c 1,10,-1
 189 -194 l 1,11,-1
 96 -194 l 1,12,-1
 96 529 l 1,13,-1
 189 529 l 1,14,-1
 189 424 l 1,15,16
 218 476 218 476 268.5 504 c 128,-1,17
 319 532 319 532 385 532 c 0,18,0
 459 532 459 532 517 498 c 128,-1,1
458.5 102 m 128,-1,20
 499 126 499 126 521.5 169 c 128,-1,21
 544 212 544 212 544 266 c 0,22,23
 544 319 544 319 521 362 c 128,-1,24
 498 405 498 405 458 429 c 128,-1,25
 418 453 418 453 367 453 c 256,26,27
 316 453 316 453 275.5 429 c 128,-1,28
 235 405 235 405 212 362 c 128,-1,29
 189 319 189 319 189 266 c 0,30,31
 189 211 189 211 212 168.5 c 128,-1,32
 235 126 235 126 275.5 102 c 128,-1,33
 316 78 316 78 367 78 c 256,34,19
 418 78 418 78 458.5 102 c 128,-1,20
EndSplineSet
Substitution2: "<3,3> Small Caps in Latin lookup 11 subtable" p.sc
EndChar

StartChar: q
Encoding: 113 113 85
Width: 680
Flags: W
LayerCount: 2
Fore
SplineSet
584 529 m 1,0,-1
 584 -194 l 1,1,-1
 491 -194 l 1,2,-1
 491 105 l 1,3,4
 461 52 461 52 410.5 23.5 c 128,-1,5
 360 -5 360 -5 293 -5 c 0,6,7
 218 -5 218 -5 160.5 29.5 c 128,-1,8
 103 64 103 64 71 125.5 c 128,-1,9
 39 187 39 187 39 266 c 0,10,11
 39 344 39 344 71 404.5 c 128,-1,12
 103 465 103 465 160.5 499 c 128,-1,13
 218 533 218 533 292 533 c 0,14,15
 360 533 360 533 411 505 c 128,-1,16
 462 477 462 477 491 424 c 1,17,-1
 491 529 l 1,18,-1
 584 529 l 1,0,-1
404.5 99 m 128,-1,20
 445 123 445 123 468 166 c 128,-1,21
 491 209 491 209 491 263 c 0,22,23
 491 318 491 318 468 361 c 128,-1,24
 445 404 445 404 404.5 428 c 128,-1,25
 364 452 364 452 312 452 c 256,26,27
 260 452 260 452 219.5 427.5 c 128,-1,28
 179 403 179 403 156 360 c 128,-1,29
 133 317 133 317 133 263 c 256,30,31
 133 209 133 209 156 166 c 128,-1,32
 179 123 179 123 219.5 99 c 128,-1,33
 260 75 260 75 312 75 c 256,34,19
 364 75 364 75 404.5 99 c 128,-1,20
EndSplineSet
Substitution2: "<3,3> Small Caps in Latin lookup 11 subtable" q.sc
EndChar

StartChar: r
Encoding: 114 114 86
Width: 382
Flags: W
LayerCount: 2
Fore
SplineSet
258 501.5 m 128,-1,1
 306 531 306 531 372 532 c 1,2,-1
 372 442 l 1,3,4
 291 445 291 445 241 400 c 128,-1,5
 191 355 191 355 184 279 c 1,6,-1
 184 0 l 1,7,-1
 91 0 l 1,8,-1
 91 529 l 1,9,-1
 184 529 l 1,10,-1
 184 415 l 1,11,0
 210 472 210 472 258 501.5 c 128,-1,1
EndSplineSet
Substitution2: "<3,3> Small Caps in Latin lookup 11 subtable" r.sc
EndChar

StartChar: s
Encoding: 115 115 87
Width: 460
Flags: W
LayerCount: 2
Fore
SplineSet
307.5 444 m 128,-1,1
 268 456 268 456 232 456 c 0,2,3
 190 456 190 456 164.5 440.5 c 128,-1,4
 139 425 139 425 139 393 c 256,5,6
 139 361 139 361 167.5 344.5 c 128,-1,7
 196 328 196 328 254 311 c 0,8,9
 309 295 309 295 344 279 c 128,-1,10
 379 263 379 263 403.5 232 c 128,-1,11
 428 201 428 201 428 150 c 0,12,13
 428 75 428 75 371.5 36 c 128,-1,14
 315 -3 315 -3 231 -3 c 0,15,16
 172 -3 172 -3 116.5 16 c 128,-1,17
 61 35 61 35 23 70 c 1,18,-1
 58 138 l 1,19,20
 91 108 91 108 139.5 90 c 128,-1,21
 188 72 188 72 234 72 c 256,22,23
 280 72 280 72 308 89 c 128,-1,24
 336 106 336 106 336 141 c 0,25,26
 336 177 336 177 306.5 195 c 128,-1,27
 277 213 277 213 217 231 c 0,28,29
 164 246 164 246 130.5 261.5 c 128,-1,30
 97 277 97 277 73.5 307 c 128,-1,31
 50 337 50 337 50 385 c 0,32,33
 50 459 50 459 104 496 c 128,-1,34
 158 533 158 533 239 533 c 0,35,36
 287 533 287 533 333.5 519.5 c 128,-1,37
 380 506 380 506 414 483 c 1,38,-1
 380 412 l 1,39,0
 347 432 347 432 307.5 444 c 128,-1,1
EndSplineSet
Substitution2: "<3,3> Small Caps in Latin lookup 11 subtable" s.sc
EndChar

StartChar: t
Encoding: 116 116 88
Width: 397
Flags: W
LayerCount: 2
Fore
SplineSet
375 35 m 1,0,1
 314 -4 314 -4 251 -4 c 256,2,3
 188 -4 188 -4 149 33.5 c 128,-1,4
 110 71 110 71 110 147 c 2,5,-1
 110 440 l 1,6,-1
 35 440 l 1,7,-1
 35 511 l 1,8,-1
 110 511 l 1,9,-1
 110 653 l 1,10,-1
 204 653 l 1,11,-1
 204 511 l 1,12,-1
 366 511 l 1,13,-1
 366 440 l 1,14,-1
 204 440 l 1,15,-1
 204 164 l 2,16,17
 204 120 204 120 220 101 c 128,-1,18
 236 82 236 82 268 82 c 0,19,20
 306 82 306 82 350 107 c 1,21,-1
 375 35 l 1,0,1
EndSplineSet
Substitution2: "<3,3> Small Caps in Latin lookup 11 subtable" t.sc
EndChar

StartChar: u
Encoding: 117 117 89
Width: 649
Flags: W
LayerCount: 2
Fore
SplineSet
559 529 m 1,0,-1
 559 0 l 1,1,-1
 465 0 l 1,2,-1
 465 112 l 1,3,4
 413 -1 413 -1 269 -3 c 0,5,6
 177 -3 177 -3 125 51.5 c 128,-1,7
 73 106 73 106 73 202 c 2,8,-1
 73 529 l 1,9,-1
 167 529 l 1,10,-1
 167 227 l 2,11,12
 167 160 167 160 203.5 122.5 c 128,-1,13
 240 85 240 85 304 85 c 0,14,15
 378 86 378 86 421.5 137.5 c 128,-1,16
 465 189 465 189 465 269 c 2,17,-1
 465 529 l 1,18,-1
 559 529 l 1,0,-1
EndSplineSet
Substitution2: "<3,3> Small Caps in Latin lookup 11 subtable" u.sc
EndChar

StartChar: v
Encoding: 118 118 90
Width: 510
Flags: W
LayerCount: 2
Fore
SplineSet
3 529 m 1,0,-1
 102 529 l 1,1,-1
 261 92 l 1,2,-1
 419 529 l 1,3,-1
 513 529 l 1,4,-1
 307 0 l 1,5,-1
 210 0 l 1,6,-1
 3 529 l 1,0,-1
EndSplineSet
Substitution2: "<3,3> Small Caps in Latin lookup 11 subtable" v.sc
EndChar

StartChar: w
Encoding: 119 119 91
Width: 876
Flags: W
LayerCount: 2
Fore
SplineSet
3 529 m 1,0,-1
 100 529 l 1,1,-1
 248 92 l 1,2,-1
 394 529 l 1,3,-1
 491 529 l 1,4,-1
 638 92 l 1,5,-1
 784 529 l 1,6,-1
 880 529 l 1,7,-1
 685 0 l 1,8,-1
 588 0 l 1,9,-1
 442 416 l 1,10,-1
 296 0 l 1,11,-1
 199 0 l 1,12,-1
 3 529 l 1,0,-1
EndSplineSet
Substitution2: "<3,3> Small Caps in Latin lookup 11 subtable" w.sc
EndChar

StartChar: x
Encoding: 120 120 92
Width: 540
Flags: W
LayerCount: 2
Fore
SplineSet
31 529 m 1,0,-1
 139 529 l 1,1,-1
 270 335 l 1,2,-1
 403 529 l 1,3,-1
 506 529 l 1,4,-1
 332 271 l 1,5,-1
 519 0 l 1,6,-1
 410 0 l 1,7,-1
 270 208 l 1,8,-1
 123 0 l 1,9,-1
 18 0 l 1,10,-1
 208 271 l 1,11,-1
 31 529 l 1,0,-1
EndSplineSet
Substitution2: "<3,3> Small Caps in Latin lookup 11 subtable" x.sc
EndChar

StartChar: y
Encoding: 121 121 93
Width: 514
Flags: W
LayerCount: 2
Fore
SplineSet
209.5 -167 m 128,-1,1
 168 -198 168 -198 112 -198 c 0,2,3
 78 -198 78 -198 50 -188 c 128,-1,4
 22 -178 22 -178 -4 -157 c 1,5,-1
 36 -84 l 1,6,7
 71 -109 71 -109 107 -109 c 0,8,9
 167 -109 167 -109 197 -41 c 2,10,-1
 217 6 l 1,11,-1
 -2 529 l 1,12,-1
 96 529 l 1,13,-1
 264 105 l 1,14,-1
 423 529 l 1,15,-1
 518 529 l 1,16,-1
 276 -75 l 2,17,0
 251 -136 251 -136 209.5 -167 c 128,-1,1
EndSplineSet
Substitution2: "<3,3> Small Caps in Latin lookup 11 subtable" y.sc
EndChar

StartChar: z
Encoding: 122 122 94
Width: 531
Flags: W
LayerCount: 2
Fore
SplineSet
58 529 m 1,0,-1
 483 528 l 1,1,-1
 483 462 l 1,2,-1
 163 77 l 1,3,-1
 491 76 l 1,4,-1
 491 -1 l 1,5,-1
 49 0 l 1,6,-1
 49 66 l 1,7,-1
 368 451 l 1,8,-1
 58 452 l 1,9,-1
 58 529 l 1,0,-1
EndSplineSet
Substitution2: "<3,3> Small Caps in Latin lookup 11 subtable" z.sc
EndChar

StartChar: braceleft
Encoding: 123 123 95
Width: 339
Flags: W
LayerCount: 2
Fore
SplineSet
199 358 m 128,-1,1
 187 342 187 342 156 324 c 2,2,-1
 133 309 l 1,3,4
 143 301 143 301 156 294 c 0,5,6
 178 280 178 280 188.5 271 c 128,-1,7
 199 262 199 262 205 247 c 128,-1,8
 211 232 211 232 211 206 c 2,9,-1
 211 23 l 2,10,11
 211 -16 211 -16 233.5 -33 c 128,-1,12
 256 -50 256 -50 309 -50 c 1,13,-1
 309 -126 l 1,14,-1
 274 -126 l 2,15,16
 194 -126 194 -126 159.5 -98 c 128,-1,17
 125 -70 125 -70 125 -4 c 2,18,-1
 125 212 l 2,19,20
 125 243 125 243 114 256.5 c 128,-1,21
 103 270 103 270 80 270 c 2,22,-1
 51 270 l 1,23,-1
 51 347 l 1,24,-1
 80 347 l 2,25,26
 103 347 103 347 114 360.5 c 128,-1,27
 125 374 125 374 125 405 c 2,28,-1
 125 621 l 2,29,30
 125 686 125 686 159.5 714.5 c 128,-1,31
 194 743 194 743 274 743 c 2,32,-1
 309 743 l 1,33,-1
 309 667 l 1,34,35
 256 667 256 667 233.5 650 c 128,-1,36
 211 633 211 633 211 594 c 2,37,-1
 211 410 l 2,38,0
 211 374 211 374 199 358 c 128,-1,1
EndSplineSet
Substitution2: "'rtla' Right to Left Alternates in Latin lookup 0 subtable" braceright
EndChar

StartChar: bar
Encoding: 124 124 96
Width: 258
Flags: W
LayerCount: 2
Fore
SplineSet
93 813 m 1,0,-1
 165 813 l 1,1,-1
 165 -119 l 1,2,-1
 93 -119 l 1,3,-1
 93 813 l 1,0,-1
EndSplineSet
EndChar

StartChar: braceright
Encoding: 125 125 97
Width: 339
Flags: W
LayerCount: 2
Fore
SplineSet
288 347 m 1,0,-1
 288 270 l 1,1,-1
 259 270 l 2,2,3
 236 270 236 270 225 256.5 c 128,-1,4
 214 243 214 243 214 212 c 2,5,-1
 214 -4 l 2,6,7
 214 -70 214 -70 179.5 -98 c 128,-1,8
 145 -126 145 -126 65 -126 c 2,9,-1
 30 -126 l 1,10,-1
 30 -50 l 1,11,12
 83 -50 83 -50 105.5 -33 c 128,-1,13
 128 -16 128 -16 128 23 c 2,14,-1
 128 206 l 2,15,16
 128 232 128 232 134 247 c 128,-1,17
 140 262 140 262 150.5 271 c 128,-1,18
 161 280 161 280 183 294 c 0,19,20
 196 301 196 301 206 309 c 1,21,-1
 183 324 l 2,22,23
 152 342 152 342 140 358 c 128,-1,24
 128 374 128 374 128 410 c 2,25,-1
 128 594 l 2,26,27
 128 633 128 633 105.5 650 c 128,-1,28
 83 667 83 667 30 667 c 1,29,-1
 30 743 l 1,30,-1
 65 743 l 2,31,32
 145 743 145 743 179.5 714.5 c 128,-1,33
 214 686 214 686 214 621 c 2,34,-1
 214 405 l 2,35,36
 214 374 214 374 225 360.5 c 128,-1,37
 236 347 236 347 259 347 c 2,38,-1
 288 347 l 1,0,-1
EndSplineSet
Substitution2: "'rtla' Right to Left Alternates in Latin lookup 0 subtable" braceleft
EndChar

StartChar: asciitilde
Encoding: 126 126 98
Width: 494
Flags: W
LayerCount: 2
Fore
SplineSet
334 253 m 0,1,2
 309 253 309 253 288 262 c 128,-1,3
 267 271 267 271 240 288 c 0,4,5
 218 301 218 301 204.5 307 c 128,-1,6
 191 313 191 313 178 313 c 0,7,8
 136 313 136 313 136 260 c 1,9,-1
 70 260 l 1,10,11
 70 387 70 387 161 387 c 0,12,13
 183 387 183 387 203 378.5 c 128,-1,14
 223 370 223 370 253 353 c 0,15,16
 277 339 277 339 291 333 c 128,-1,17
 305 327 305 327 318 327 c 0,18,19
 359 327 359 327 359 380 c 1,20,-1
 425 380 l 1,21,0
 425 253 425 253 334 253 c 0,1,2
EndSplineSet
EndChar

StartChar: exclamdown
Encoding: 161 161 100
Width: 206
Flags: W
LayerCount: 2
Fore
SplineSet
75.5 438 m 128,-1,1
 60 454 60 454 60 479 c 256,2,3
 60 504 60 504 75.5 520.5 c 128,-1,4
 91 537 91 537 114 537 c 256,5,6
 137 537 137 537 153 520.5 c 128,-1,7
 169 504 169 504 169 479 c 256,8,9
 169 454 169 454 153 438 c 128,-1,10
 137 422 137 422 114 422 c 256,11,0
 91 422 91 422 75.5 438 c 128,-1,1
159 -162 m 1,12,-1
 69 -162 l 1,13,-1
 69 9 l 1,14,-1
 84 313 l 1,15,-1
 145 313 l 1,16,-1
 159 9 l 1,17,-1
 159 -162 l 1,12,-1
EndSplineSet
Substitution2: "<3,3> Small Caps in Latin lookup 11 subtable" exclamdown.sc
EndChar

StartChar: cent
Encoding: 162 162 101
Width: 600
Flags: W
LayerCount: 2
Fore
SplineSet
341 -1 m 1,1,-1
 341 -140 l 1,2,-1
 269 -140 l 1,3,-1
 269 -1 l 1,4,5
 201 6 201 6 149 41.5 c 128,-1,6
 97 77 97 77 68 134.5 c 128,-1,7
 39 192 39 192 39 264 c 256,8,9
 39 336 39 336 68 394 c 128,-1,10
 97 452 97 452 149 487.5 c 128,-1,11
 201 523 201 523 269 530 c 1,12,-1
 269 677 l 1,13,-1
 341 677 l 1,14,-1
 341 530 l 1,15,16
 450 519 450 519 513 452 c 1,17,-1
 462 388 l 1,18,19
 399 449 399 449 311 449 c 0,20,21
 259 449 259 449 218.5 426 c 128,-1,22
 178 403 178 403 155 361 c 128,-1,23
 132 319 132 319 132 264 c 256,24,25
 132 209 132 209 154.5 167 c 128,-1,26
 177 125 177 125 216.5 101.5 c 128,-1,27
 256 78 256 78 307 78 c 256,28,29
 358 78 358 78 399 95 c 128,-1,30
 440 112 440 112 467 144 c 1,31,-1
 520 90 l 1,32,0
 456 11 456 11 341 -1 c 1,1,-1
EndSplineSet
EndChar

StartChar: sterling
Encoding: 163 163 102
Width: 544
Flags: W
LayerCount: 2
Fore
SplineSet
222 79 m 1,0,-1
 510 79 l 1,1,-1
 510 0 l 1,2,-1
 40 0 l 1,3,-1
 40 79 l 1,4,-1
 126 79 l 1,5,-1
 126 323 l 1,6,-1
 40 323 l 1,7,-1
 40 377 l 1,8,-1
 126 377 l 1,9,-1
 126 487 l 2,10,11
 126 591 126 591 179 647.5 c 128,-1,12
 232 704 232 704 330 704 c 0,13,14
 386 704 386 704 435.5 680 c 128,-1,15
 485 656 485 656 522 612 c 1,16,-1
 483 538 l 1,17,18
 452 577 452 577 415 597 c 128,-1,19
 378 617 378 617 339 617 c 0,20,21
 282 617 282 617 252 583.5 c 128,-1,22
 222 550 222 550 222 485 c 2,23,-1
 222 377 l 1,24,-1
 401 377 l 1,25,-1
 401 323 l 1,26,-1
 222 323 l 1,27,-1
 222 79 l 1,0,-1
EndSplineSet
EndChar

StartChar: currency
Encoding: 164 164 103
Width: 714
Flags: W
LayerCount: 2
Fore
SplineSet
614.5 233.5 m 128,-1,1
 600 192 600 192 573 158 c 1,2,-1
 675 55 l 1,3,-1
 622 -2 l 1,4,-1
 515 105 l 1,5,6
 446 55 446 55 357 55 c 0,7,8
 269 55 269 55 200 105 c 1,9,-1
 93 -2 l 1,10,-1
 39 55 l 1,11,-1
 142 159 l 1,12,13
 115 193 115 193 100.5 234 c 128,-1,14
 86 275 86 275 86 319 c 0,15,16
 86 407 86 407 140 478 c 1,17,-1
 39 580 l 1,18,-1
 93 637 l 1,19,-1
 197 533 l 1,20,21
 269 584 269 584 357 584 c 0,22,23
 446 584 446 584 518 533 c 1,24,-1
 622 637 l 1,25,-1
 675 580 l 1,26,-1
 574 478 l 1,27,28
 629 409 629 409 629 319 c 0,29,0
 629 275 629 275 614.5 233.5 c 128,-1,1
456 159 m 128,-1,31
 501 184 501 184 527.5 226.5 c 128,-1,32
 554 269 554 269 554 319 c 256,33,34
 554 369 554 369 527.5 412 c 128,-1,35
 501 455 501 455 456 480 c 128,-1,36
 411 505 411 505 357 505 c 0,37,38
 304 505 304 505 259 480 c 128,-1,39
 214 455 214 455 188 412 c 128,-1,40
 162 369 162 369 162 319 c 256,41,42
 162 269 162 269 188 226.5 c 128,-1,43
 214 184 214 184 259 159 c 128,-1,44
 304 134 304 134 357 134 c 0,45,30
 411 134 411 134 456 159 c 128,-1,31
EndSplineSet
EndChar

StartChar: yen
Encoding: 165 165 104
Width: 629
Flags: W
LayerCount: 2
Fore
SplineSet
626 700 m 1,0,-1
 396 294 l 1,1,-1
 569 294 l 1,2,-1
 569 241 l 1,3,-1
 366 241 l 1,4,-1
 365 240 l 1,5,-1
 365 176 l 1,6,-1
 569 176 l 1,7,-1
 569 122 l 1,8,-1
 365 122 l 1,9,-1
 365 0 l 1,10,-1
 269 0 l 1,11,-1
 269 122 l 1,12,-1
 64 122 l 1,13,-1
 64 176 l 1,14,-1
 269 176 l 1,15,-1
 269 236 l 1,16,-1
 266 241 l 1,17,-1
 64 241 l 1,18,-1
 64 294 l 1,19,-1
 235 294 l 1,20,-1
 2 700 l 1,21,-1
 100 700 l 1,22,-1
 316 343 l 1,23,-1
 528 700 l 1,24,-1
 626 700 l 1,0,-1
EndSplineSet
EndChar

StartChar: brokenbar
Encoding: 166 166 105
Width: 258
Flags: W
LayerCount: 2
Fore
SplineSet
93 813 m 1,0,-1
 165 813 l 1,1,-1
 165 466 l 1,2,-1
 93 466 l 1,3,-1
 93 813 l 1,0,-1
93 229 m 1,4,-1
 165 229 l 1,5,-1
 165 -119 l 1,6,-1
 93 -119 l 1,7,-1
 93 229 l 1,4,-1
EndSplineSet
EndChar

StartChar: section
Encoding: 167 167 106
Width: 484
Flags: W
LayerCount: 2
Fore
SplineSet
252 627 m 0,1,2
 203 627 203 627 174 608.5 c 128,-1,3
 145 590 145 590 145 559 c 0,4,5
 145 533 145 533 162 515.5 c 128,-1,6
 179 498 179 498 204.5 487.5 c 128,-1,7
 230 477 230 477 275 463 c 0,8,9
 332 445 332 445 366.5 429.5 c 128,-1,10
 401 414 401 414 426 384 c 128,-1,11
 451 354 451 354 451 307 c 0,12,13
 451 263 451 263 418.5 226.5 c 128,-1,14
 386 190 386 190 340 178 c 1,15,16
 390 158 390 158 412.5 131 c 128,-1,17
 435 104 435 104 435 61 c 0,18,19
 435 19 435 19 410 -14 c 128,-1,20
 385 -47 385 -47 339.5 -65.5 c 128,-1,21
 294 -84 294 -84 236 -84 c 0,22,23
 176 -84 176 -84 120.5 -64.5 c 128,-1,24
 65 -45 65 -45 23 -9 c 1,25,-1
 53 51 l 1,26,27
 93 18 93 18 139.5 0.5 c 128,-1,28
 186 -17 186 -17 233 -17 c 0,29,30
 284 -17 284 -17 317 4.5 c 128,-1,31
 350 26 350 26 350 58 c 0,32,33
 350 84 350 84 333 101.5 c 128,-1,34
 316 119 316 119 291 129.5 c 128,-1,35
 266 140 266 140 220 155 c 0,36,37
 164 172 164 172 129.5 188 c 128,-1,38
 95 204 95 204 70.5 233.5 c 128,-1,39
 46 263 46 263 46 309 c 0,40,41
 46 357 46 357 80 390 c 128,-1,42
 114 423 114 423 173 434 c 1,43,44
 112 458 112 458 87.5 485.5 c 128,-1,45
 63 513 63 513 63 555 c 0,46,47
 63 617 63 617 115 655.5 c 128,-1,48
 167 694 167 694 252 694 c 0,49,50
 348 694 348 694 430 644 c 1,51,-1
 399 584 l 1,52,0
 326 627 326 627 252 627 c 0,1,2
157.5 366.5 m 128,-1,54
 128 348 128 348 128 316 c 0,55,56
 128 277 128 277 167.5 251.5 c 128,-1,57
 207 226 207 226 263 226 c 0,58,59
 312 226 312 226 340 246.5 c 128,-1,60
 368 267 368 267 368 301 c 0,61,62
 368 338 368 338 332 361.5 c 128,-1,63
 296 385 296 385 238 385 c 0,64,53
 187 385 187 385 157.5 366.5 c 128,-1,54
EndSplineSet
EndChar

StartChar: copyright
Encoding: 169 169 108
Width: 752
Flags: W
LayerCount: 2
Fore
SplineSet
547.5 643.5 m 128,-1,1
 625 598 625 598 670 520 c 128,-1,2
 715 442 715 442 715 350 c 0,3,4
 715 259 715 259 670 180.5 c 128,-1,5
 625 102 625 102 547 55.5 c 128,-1,6
 469 9 469 9 375 9 c 0,7,8
 282 9 282 9 204.5 55 c 128,-1,9
 127 101 127 101 82.5 179 c 128,-1,10
 38 257 38 257 38 348 c 256,11,12
 38 439 38 439 83 517.5 c 128,-1,13
 128 596 128 596 205.5 642.5 c 128,-1,14
 283 689 283 689 377 689 c 0,15,0
 470 689 470 689 547.5 643.5 c 128,-1,1
229.5 598.5 m 128,-1,17
 163 559 163 559 124.5 492.5 c 128,-1,18
 86 426 86 426 86 348 c 256,19,20
 86 270 86 270 124 204 c 128,-1,21
 162 138 162 138 228.5 99 c 128,-1,22
 295 60 295 60 375 60 c 256,23,24
 455 60 455 60 522 99.5 c 128,-1,25
 589 139 589 139 627.5 205.5 c 128,-1,26
 666 272 666 272 666 350 c 256,27,28
 666 428 666 428 627.5 494.5 c 128,-1,29
 589 561 589 561 523 599.5 c 128,-1,30
 457 638 457 638 377 638 c 0,31,16
 296 638 296 638 229.5 598.5 c 128,-1,17
382 477 m 256,33,34
 327 477 327 477 289 440 c 128,-1,35
 251 403 251 403 251 350 c 0,36,37
 251 296 251 296 289 258.5 c 128,-1,38
 327 221 327 221 382 221 c 0,39,40
 408 221 408 221 434.5 232 c 128,-1,41
 461 243 461 243 482 262 c 1,42,-1
 512 229 l 1,43,44
 485 203 485 203 450.5 188.5 c 128,-1,45
 416 174 416 174 380 174 c 0,46,47
 330 174 330 174 289 197.5 c 128,-1,48
 248 221 248 221 224 261 c 128,-1,49
 200 301 200 301 200 349 c 256,50,51
 200 397 200 397 224 437 c 128,-1,52
 248 477 248 477 289.5 500 c 128,-1,53
 331 523 331 523 381 523 c 0,54,55
 417 523 417 523 451.5 509 c 128,-1,56
 486 495 486 495 512 470 c 1,57,-1
 482 435 l 1,58,32
 437 477 437 477 382 477 c 256,33,34
EndSplineSet
EndChar

StartChar: ordfeminine
Encoding: 170 170 109
Width: 382
Flags: W
LayerCount: 2
Fore
SplineSet
262 458 m 1,0,-1
 262 511 l 1,1,2
 224 455 224 455 144 455 c 0,3,4
 95 455 95 455 66 481 c 128,-1,5
 37 507 37 507 37 549 c 256,6,7
 37 591 37 591 69 614 c 128,-1,8
 101 637 101 637 160 637 c 2,9,-1
 261 637 l 1,10,-1
 261 655 l 2,11,12
 261 686 261 686 240.5 703 c 128,-1,13
 220 720 220 720 181 720 c 0,14,15
 132 720 132 720 73 688 c 1,16,-1
 55 735 l 1,17,18
 131 773 131 773 196 773 c 0,19,20
 258 773 258 773 293 744 c 128,-1,21
 328 715 328 715 327 663 c 2,22,-1
 328 458 l 1,23,-1
 262 458 l 1,0,-1
261 557 m 1,25,-1
 261 601 l 1,26,-1
 173 601 l 2,27,28
 138 601 138 601 119.5 589 c 128,-1,29
 101 577 101 577 101 554 c 256,30,31
 101 531 101 531 118.5 516.5 c 128,-1,32
 136 502 136 502 166 502 c 0,33,24
 233 502 233 502 261 557 c 1,25,-1
EndSplineSet
EndChar

StartChar: logicalnot
Encoding: 172 172 111
Width: 555
Flags: W
LayerCount: 2
Fore
SplineSet
476 394 m 1,0,-1
 476 148 l 1,1,-1
 406 148 l 1,2,-1
 406 328 l 1,3,-1
 36 328 l 1,4,-1
 36 394 l 1,5,-1
 476 394 l 1,0,-1
EndSplineSet
EndChar

StartChar: uni00AD
Encoding: 173 173 112
Width: 366
Flags: W
LayerCount: 2
Fore
SplineSet
63 337 m 1,0,-1
 302 337 l 1,1,-1
 302 270 l 1,2,-1
 63 270 l 1,3,-1
 63 337 l 1,0,-1
EndSplineSet
EndChar

StartChar: registered
Encoding: 174 174 113
Width: 752
Flags: W
LayerCount: 2
Fore
SplineSet
547.5 643.5 m 128,-1,1
 625 598 625 598 670 520 c 128,-1,2
 715 442 715 442 715 350 c 0,3,4
 715 259 715 259 670 180.5 c 128,-1,5
 625 102 625 102 547 55.5 c 128,-1,6
 469 9 469 9 375 9 c 0,7,8
 282 9 282 9 204.5 55 c 128,-1,9
 127 101 127 101 82.5 179 c 128,-1,10
 38 257 38 257 38 348 c 256,11,12
 38 439 38 439 83 517.5 c 128,-1,13
 128 596 128 596 205.5 642.5 c 128,-1,14
 283 689 283 689 377 689 c 0,15,0
 470 689 470 689 547.5 643.5 c 128,-1,1
522 99.5 m 128,-1,17
 589 139 589 139 627.5 205.5 c 128,-1,18
 666 272 666 272 666 350 c 256,19,20
 666 428 666 428 627.5 494.5 c 128,-1,21
 589 561 589 561 523 599.5 c 128,-1,22
 457 638 457 638 377 638 c 0,23,24
 296 638 296 638 229.5 598.5 c 128,-1,25
 163 559 163 559 124.5 492.5 c 128,-1,26
 86 426 86 426 86 348 c 256,27,28
 86 270 86 270 124 204 c 128,-1,29
 162 138 162 138 228.5 99 c 128,-1,30
 295 60 295 60 375 60 c 256,31,16
 455 60 455 60 522 99.5 c 128,-1,17
502 343.5 m 128,-1,33
 483 315 483 315 446 302 c 1,34,-1
 527 185 l 1,35,-1
 470 185 l 1,36,-1
 402 293 l 1,37,38
 396 292 396 292 383 292 c 2,39,-1
 297 292 l 1,40,-1
 297 185 l 1,41,-1
 248 185 l 1,42,-1
 248 531 l 1,43,-1
 383 531 l 2,44,45
 450 531 450 531 485.5 500.5 c 128,-1,46
 521 470 521 470 521 414 c 0,47,32
 521 372 521 372 502 343.5 c 128,-1,33
383 334 m 2,48,49
 427 334 427 334 451 355 c 128,-1,50
 475 376 475 376 475 414 c 0,51,52
 475 451 475 451 451 470.5 c 128,-1,53
 427 490 427 490 383 490 c 2,54,-1
 297 490 l 1,55,-1
 297 334 l 1,56,-1
 383 334 l 2,48,49
EndSplineSet
EndChar

StartChar: degree
Encoding: 176 176 115
Width: 336
Flags: W
LayerCount: 2
Fore
SplineSet
276.5 773 m 128,-1,1
 311 739 311 739 311 693 c 256,2,3
 311 647 311 647 276.5 613.5 c 128,-1,4
 242 580 242 580 195 580 c 256,5,6
 148 580 148 580 114 613.5 c 128,-1,7
 80 647 80 647 80 693 c 0,8,9
 80 740 80 740 114 773.5 c 128,-1,10
 148 807 148 807 195 807 c 256,11,0
 242 807 242 807 276.5 773 c 128,-1,1
143.5 742.5 m 128,-1,13
 122 722 122 722 122 693 c 0,14,15
 122 665 122 665 143.5 644.5 c 128,-1,16
 165 624 165 624 195 624 c 256,17,18
 225 624 225 624 246.5 644.5 c 128,-1,19
 268 665 268 665 268 693 c 0,20,21
 268 722 268 722 246.5 742.5 c 128,-1,22
 225 763 225 763 195 763 c 256,23,12
 165 763 165 763 143.5 742.5 c 128,-1,13
EndSplineSet
EndChar

StartChar: plusminus
Encoding: 177 177 116
Width: 494
Flags: W
LayerCount: 2
Fore
SplineSet
279 419 m 1,0,-1
 458 419 l 1,1,-1
 458 353 l 1,2,-1
 279 353 l 1,3,-1
 279 178 l 1,4,-1
 216 178 l 1,5,-1
 216 353 l 1,6,-1
 36 353 l 1,7,-1
 36 419 l 1,8,-1
 216 419 l 1,9,-1
 216 593 l 1,10,-1
 279 593 l 1,11,-1
 279 419 l 1,0,-1
36 27 m 1,12,-1
 36 94 l 1,13,-1
 458 94 l 1,14,-1
 458 27 l 1,15,-1
 36 27 l 1,12,-1
EndSplineSet
EndChar

StartChar: paragraph
Encoding: 182 182 121
Width: 602
Flags: W
LayerCount: 2
Fore
SplineSet
182 370 m 0,1,2
 115 370 115 370 74.5 399 c 128,-1,3
 34 428 34 428 17.5 469 c 128,-1,4
 1 510 1 510 1 552 c 0,5,6
 1 603 1 603 23.5 646 c 128,-1,7
 46 689 46 689 95 715.5 c 128,-1,8
 144 742 144 742 219 742 c 2,9,-1
 502 742 l 1,10,-1
 502 -110 l 1,11,-1
 429 -110 l 1,12,-1
 429 682 l 1,13,-1
 287 682 l 1,14,-1
 287 -110 l 1,15,-1
 215 -110 l 1,16,-1
 215 371 l 1,17,0
 203 370 203 370 182 370 c 0,1,2
EndSplineSet
EndChar

StartChar: ordmasculine
Encoding: 186 186 125
Width: 405
Flags: W
LayerCount: 2
Fore
SplineSet
324 729 m 128,-1,1
 371 685 371 685 371 614 c 0,2,3
 371 544 371 544 324 500 c 128,-1,4
 277 456 277 456 202 456 c 256,5,6
 127 456 127 456 80 500 c 128,-1,7
 33 544 33 544 33 614 c 0,8,9
 33 685 33 685 80 729 c 128,-1,10
 127 773 127 773 202 773 c 256,11,0
 277 773 277 773 324 729 c 128,-1,1
129.5 688.5 m 128,-1,13
 101 660 101 660 101 614 c 256,14,15
 101 568 101 568 129.5 539 c 128,-1,16
 158 510 158 510 202 510 c 256,17,18
 246 510 246 510 274 539 c 128,-1,19
 302 568 302 568 302 614 c 256,20,21
 302 660 302 660 274 688.5 c 128,-1,22
 246 717 246 717 202 717 c 256,23,12
 158 717 158 717 129.5 688.5 c 128,-1,13
EndSplineSet
EndChar

StartChar: questiondown
Encoding: 191 191 130
Width: 432
Flags: W
LayerCount: 2
Fore
SplineSet
191.5 438 m 128,-1,1
 176 454 176 454 176 479 c 256,2,3
 176 504 176 504 191.5 520.5 c 128,-1,4
 207 537 207 537 230 537 c 256,5,6
 253 537 253 537 269 520.5 c 128,-1,7
 285 504 285 504 285 479 c 256,8,9
 285 454 285 454 269 438 c 128,-1,10
 253 422 253 422 230 422 c 256,11,0
 207 422 207 422 191.5 438 c 128,-1,1
352 -114.5 m 128,-1,13
 298 -164 298 -164 209 -164 c 0,14,15
 121 -164 121 -164 68 -121.5 c 128,-1,16
 15 -79 15 -79 15 0 c 0,17,18
 15 39 15 39 27.5 68 c 128,-1,19
 40 97 40 97 59 117 c 128,-1,20
 78 137 78 137 108 163 c 0,21,22
 137 188 137 188 153 205.5 c 128,-1,23
 169 223 169 223 180.5 248 c 128,-1,24
 192 273 192 273 192 305 c 1,25,-1
 265 305 l 1,26,27
 265 265 265 265 253 235 c 128,-1,28
 241 205 241 205 224 185.5 c 128,-1,29
 207 166 207 166 178 140 c 0,30,31
 140 106 140 106 122 80 c 128,-1,32
 104 54 104 54 104 13 c 0,33,34
 104 -34 104 -34 134 -58.5 c 128,-1,35
 164 -83 164 -83 217 -83 c 256,36,37
 270 -83 270 -83 301 -55.5 c 128,-1,38
 332 -28 332 -28 334 24 c 1,39,-1
 409 23 l 1,40,12
 406 -65 406 -65 352 -114.5 c 128,-1,13
EndSplineSet
Substitution2: "<3,3> Small Caps in Latin lookup 11 subtable" questiondown.sc
EndChar

StartChar: AE
Encoding: 198 198 137
Width: 1037
Flags: W
LayerCount: 2
Fore
SplineSet
580 88 m 1,0,-1
 982 88 l 1,1,-1
 982 0 l 1,2,-1
 484 0 l 1,3,-1
 484 184 l 1,4,-1
 209 184 l 1,5,-1
 104 0 l 1,6,-1
 3 0 l 1,7,-1
 413 700 l 1,8,-1
 969 700 l 1,9,-1
 969 612 l 1,10,-1
 580 612 l 1,11,-1
 580 397 l 1,12,-1
 929 397 l 1,13,-1
 929 310 l 1,14,-1
 580 310 l 1,15,-1
 580 88 l 1,0,-1
253 260 m 1,16,-1
 484 260 l 1,17,-1
 484 620 l 1,18,-1
 459 620 l 1,19,-1
 253 260 l 1,16,-1
EndSplineSet
EndChar

StartChar: Ccedilla
Encoding: 199 199 138
Width: 699
Flags: W
LayerCount: 2
Fore
SplineSet
471.5 -79.5 m 128,-1,1
 492 -101 492 -101 492 -130 c 0,2,3
 492 -170 492 -170 461 -193.5 c 128,-1,4
 430 -217 430 -217 382 -217 c 0,5,6
 335 -217 335 -217 290 -196 c 1,7,-1
 310 -139 l 1,8,9
 342 -152 342 -152 371 -152 c 0,10,11
 393 -152 393 -152 405.5 -142.5 c 128,-1,12
 418 -133 418 -133 418 -121 c 0,13,14
 418 -108 418 -108 404.5 -99.5 c 128,-1,15
 391 -91 391 -91 367 -91 c 2,16,-1
 335 -91 l 1,17,-1
 362 -5 l 1,18,19
 271 4 271 4 197 53 c 128,-1,20
 123 102 123 102 80.5 180.5 c 128,-1,21
 38 259 38 259 38 351 c 0,22,23
 38 449 38 449 86.5 530.5 c 128,-1,24
 135 612 135 612 219 659 c 128,-1,25
 303 706 303 706 404 706 c 0,26,27
 477 706 477 706 545.5 678.5 c 128,-1,28
 614 651 614 651 664 601 c 1,29,-1
 607 532 l 1,30,31
 567 574 567 574 514 597.5 c 128,-1,32
 461 621 461 621 405 621 c 0,33,34
 331 621 331 621 269 585 c 128,-1,35
 207 549 207 549 171 487.5 c 128,-1,36
 135 426 135 426 135 352 c 0,37,38
 135 279 135 279 171 217 c 128,-1,39
 207 155 207 155 269 119 c 128,-1,40
 331 83 331 83 405 83 c 0,41,42
 460 83 460 83 513 105.5 c 128,-1,43
 566 128 566 128 607 167 c 1,44,-1
 665 104 l 1,45,46
 616 57 616 57 554.5 28 c 128,-1,47
 493 -1 493 -1 427 -6 c 1,48,-1
 411 -52 l 1,49,0
 451 -58 451 -58 471.5 -79.5 c 128,-1,1
EndSplineSet
EndChar

StartChar: multiply
Encoding: 215 215 154
Width: 494
Flags: W
LayerCount: 2
Fore
SplineSet
418 449 m 1,0,-1
 293 324 l 1,1,-1
 418 198 l 1,2,-1
 374 151 l 1,3,-1
 247 278 l 1,4,-1
 121 151 l 1,5,-1
 76 198 l 1,6,-1
 202 324 l 1,7,-1
 76 449 l 1,8,-1
 121 496 l 1,9,-1
 247 369 l 1,10,-1
 374 496 l 1,11,-1
 418 449 l 1,0,-1
EndSplineSet
EndChar

StartChar: Oslash
Encoding: 216 216 155
Width: 812
Flags: W
LayerCount: 2
Fore
SplineSet
737 506 m 128,-1,1
 774 434 774 434 774 350 c 0,2,3
 774 253 774 253 725 171.5 c 128,-1,4
 676 90 676 90 591.5 43 c 128,-1,5
 507 -4 507 -4 406 -4 c 0,6,7
 313 -4 313 -4 233 37 c 1,8,-1
 170 -55 l 1,9,-1
 88 -55 l 1,10,-1
 175 73 l 1,11,12
 111 122 111 122 74.5 194.5 c 128,-1,13
 38 267 38 267 38 350 c 0,14,15
 38 448 38 448 87 528.5 c 128,-1,16
 136 609 136 609 220 655.5 c 128,-1,17
 304 702 304 702 406 702 c 0,18,19
 498 702 498 702 578 663 c 1,20,-1
 641 755 l 1,21,-1
 723 755 l 1,22,-1
 636 627 l 1,23,0
 700 578 700 578 737 506 c 128,-1,1
159.5 239.5 m 128,-1,25
 184 188 184 188 228 150 c 1,26,-1
 527 588 l 1,27,28
 471 616 471 616 407 616 c 0,29,30
 333 616 333 616 271 580.5 c 128,-1,31
 209 545 209 545 172 484 c 128,-1,32
 135 423 135 423 135 350 c 0,33,24
 135 291 135 291 159.5 239.5 c 128,-1,25
541.5 119 m 128,-1,35
 603 155 603 155 639.5 216 c 128,-1,36
 676 277 676 277 676 350 c 0,37,38
 676 410 676 410 651.5 462 c 128,-1,39
 627 514 627 514 584 551 c 1,40,-1
 284 112 l 1,41,42
 340 83 340 83 407 83 c 0,43,34
 480 83 480 83 541.5 119 c 128,-1,35
EndSplineSet
EndChar

StartChar: Thorn
Encoding: 222 222 161
Width: 674
Flags: W
LayerCount: 2
Fore
SplineSet
572.5 538.5 m 128,-1,1
 649 479 649 479 649 367 c 0,2,3
 649 251 649 251 572.5 189 c 128,-1,4
 496 127 496 127 352 127 c 2,5,-1
 196 127 l 1,6,-1
 196 0 l 1,7,-1
 100 0 l 1,8,-1
 100 700 l 1,9,-1
 196 700 l 1,10,-1
 196 598 l 1,11,-1
 352 598 l 2,12,0
 496 598 496 598 572.5 538.5 c 128,-1,1
550 364 m 0,14,15
 550 440 550 440 499 479 c 128,-1,16
 448 518 448 518 348 518 c 2,17,-1
 196 518 l 1,18,-1
 196 207 l 1,19,-1
 348 207 l 2,20,13
 550 207 550 207 550 364 c 0,14,15
EndSplineSet
EndChar

StartChar: germandbls
Encoding: 223 223 162
Width: 651
Flags: W
LayerCount: 2
Fore
SplineSet
115 625 m 128,-1,1
 145 683 145 683 201 714.5 c 128,-1,2
 257 746 257 746 333 746 c 0,3,4
 399 746 399 746 450 722.5 c 128,-1,5
 501 699 501 699 529.5 655.5 c 128,-1,6
 558 612 558 612 558 555 c 0,7,8
 558 494 558 494 524.5 446.5 c 128,-1,9
 491 399 491 399 435 380 c 1,10,11
 509 367 509 367 553.5 322.5 c 128,-1,12
 598 278 598 278 598 208 c 0,13,14
 598 147 598 147 566 100 c 128,-1,15
 534 53 534 53 475.5 26.5 c 128,-1,16
 417 0 417 0 340 0 c 2,17,-1
 288 0 l 1,18,-1
 288 73 l 1,19,-1
 347 73 l 2,20,21
 418 73 418 73 462 110 c 128,-1,22
 506 147 506 147 506 205 c 0,23,24
 506 265 506 265 457 299.5 c 128,-1,25
 408 334 408 334 326 334 c 2,26,-1
 314 334 l 1,27,-1
 314 407 l 1,28,29
 384 407 384 407 426 443.5 c 128,-1,30
 468 480 468 480 468 542 c 0,31,32
 468 600 468 600 430.5 635 c 128,-1,33
 393 670 393 670 331 670 c 0,34,35
 261 670 261 670 219.5 622.5 c 128,-1,36
 178 575 178 575 178 495 c 2,37,-1
 178 0 l 1,38,-1
 85 0 l 1,39,-1
 85 489 l 2,40,0
 85 567 85 567 115 625 c 128,-1,1
EndSplineSet
Substitution2: "<3,3> Small Caps in Latin lookup 11 subtable" germandbls.sc
EndChar

StartChar: ae
Encoding: 230 230 169
Width: 978
Flags: W
LayerCount: 2
Fore
SplineSet
535 152 m 128,-1,1
 560 116 560 116 602 94.5 c 128,-1,2
 644 73 644 73 691 73 c 0,3,4
 737 73 737 73 777.5 89.5 c 128,-1,5
 818 106 818 106 849 138 c 1,6,-1
 900 85 l 1,7,8
 860 42 860 42 805 19.5 c 128,-1,9
 750 -3 750 -3 684 -3 c 0,10,11
 606 -3 606 -3 546 32 c 128,-1,12
 486 67 486 67 456 130 c 1,13,14
 424 64 424 64 366.5 30 c 128,-1,15
 309 -4 309 -4 228 -4 c 0,16,17
 146 -4 146 -4 96 39.5 c 128,-1,18
 46 83 46 83 46 154 c 0,19,20
 46 223 46 223 98.5 261.5 c 128,-1,21
 151 300 151 300 246 300 c 2,22,-1
 415 300 l 1,23,-1
 415 338 l 2,24,25
 414 395 414 395 379 425 c 128,-1,26
 344 455 344 455 278 455 c 0,27,28
 194 455 194 455 101 398 c 1,29,-1
 76 465 l 1,30,31
 189 532 189 532 297 532 c 0,32,33
 365 532 365 532 413 508 c 128,-1,34
 461 484 461 484 483 439 c 1,35,36
 516 484 516 484 567.5 508 c 128,-1,37
 619 532 619 532 682 532 c 0,38,39
 761 532 761 532 820.5 496 c 128,-1,40
 880 460 880 460 911.5 395 c 128,-1,41
 943 330 943 330 941 245 c 1,42,-1
 510 245 l 1,43,-1
 510 228 l 2,44,0
 510 188 510 188 535 152 c 128,-1,1
799 416.5 m 128,-1,46
 754 462 754 462 683 462 c 0,47,48
 613 462 613 462 565 416.5 c 128,-1,49
 517 371 517 371 510 297 c 1,50,-1
 847 297 l 1,51,45
 844 371 844 371 799 416.5 c 128,-1,46
167.5 225.5 m 128,-1,53
 134 203 134 203 134 162 c 0,54,55
 134 118 134 118 165.5 90.5 c 128,-1,56
 197 63 197 63 248 63 c 0,57,58
 308 63 308 63 349.5 90 c 128,-1,59
 391 117 391 117 416 172 c 1,60,-1
 415 248 l 1,61,-1
 263 248 l 2,62,52
 201 248 201 248 167.5 225.5 c 128,-1,53
EndSplineSet
Substitution2: "<3,3> Small Caps in Latin lookup 11 subtable" ae.sc
EndChar

StartChar: ccedilla
Encoding: 231 231 170
Width: 562
Flags: W
LayerCount: 2
Fore
SplineSet
439.5 26 m 128,-1,1
 391 2 391 2 330 -2 c 1,2,-1
 313 -52 l 1,3,4
 353 -58 353 -58 373.5 -79.5 c 128,-1,5
 394 -101 394 -101 394 -130 c 0,6,7
 394 -170 394 -170 363 -193.5 c 128,-1,8
 332 -217 332 -217 284 -217 c 0,9,10
 237 -217 237 -217 192 -196 c 1,11,-1
 212 -139 l 1,12,13
 244 -152 244 -152 273 -152 c 0,14,15
 295 -152 295 -152 307.5 -142.5 c 128,-1,16
 320 -133 320 -133 320 -121 c 0,17,18
 320 -108 320 -108 306.5 -99.5 c 128,-1,19
 293 -91 293 -91 269 -91 c 2,20,-1
 237 -91 l 1,21,-1
 265 -1 l 1,22,23
 198 7 198 7 147 42.5 c 128,-1,24
 96 78 96 78 67.5 135.5 c 128,-1,25
 39 193 39 193 39 264 c 0,26,27
 39 342 39 342 72.5 403 c 128,-1,28
 106 464 106 464 166 498 c 128,-1,29
 226 532 226 532 303 532 c 0,30,31
 370 532 370 532 423.5 511.5 c 128,-1,32
 477 491 477 491 513 452 c 1,33,-1
 462 388 l 1,34,35
 399 449 399 449 311 449 c 0,36,37
 259 449 259 449 218.5 426 c 128,-1,38
 178 403 178 403 155 361 c 128,-1,39
 132 319 132 319 132 264 c 256,40,41
 132 209 132 209 154.5 167 c 128,-1,42
 177 125 177 125 216.5 101.5 c 128,-1,43
 256 78 256 78 307 78 c 256,44,45
 358 78 358 78 399 95 c 128,-1,46
 440 112 440 112 467 144 c 1,47,-1
 520 90 l 1,48,0
 488 50 488 50 439.5 26 c 128,-1,1
EndSplineSet
Substitution2: "<3,3> Small Caps in Latin lookup 11 subtable" ccedilla.sc
EndChar

StartChar: eth
Encoding: 240 240 179
Width: 585
Flags: W
LayerCount: 2
Fore
SplineSet
505 441.5 m 128,-1,1
 547 350 547 350 547 256 c 0,2,3
 547 178 547 178 514.5 119 c 128,-1,4
 482 60 482 60 422 28 c 128,-1,5
 362 -4 362 -4 282 -4 c 0,6,7
 210 -4 210 -4 155.5 24 c 128,-1,8
 101 52 101 52 71 103.5 c 128,-1,9
 41 155 41 155 41 224 c 0,10,11
 41 289 41 289 69 338.5 c 128,-1,12
 97 388 97 388 148.5 415 c 128,-1,13
 200 442 200 442 268 442 c 0,14,15
 328 442 328 442 378.5 417.5 c 128,-1,16
 429 393 429 393 453 351 c 1,17,18
 441 409 441 409 405 466.5 c 128,-1,19
 369 524 369 524 314 576 c 1,20,-1
 138 494 l 1,21,-1
 114 546 l 1,22,-1
 266 617 l 1,23,24
 201 668 201 668 130 701 c 1,25,-1
 192 746 l 1,26,27
 270 709 270 709 341 651 c 1,28,-1
 477 714 l 1,29,-1
 501 662 l 1,30,-1
 387 609 l 1,31,0
 463 533 463 533 505 441.5 c 128,-1,1
404.5 118.5 m 128,-1,33
 448 158 448 158 448 224 c 0,34,35
 448 291 448 291 404.5 332 c 128,-1,36
 361 373 361 373 289 373 c 256,37,38
 217 373 217 373 174 334 c 128,-1,39
 131 295 131 295 131 229 c 0,40,41
 131 161 131 161 174 120 c 128,-1,42
 217 79 217 79 288 79 c 0,43,32
 361 79 361 79 404.5 118.5 c 128,-1,33
EndSplineSet
Substitution2: "<3,3> Small Caps in Latin lookup 11 subtable" eth.sc
EndChar

StartChar: divide
Encoding: 247 247 186
Width: 494
Flags: W
LayerCount: 2
Fore
SplineSet
286 545.5 m 128,-1,1
 301 530 301 530 301 506 c 0,2,3
 301 483 301 483 285.5 467 c 128,-1,4
 270 451 270 451 248 451 c 0,5,6
 225 451 225 451 209.5 467 c 128,-1,7
 194 483 194 483 194 506 c 0,8,9
 194 530 194 530 209.5 545.5 c 128,-1,10
 225 561 225 561 248 561 c 256,11,0
 271 561 271 561 286 545.5 c 128,-1,1
36 357 m 1,12,-1
 458 357 l 1,13,-1
 458 290 l 1,14,-1
 36 290 l 1,15,-1
 36 357 l 1,12,-1
286 190.5 m 128,-1,17
 301 175 301 175 301 151 c 0,18,19
 301 128 301 128 285.5 112 c 128,-1,20
 270 96 270 96 248 96 c 0,21,22
 225 96 225 96 209.5 112 c 128,-1,23
 194 128 194 128 194 151 c 0,24,25
 194 175 194 175 209.5 190.5 c 128,-1,26
 225 206 225 206 248 206 c 256,27,16
 271 206 271 206 286 190.5 c 128,-1,17
EndSplineSet
EndChar

StartChar: oslash
Encoding: 248 248 187
Width: 621
Flags: W
LayerCount: 2
Fore
SplineSet
557.5 384 m 128,-1,1
 582 330 582 330 582 265 c 0,2,3
 582 187 582 187 547.5 126 c 128,-1,4
 513 65 513 65 451.5 31 c 128,-1,5
 390 -3 390 -3 311 -3 c 0,6,7
 240 -3 240 -3 181 25 c 1,8,-1
 97 -98 l 1,9,-1
 28 -98 l 1,10,-1
 133 55 l 1,11,12
 88 91 88 91 63.5 145 c 128,-1,13
 39 199 39 199 39 265 c 0,14,15
 39 343 39 343 73.5 403.5 c 128,-1,16
 108 464 108 464 169.5 498 c 128,-1,17
 231 532 231 532 311 532 c 0,18,19
 382 532 382 532 441 504 c 1,20,-1
 525 627 l 1,21,-1
 593 627 l 1,22,-1
 488 474 l 1,23,0
 533 438 533 438 557.5 384 c 128,-1,1
179 122 m 1,25,-1
 396 439 l 1,26,27
 356 458 356 458 311 458 c 0,28,29
 258 458 258 458 216 433.5 c 128,-1,30
 174 409 174 409 151 365 c 128,-1,31
 128 321 128 321 128 264 c 0,32,24
 128 178 128 178 179 122 c 1,25,-1
405.5 93 m 128,-1,34
 447 118 447 118 470.5 162.5 c 128,-1,35
 494 207 494 207 494 264 c 0,36,37
 494 307 494 307 480.5 343 c 128,-1,38
 467 379 467 379 441 405 c 1,39,-1
 224 88 l 1,40,41
 264 68 264 68 311 68 c 0,42,33
 364 68 364 68 405.5 93 c 128,-1,34
EndSplineSet
Substitution2: "<3,3> Small Caps in Latin lookup 11 subtable" oslash.sc
EndChar

StartChar: thorn
Encoding: 254 254 193
Width: 678
Flags: W
LayerCount: 2
Fore
SplineSet
268.5 505 m 128,-1,1
 319 532 319 532 385 532 c 0,2,3
 459 532 459 532 517 498 c 128,-1,4
 575 464 575 464 607 403 c 128,-1,5
 639 342 639 342 639 263 c 0,6,7
 639 185 639 185 607.5 124.5 c 128,-1,8
 576 64 576 64 518.5 30.5 c 128,-1,9
 461 -3 461 -3 387 -3 c 0,10,11
 320 -3 320 -3 269 24 c 128,-1,12
 218 51 218 51 189 102 c 1,13,-1
 189 -194 l 1,14,-1
 96 -194 l 1,15,-1
 96 742 l 1,16,-1
 189 742 l 1,17,-1
 189 427 l 1,18,0
 218 478 218 478 268.5 505 c 128,-1,1
275.5 429 m 128,-1,20
 235 405 235 405 212 362 c 128,-1,21
 189 319 189 319 189 266 c 0,22,23
 189 211 189 211 212 168.5 c 128,-1,24
 235 126 235 126 275.5 102 c 128,-1,25
 316 78 316 78 367 78 c 256,26,27
 418 78 418 78 458.5 102 c 128,-1,28
 499 126 499 126 521.5 169 c 128,-1,29
 544 212 544 212 544 266 c 0,30,31
 544 319 544 319 521 362 c 128,-1,32
 498 405 498 405 458 429 c 128,-1,33
 418 453 418 453 367 453 c 256,34,19
 316 453 316 453 275.5 429 c 128,-1,20
EndSplineSet
Substitution2: "<3,3> Small Caps in Latin lookup 11 subtable" thorn.sc
EndChar

StartChar: Aogonek
Encoding: 260 260 199
Width: 726
Flags: W
LayerCount: 2
Fore
SplineSet
650.5 -62.5 m 128,-1,1
 629 -88 629 -88 629 -112 c 0,2,3
 629 -145 629 -145 660 -145 c 0,4,5
 680 -145 680 -145 699 -135 c 1,6,-1
 722 -197 l 1,7,8
 684 -216 684 -216 641 -216 c 0,9,10
 596 -216 596 -216 569 -193.5 c 128,-1,11
 542 -171 542 -171 542 -129 c 0,12,13
 542 -60 542 -60 619 2 c 1,14,-1
 546 170 l 1,15,-1
 177 170 l 1,16,-1
 104 0 l 1,17,-1
 3 0 l 1,18,-1
 314 700 l 1,19,-1
 414 700 l 1,20,-1
 724 0 l 1,21,-1
 723 0 l 1,22,0
 672 -37 672 -37 650.5 -62.5 c 128,-1,1
215 257 m 1,23,-1
 509 257 l 1,24,-1
 361 597 l 1,25,-1
 215 257 l 1,23,-1
EndSplineSet
EndChar

StartChar: aogonek
Encoding: 261 261 200
Width: 581
Flags: W
LayerCount: 2
Fore
SplineSet
482 -135 m 1,1,-1
 505 -197 l 1,2,3
 467 -216 467 -216 424 -216 c 0,4,5
 379 -216 379 -216 352 -193.5 c 128,-1,6
 325 -171 325 -171 325 -129 c 0,7,8
 325 -54 325 -54 414 11 c 1,9,-1
 414 74 l 1,10,11
 355 -4 355 -4 229 -4 c 0,12,13
 174 -4 174 -4 132.5 17 c 128,-1,14
 91 38 91 38 68.5 75 c 128,-1,15
 46 112 46 112 46 158 c 0,16,17
 46 229 46 229 98.5 270.5 c 128,-1,18
 151 312 151 312 245 313 c 2,19,-1
 413 313 l 1,20,-1
 413 338 l 2,21,22
 413 394 413 394 378.5 424.5 c 128,-1,23
 344 455 344 455 278 455 c 0,24,25
 198 455 198 455 115 398 c 1,26,-1
 76 462 l 1,27,28
 133 499 133 499 181.5 515.5 c 128,-1,29
 230 532 230 532 297 532 c 0,30,31
 396 532 396 532 450 483.5 c 128,-1,32
 504 435 504 435 505 348 c 2,33,-1
 506 0 l 1,34,35
 455 -37 455 -37 433.5 -62.5 c 128,-1,36
 412 -88 412 -88 412 -112 c 0,37,38
 412 -145 412 -145 443 -145 c 0,39,0
 463 -145 463 -145 482 -135 c 1,1,-1
358.5 104.5 m 128,-1,41
 404 136 404 136 413 188 c 1,42,-1
 413 241 l 1,43,-1
 258 241 l 2,44,45
 195 241 195 241 164.5 222 c 128,-1,46
 134 203 134 203 134 162 c 256,47,48
 134 121 134 121 165 97 c 128,-1,49
 196 73 196 73 248 73 c 0,50,40
 313 73 313 73 358.5 104.5 c 128,-1,41
EndSplineSet
Substitution2: "<3,3> Small Caps in Latin lookup 11 subtable" aogonek.sc
EndChar

StartChar: Dcroat
Encoding: 272 272 211
Width: 783
Flags: W
LayerCount: 2
Fore
SplineSet
568.5 654.5 m 128,-1,1
 651 609 651 609 698 529 c 128,-1,2
 745 449 745 449 745 350 c 256,3,4
 745 251 745 251 698 171 c 128,-1,5
 651 91 651 91 568 45.5 c 128,-1,6
 485 0 485 0 382 0 c 2,7,-1
 100 0 l 1,8,-1
 100 321 l 1,9,-1
 28 321 l 1,10,-1
 28 379 l 1,11,-1
 100 379 l 1,12,-1
 100 700 l 1,13,-1
 384 700 l 2,14,0
 486 700 486 700 568.5 654.5 c 128,-1,1
519.5 122 m 128,-1,16
 579 156 579 156 613.5 215.5 c 128,-1,17
 648 275 648 275 648 349 c 0,18,19
 648 424 648 424 613 484 c 128,-1,20
 578 544 578 544 517 578 c 128,-1,21
 456 612 456 612 383 612 c 2,22,-1
 196 612 l 1,23,-1
 196 379 l 1,24,-1
 413 379 l 1,25,-1
 413 321 l 1,26,-1
 196 321 l 1,27,-1
 196 88 l 1,28,-1
 387 88 l 2,29,15
 460 88 460 88 519.5 122 c 128,-1,16
EndSplineSet
EndChar

StartChar: dcroat
Encoding: 273 273 212
Width: 679
Flags: W
LayerCount: 2
Fore
SplineSet
657 595 m 1,0,-1
 584 595 l 1,1,-1
 584 0 l 1,2,-1
 491 0 l 1,3,-1
 491 109 l 1,4,5
 460 55 460 55 408 25 c 128,-1,6
 356 -5 356 -5 291 -5 c 0,7,8
 218 -5 218 -5 160.5 28.5 c 128,-1,9
 103 62 103 62 71 121.5 c 128,-1,10
 39 181 39 181 39 257 c 256,11,12
 39 333 39 333 71 392 c 128,-1,13
 103 451 103 451 159.5 484 c 128,-1,14
 216 517 216 517 289 517 c 0,15,16
 354 517 354 517 407 486.5 c 128,-1,17
 460 456 460 456 491 403 c 1,18,-1
 491 595 l 1,19,-1
 276 595 l 1,20,-1
 276 653 l 1,21,-1
 491 653 l 1,22,-1
 491 742 l 1,23,-1
 584 742 l 1,24,-1
 584 653 l 1,25,-1
 657 653 l 1,26,-1
 657 595 l 1,0,-1
404 98 m 128,-1,28
 445 121 445 121 468 162 c 128,-1,29
 491 203 491 203 491 255 c 256,30,31
 491 307 491 307 468 348 c 128,-1,32
 445 389 445 389 404 412.5 c 128,-1,33
 363 436 363 436 312 436 c 0,34,35
 260 436 260 436 219.5 412.5 c 128,-1,36
 179 389 179 389 156 348 c 128,-1,37
 133 307 133 307 133 255 c 256,38,39
 133 203 133 203 156 162 c 128,-1,40
 179 121 179 121 219.5 98 c 128,-1,41
 260 75 260 75 312 75 c 0,42,27
 363 75 363 75 404 98 c 128,-1,28
EndSplineSet
Substitution2: "<3,3> Small Caps in Latin lookup 11 subtable" dcroat.sc
EndChar

StartChar: Eogonek
Encoding: 280 280 219
Width: 653
Flags: W
LayerCount: 2
Fore
SplineSet
525.5 -62.5 m 128,-1,1
 504 -88 504 -88 504 -112 c 0,2,3
 504 -145 504 -145 535 -145 c 0,4,5
 555 -145 555 -145 574 -135 c 1,6,-1
 597 -197 l 1,7,8
 559 -216 559 -216 516 -216 c 0,9,10
 471 -216 471 -216 444 -193.5 c 128,-1,11
 417 -171 417 -171 417 -129 c 0,12,13
 417 -61 417 -61 492 0 c 1,14,-1
 100 0 l 1,15,-1
 100 700 l 1,16,-1
 586 700 l 1,17,-1
 586 613 l 1,18,-1
 196 613 l 1,19,-1
 196 397 l 1,20,-1
 545 397 l 1,21,-1
 545 310 l 1,22,-1
 196 310 l 1,23,-1
 196 87 l 1,24,-1
 598 87 l 1,25,-1
 598 0 l 1,26,0
 547 -37 547 -37 525.5 -62.5 c 128,-1,1
EndSplineSet
EndChar

StartChar: eogonek
Encoding: 281 281 220
Width: 588
Flags: W
LayerCount: 2
Fore
SplineSet
489 459.5 m 128,-1,1
 552 387 552 387 552 258 c 0,2,3
 552 238 552 238 551 228 c 1,4,-1
 133 228 l 1,5,6
 144 157 144 157 192.5 115 c 128,-1,7
 241 73 241 73 312 73 c 0,8,9
 359 73 359 73 399.5 90 c 128,-1,10
 440 107 440 107 470 138 c 1,11,-1
 521 85 l 1,12,13
 501 62 501 62 473 44 c 1,14,15
 433 9 433 9 407 -33.5 c 128,-1,16
 381 -76 381 -76 381 -108 c 0,17,18
 381 -126 381 -126 389.5 -135.5 c 128,-1,19
 398 -145 398 -145 414 -145 c 0,20,21
 432 -145 432 -145 452 -135 c 1,22,-1
 475 -197 l 1,23,24
 436 -216 436 -216 393 -216 c 0,25,26
 348 -216 348 -216 321.5 -189.5 c 128,-1,27
 295 -163 295 -163 295 -118 c 0,28,29
 295 -60 295 -60 347 -1 c 1,30,31
 319 -3 319 -3 305 -3 c 0,32,33
 227 -3 227 -3 166.5 30.5 c 128,-1,34
 106 64 106 64 72.5 125 c 128,-1,35
 39 186 39 186 39 264 c 256,36,37
 39 342 39 342 72.5 402.5 c 128,-1,38
 106 463 106 463 166 497.5 c 128,-1,39
 226 532 226 532 303 532 c 0,40,0
 426 532 426 532 489 459.5 c 128,-1,1
468 300 m 1,41,42
 464 372 464 372 420 413.5 c 128,-1,43
 376 455 376 455 304 455 c 0,44,45
 234 455 234 455 187.5 413 c 128,-1,46
 141 371 141 371 132 300 c 1,47,-1
 468 300 l 1,41,42
EndSplineSet
Substitution2: "<3,3> Small Caps in Latin lookup 11 subtable" eogonek.sc
EndChar

StartChar: Hbar
Encoding: 294 294 233
Width: 793
Flags: W
LayerCount: 2
Fore
SplineSet
780 583 m 1,0,-1
 780 525 l 1,1,-1
 693 525 l 1,2,-1
 693 0 l 1,3,-1
 597 0 l 1,4,-1
 597 301 l 1,5,-1
 196 301 l 1,6,-1
 196 0 l 1,7,-1
 100 0 l 1,8,-1
 100 525 l 1,9,-1
 15 525 l 1,10,-1
 15 583 l 1,11,-1
 100 583 l 1,12,-1
 100 700 l 1,13,-1
 196 700 l 1,14,-1
 196 583 l 1,15,-1
 597 583 l 1,16,-1
 597 700 l 1,17,-1
 693 700 l 1,18,-1
 693 583 l 1,19,-1
 780 583 l 1,0,-1
597 388 m 1,20,-1
 597 525 l 1,21,-1
 196 525 l 1,22,-1
 196 388 l 1,23,-1
 597 388 l 1,20,-1
EndSplineSet
EndChar

StartChar: hbar
Encoding: 295 295 234
Width: 665
Flags: W
LayerCount: 2
Fore
SplineSet
537.5 461.5 m 128,-1,1
 590 407 590 407 590 311 c 2,2,-1
 590 0 l 1,3,-1
 497 0 l 1,4,-1
 497 286 l 2,5,6
 497 353 497 353 459.5 390.5 c 128,-1,7
 422 428 422 428 356 428 c 0,8,9
 279 428 279 428 234 376.5 c 128,-1,10
 189 325 189 325 189 244 c 2,11,-1
 189 0 l 1,12,-1
 96 0 l 1,13,-1
 96 595 l 1,14,-1
 23 595 l 1,15,-1
 23 653 l 1,16,-1
 96 653 l 1,17,-1
 96 742 l 1,18,-1
 189 742 l 1,19,-1
 189 653 l 1,20,-1
 404 653 l 1,21,-1
 404 595 l 1,22,-1
 189 595 l 1,23,-1
 189 399 l 1,24,25
 242 516 242 516 391 516 c 0,26,0
 485 516 485 516 537.5 461.5 c 128,-1,1
EndSplineSet
Substitution2: "<3,3> Small Caps in Latin lookup 11 subtable" hbar.sc
EndChar

StartChar: Iogonek
Encoding: 302 302 241
Width: 296
Flags: W
LayerCount: 2
Fore
SplineSet
123.5 -62.5 m 128,-1,1
 102 -88 102 -88 102 -112 c 0,2,3
 102 -145 102 -145 133 -145 c 0,4,5
 153 -145 153 -145 172 -135 c 1,6,-1
 195 -197 l 1,7,8
 157 -216 157 -216 114 -216 c 0,9,10
 69 -216 69 -216 42 -193.5 c 128,-1,11
 15 -171 15 -171 15 -129 c 0,12,13
 15 -56 15 -56 100 8 c 1,14,-1
 100 700 l 1,15,-1
 196 700 l 1,16,-1
 196 0 l 1,17,0
 145 -37 145 -37 123.5 -62.5 c 128,-1,1
EndSplineSet
EndChar

StartChar: iogonek
Encoding: 303 303 242
Width: 274
Flags: W
LayerCount: 2
Fore
SplineSet
95.5 637 m 128,-1,1
 79 654 79 654 79 680 c 256,2,3
 79 706 79 706 95.5 723 c 128,-1,4
 112 740 112 740 137 740 c 256,5,6
 162 740 162 740 178.5 723 c 128,-1,7
 195 706 195 706 195 680 c 256,8,9
 195 654 195 654 178.5 637 c 128,-1,10
 162 620 162 620 137 620 c 256,11,0
 112 620 112 620 95.5 637 c 128,-1,1
91 529 m 1,12,-1
 184 529 l 1,13,-1
 184 0 l 1,14,15
 133 -37 133 -37 111.5 -62.5 c 128,-1,16
 90 -88 90 -88 90 -112 c 0,17,18
 90 -145 90 -145 121 -145 c 0,19,20
 141 -145 141 -145 160 -135 c 1,21,-1
 183 -197 l 1,22,23
 145 -216 145 -216 102 -216 c 0,24,25
 57 -216 57 -216 30 -193.5 c 128,-1,26
 3 -171 3 -171 3 -129 c 0,27,28
 3 -55 3 -55 91 10 c 1,29,-1
 91 529 l 1,12,-1
EndSplineSet
Substitution2: "<3,3> Small Caps in Latin lookup 11 subtable" iogonek.sc
EndChar

StartChar: dotlessi
Encoding: 305 305 244
Width: 274
Flags: W
LayerCount: 2
Fore
SplineSet
91 529 m 1,0,-1
 184 529 l 1,1,-1
 184 0 l 1,2,-1
 91 0 l 1,3,-1
 91 529 l 1,0,-1
EndSplineSet
Substitution2: "<3,3> Small Caps in Latin lookup 11 subtable" dotlessi.sc
EndChar

StartChar: kgreenlandic
Encoding: 312 312 251
Width: 578
Flags: W
LayerCount: 2
Fore
SplineSet
457 0 m 1,0,-1
 288 258 l 1,1,-1
 184 150 l 1,2,-1
 184 0 l 1,3,-1
 91 0 l 1,4,-1
 91 529 l 1,5,-1
 184 529 l 1,6,-1
 184 269 l 1,7,-1
 441 529 l 1,8,-1
 550 529 l 1,9,-1
 353 325 l 1,10,-1
 568 0 l 1,11,-1
 457 0 l 1,0,-1
EndSplineSet
Substitution2: "<3,3> Small Caps in Latin lookup 11 subtable" kgreenlandic.sc
EndChar

StartChar: Lslash
Encoding: 321 321 260
Width: 552
Flags: W
LayerCount: 2
Fore
SplineSet
224 87 m 1,0,-1
 529 87 l 1,1,-1
 529 0 l 1,2,-1
 128 0 l 1,3,-1
 128 329 l 1,4,-1
 25 274 l 1,5,-1
 25 334 l 1,6,-1
 128 389 l 1,7,-1
 128 700 l 1,8,-1
 224 700 l 1,9,-1
 224 441 l 1,10,-1
 344 505 l 1,11,-1
 344 445 l 1,12,-1
 224 381 l 1,13,-1
 224 87 l 1,0,-1
EndSplineSet
EndChar

StartChar: lslash
Encoding: 322 322 261
Width: 376
Flags: W
LayerCount: 2
Fore
SplineSet
354 501 m 1,0,-1
 354 434 l 1,1,-1
 242 374 l 1,2,-1
 242 0 l 1,3,-1
 149 0 l 1,4,-1
 149 323 l 1,5,-1
 35 262 l 1,6,-1
 35 330 l 1,7,-1
 149 391 l 1,8,-1
 149 742 l 1,9,-1
 242 742 l 1,10,-1
 242 441 l 1,11,-1
 354 501 l 1,0,-1
EndSplineSet
Substitution2: "<3,3> Small Caps in Latin lookup 11 subtable" lslash.sc
EndChar

StartChar: Eng
Encoding: 330 330 269
Width: 794
Flags: W
LayerCount: 2
Fore
SplineSet
693 700 m 1,0,-1
 693 0 l 2,1,2
 693 -93 693 -93 637 -147.5 c 128,-1,3
 581 -202 581 -202 485 -202 c 0,4,5
 428 -202 428 -202 379 -180.5 c 128,-1,6
 330 -159 330 -159 294 -119 c 1,7,-1
 341 -45 l 1,8,9
 372 -76 372 -76 409.5 -92 c 128,-1,10
 447 -108 447 -108 483 -108 c 0,11,12
 532 -108 532 -108 561.5 -80 c 128,-1,13
 591 -52 591 -52 595 1 c 1,14,-1
 196 540 l 1,15,-1
 196 0 l 1,16,-1
 100 0 l 1,17,-1
 100 700 l 1,18,-1
 197 700 l 1,19,-1
 598 159 l 1,20,-1
 598 700 l 1,21,-1
 693 700 l 1,0,-1
EndSplineSet
EndChar

StartChar: eng
Encoding: 331 331 270
Width: 659
Flags: W
LayerCount: 2
Fore
SplineSet
531 477.5 m 128,-1,1
 584 423 584 423 584 327 c 2,2,-1
 584 -18 l 2,3,4
 584 -106 584 -106 537.5 -152 c 128,-1,5
 491 -198 491 -198 424 -198 c 0,6,7
 364 -198 364 -198 315 -162 c 1,8,-1
 347 -88 l 1,9,10
 364 -101 364 -101 383 -108 c 128,-1,11
 402 -115 402 -115 420 -115 c 0,12,13
 452 -115 452 -115 471.5 -94 c 128,-1,14
 491 -73 491 -73 491 -30 c 2,15,-1
 491 302 l 2,16,17
 491 369 491 369 453.5 406.5 c 128,-1,18
 416 444 416 444 350 444 c 0,19,20
 279 443 279 443 234.5 398.5 c 128,-1,21
 190 354 190 354 184 283 c 1,22,-1
 184 0 l 1,23,-1
 91 0 l 1,24,-1
 91 529 l 1,25,-1
 184 529 l 1,26,-1
 184 417 l 1,27,28
 237 530 237 530 385 532 c 0,29,0
 478 532 478 532 531 477.5 c 128,-1,1
EndSplineSet
Substitution2: "<3,3> Small Caps in Latin lookup 11 subtable" eng.sc
EndChar

StartChar: OE
Encoding: 338 338 277
Width: 1095
Flags: W
LayerCount: 2
Fore
SplineSet
1040 88 m 1,0,-1
 1040 0 l 1,1,-1
 405 0 l 2,2,3
 304 0 304 0 220 46.5 c 128,-1,4
 136 93 136 93 87 173 c 128,-1,5
 38 253 38 253 38 350 c 0,6,7
 38 446 38 446 86.5 526.5 c 128,-1,8
 135 607 135 607 219.5 653.5 c 128,-1,9
 304 700 304 700 405 700 c 2,10,-1
 1028 700 l 1,11,-1
 1028 612 l 1,12,-1
 638 612 l 1,13,-1
 638 397 l 1,14,-1
 987 397 l 1,15,-1
 987 310 l 1,16,-1
 638 310 l 1,17,-1
 638 88 l 1,18,-1
 1040 88 l 1,0,-1
542 86 m 1,19,-1
 542 613 l 1,20,-1
 406 613 l 2,21,22
 332 613 332 613 269.5 578 c 128,-1,23
 207 543 207 543 171 482.5 c 128,-1,24
 135 422 135 422 135 349 c 256,25,26
 135 276 135 276 171 216 c 128,-1,27
 207 156 207 156 269.5 121.5 c 128,-1,28
 332 87 332 87 406 87 c 2,29,-1
 542 86 l 1,19,-1
EndSplineSet
EndChar

StartChar: oe
Encoding: 339 339 278
Width: 1049
Flags: W
LayerCount: 2
Fore
SplineSet
891 496 m 128,-1,1
 951 460 951 460 982 394.5 c 128,-1,2
 1013 329 1013 329 1011 245 c 1,3,-1
 577 245 l 1,4,5
 584 166 584 166 634.5 119.5 c 128,-1,6
 685 73 685 73 761 73 c 0,7,8
 808 73 808 73 848.5 90 c 128,-1,9
 889 107 889 107 919 138 c 1,10,-1
 970 85 l 1,11,12
 931 43 931 43 875.5 20 c 128,-1,13
 820 -3 820 -3 754 -3 c 0,14,15
 678 -3 678 -3 620.5 31 c 128,-1,16
 563 65 563 65 533 126 c 1,17,18
 502 65 502 65 444.5 31 c 128,-1,19
 387 -3 387 -3 311 -3 c 0,20,21
 232 -3 232 -3 170 31 c 128,-1,22
 108 65 108 65 73.5 125.5 c 128,-1,23
 39 186 39 186 39 265 c 0,24,25
 39 343 39 343 73.5 403.5 c 128,-1,26
 108 464 108 464 170 498 c 128,-1,27
 232 532 232 532 311 532 c 0,28,29
 387 532 387 532 445 498 c 128,-1,30
 503 464 503 464 534 402 c 1,31,32
 564 464 564 464 620.5 498 c 128,-1,33
 677 532 677 532 752 532 c 0,34,0
 831 532 831 532 891 496 c 128,-1,1
918 297 m 1,35,36
 914 371 914 371 869 416.5 c 128,-1,37
 824 462 824 462 752 462 c 0,38,39
 681 462 681 462 633.5 416 c 128,-1,40
 586 370 586 370 578 297 c 1,41,-1
 918 297 l 1,35,36
402.5 99.5 m 128,-1,43
 443 123 443 123 465.5 166 c 128,-1,44
 488 209 488 209 488 264 c 0,45,46
 488 318 488 318 465.5 360.5 c 128,-1,47
 443 403 443 403 402.5 427 c 128,-1,48
 362 451 362 451 311 451 c 256,49,50
 260 451 260 451 219.5 427 c 128,-1,51
 179 403 179 403 156 360.5 c 128,-1,52
 133 318 133 318 133 264 c 0,53,54
 133 209 133 209 155.5 166 c 128,-1,55
 178 123 178 123 218.5 99.5 c 128,-1,56
 259 76 259 76 311 76 c 0,57,42
 362 76 362 76 402.5 99.5 c 128,-1,43
EndSplineSet
Substitution2: "<3,3> Small Caps in Latin lookup 11 subtable" oe.sc
EndChar

StartChar: Scedilla
Encoding: 350 350 289
Width: 616
Flags: W
LayerCount: 2
Fore
SplineSet
199 467.5 m 128,-1,1
 221 444 221 444 253 430.5 c 128,-1,2
 285 417 285 417 342 399 c 0,3,4
 413 377 413 377 457 357 c 128,-1,5
 501 337 501 337 532 297.5 c 128,-1,6
 563 258 563 258 563 193 c 0,7,8
 563 113 563 113 506.5 60.5 c 128,-1,9
 450 8 450 8 354 -3 c 1,10,-1
 337 -52 l 1,11,12
 377 -58 377 -58 397.5 -79.5 c 128,-1,13
 418 -101 418 -101 418 -130 c 0,14,15
 418 -170 418 -170 387 -193.5 c 128,-1,16
 356 -217 356 -217 308 -217 c 0,17,18
 262 -217 262 -217 216 -196 c 1,19,-1
 236 -139 l 1,20,21
 268 -152 268 -152 297 -152 c 0,22,23
 319 -152 319 -152 331.5 -142.5 c 128,-1,24
 344 -133 344 -133 344 -121 c 0,25,26
 344 -108 344 -108 330.5 -99.5 c 128,-1,27
 317 -91 317 -91 293 -91 c 2,28,-1
 261 -91 l 1,29,-1
 288 -6 l 1,30,31
 215 -2 215 -2 147 27.5 c 128,-1,32
 79 57 79 57 29 104 c 1,33,-1
 72 187 l 1,34,35
 122 138 122 138 184.5 111.5 c 128,-1,36
 247 85 247 85 306 85 c 0,37,38
 376 85 376 85 416.5 112.5 c 128,-1,39
 457 140 457 140 457 187 c 0,40,41
 457 224 457 224 435 248 c 128,-1,42
 413 272 413 272 379.5 286 c 128,-1,43
 346 300 346 300 289 317 c 0,44,45
 219 338 219 338 175 358 c 128,-1,46
 131 378 131 378 100.5 417 c 128,-1,47
 70 456 70 456 70 520 c 0,48,49
 70 576 70 576 101 619 c 128,-1,50
 132 662 132 662 188 685 c 128,-1,51
 244 708 244 708 318 708 c 0,52,53
 381 708 381 708 441.5 689.5 c 128,-1,54
 502 671 502 671 549 640 c 1,55,-1
 509 554 l 1,56,57
 460 585 460 585 407.5 600.5 c 128,-1,58
 355 616 355 616 311 616 c 0,59,60
 250 616 250 616 213.5 592.5 c 128,-1,61
 177 569 177 569 177 528 c 0,62,0
 177 491 177 491 199 467.5 c 128,-1,1
EndSplineSet
EndChar

StartChar: scedilla
Encoding: 351 351 290
Width: 460
Flags: W
LayerCount: 2
Fore
SplineSet
167.5 344.5 m 128,-1,1
 196 328 196 328 254 311 c 0,2,3
 309 295 309 295 344 279 c 128,-1,4
 379 263 379 263 403.5 232 c 128,-1,5
 428 201 428 201 428 150 c 0,6,7
 428 85 428 85 384 46.5 c 128,-1,8
 340 8 340 8 271 -1 c 1,9,-1
 253 -52 l 1,10,11
 293 -58 293 -58 313.5 -79.5 c 128,-1,12
 334 -101 334 -101 334 -130 c 0,13,14
 334 -170 334 -170 303 -193.5 c 128,-1,15
 272 -217 272 -217 224 -217 c 0,16,17
 178 -217 178 -217 132 -196 c 1,18,-1
 152 -139 l 1,19,20
 184 -152 184 -152 213 -152 c 0,21,22
 235 -152 235 -152 247.5 -142.5 c 128,-1,23
 260 -133 260 -133 260 -121 c 0,24,25
 260 -108 260 -108 246.5 -99.5 c 128,-1,26
 233 -91 233 -91 209 -91 c 2,27,-1
 177 -91 l 1,28,-1
 205 -2 l 1,29,30
 152 2 152 2 104 20.5 c 128,-1,31
 56 39 56 39 23 70 c 1,32,-1
 58 138 l 1,33,34
 91 108 91 108 139.5 90 c 128,-1,35
 188 72 188 72 234 72 c 256,36,37
 280 72 280 72 308 89 c 128,-1,38
 336 106 336 106 336 141 c 0,39,40
 336 177 336 177 306.5 195 c 128,-1,41
 277 213 277 213 217 231 c 0,42,43
 164 246 164 246 130.5 261.5 c 128,-1,44
 97 277 97 277 73.5 307 c 128,-1,45
 50 337 50 337 50 385 c 0,46,47
 50 459 50 459 104 496 c 128,-1,48
 158 533 158 533 239 533 c 0,49,50
 287 533 287 533 333.5 519.5 c 128,-1,51
 380 506 380 506 414 483 c 1,52,-1
 380 412 l 1,53,54
 347 432 347 432 307.5 444 c 128,-1,55
 268 456 268 456 232 456 c 0,56,57
 190 456 190 456 164.5 440.5 c 128,-1,58
 139 425 139 425 139 393 c 256,59,0
 139 361 139 361 167.5 344.5 c 128,-1,1
EndSplineSet
Substitution2: "<3,3> Small Caps in Latin lookup 11 subtable" scedilla.sc
EndChar

StartChar: uni0162
Encoding: 354 354 293
Width: 567
Flags: W
LayerCount: 2
Fore
SplineSet
326 0 m 1,0,-1
 308 -52 l 1,1,2
 348 -58 348 -58 368.5 -79.5 c 128,-1,3
 389 -101 389 -101 389 -130 c 0,4,5
 389 -170 389 -170 358 -193.5 c 128,-1,6
 327 -217 327 -217 279 -217 c 0,7,8
 232 -217 232 -217 187 -196 c 1,9,-1
 207 -139 l 1,10,11
 239 -152 239 -152 268 -152 c 0,12,13
 290 -152 290 -152 302.5 -142.5 c 128,-1,14
 315 -133 315 -133 315 -121 c 0,15,16
 315 -108 315 -108 301.5 -99.5 c 128,-1,17
 288 -91 288 -91 264 -91 c 2,18,-1
 232 -91 l 1,19,-1
 260 0 l 1,20,-1
 235 0 l 1,21,-1
 235 612 l 1,22,-1
 10 612 l 1,23,-1
 10 700 l 1,24,-1
 557 700 l 1,25,-1
 557 612 l 1,26,-1
 331 612 l 1,27,-1
 331 0 l 1,28,-1
 326 0 l 1,0,-1
EndSplineSet
EndChar

StartChar: uni0163
Encoding: 355 355 294
Width: 397
Flags: W
LayerCount: 2
Fore
SplineSet
335.5 -79.5 m 128,-1,1
 356 -101 356 -101 356 -130 c 0,2,3
 356 -170 356 -170 325 -193.5 c 128,-1,4
 294 -217 294 -217 246 -217 c 0,5,6
 200 -217 200 -217 154 -196 c 1,7,-1
 174 -139 l 1,8,9
 206 -152 206 -152 235 -152 c 0,10,11
 257 -152 257 -152 269.5 -142.5 c 128,-1,12
 282 -133 282 -133 282 -121 c 0,13,14
 282 -108 282 -108 268.5 -99.5 c 128,-1,15
 255 -91 255 -91 231 -91 c 2,16,-1
 199 -91 l 1,17,-1
 227 -2 l 1,18,19
 174 4 174 4 142 41.5 c 128,-1,20
 110 79 110 79 110 147 c 2,21,-1
 110 440 l 1,22,-1
 35 440 l 1,23,-1
 35 511 l 1,24,-1
 110 511 l 1,25,-1
 110 653 l 1,26,-1
 204 653 l 1,27,-1
 204 511 l 1,28,-1
 366 511 l 1,29,-1
 366 440 l 1,30,-1
 204 440 l 1,31,-1
 204 164 l 2,32,33
 204 120 204 120 220 101 c 128,-1,34
 236 82 236 82 268 82 c 0,35,36
 306 82 306 82 350 107 c 1,37,-1
 375 35 l 1,38,39
 334 9 334 9 292 0 c 1,40,-1
 293 0 l 1,41,-1
 275 -52 l 1,42,0
 315 -58 315 -58 335.5 -79.5 c 128,-1,1
EndSplineSet
Substitution2: "<3,3> Small Caps in Latin lookup 11 subtable" uni0163.sc
EndChar

StartChar: Tbar
Encoding: 358 358 297
Width: 567
Flags: W
LayerCount: 2
Fore
SplineSet
557 612 m 1,0,-1
 331 612 l 1,1,-1
 331 362 l 1,2,-1
 483 362 l 1,3,-1
 483 304 l 1,4,-1
 331 304 l 1,5,-1
 331 0 l 1,6,-1
 235 0 l 1,7,-1
 235 304 l 1,8,-1
 81 304 l 1,9,-1
 81 362 l 1,10,-1
 235 362 l 1,11,-1
 235 612 l 1,12,-1
 10 612 l 1,13,-1
 10 700 l 1,14,-1
 557 700 l 1,15,-1
 557 612 l 1,0,-1
EndSplineSet
EndChar

StartChar: tbar
Encoding: 359 359 298
Width: 397
Flags: W
LayerCount: 2
Fore
SplineSet
375 35 m 1,0,1
 314 -4 314 -4 251 -4 c 256,2,3
 188 -4 188 -4 149 33.5 c 128,-1,4
 110 71 110 71 110 147 c 2,5,-1
 110 258 l 1,6,-1
 35 258 l 1,7,-1
 35 330 l 1,8,-1
 110 330 l 1,9,-1
 110 440 l 1,10,-1
 35 440 l 1,11,-1
 35 511 l 1,12,-1
 110 511 l 1,13,-1
 110 653 l 1,14,-1
 204 653 l 1,15,-1
 204 511 l 1,16,-1
 366 511 l 1,17,-1
 366 440 l 1,18,-1
 204 440 l 1,19,-1
 204 330 l 1,20,-1
 366 330 l 1,21,-1
 366 258 l 1,22,-1
 204 258 l 1,23,-1
 204 164 l 2,24,25
 204 120 204 120 220 101 c 128,-1,26
 236 82 236 82 268 82 c 0,27,28
 306 82 306 82 350 107 c 1,29,-1
 375 35 l 1,0,1
EndSplineSet
Substitution2: "<3,3> Small Caps in Latin lookup 11 subtable" tbar.sc
EndChar

StartChar: Uogonek
Encoding: 370 370 309
Width: 762
Flags: W
LayerCount: 2
Fore
SplineSet
677 700 m 1,0,-1
 677 286 l 2,1,2
 677 206 677 206 649.5 145.5 c 128,-1,3
 622 85 622 85 571 47 c 0,4,5
 529 12 529 12 502 -32 c 128,-1,6
 475 -76 475 -76 475 -108 c 0,7,8
 475 -126 475 -126 483.5 -135.5 c 128,-1,9
 492 -145 492 -145 508 -145 c 0,10,11
 526 -145 526 -145 546 -135 c 1,12,-1
 569 -197 l 1,13,14
 530 -216 530 -216 487 -216 c 0,15,16
 442 -216 442 -216 415.5 -189.5 c 128,-1,17
 389 -163 389 -163 389 -118 c 0,18,19
 389 -61 389 -61 438 -3 c 1,20,21
 414 -7 414 -7 382 -7 c 0,22,23
 243 -7 243 -7 164 71 c 128,-1,24
 85 149 85 149 85 286 c 2,25,-1
 85 700 l 1,26,-1
 181 700 l 1,27,-1
 181 286 l 2,28,29
 181 189 181 189 234.5 134.5 c 128,-1,30
 288 80 288 80 382 80 c 0,31,32
 475 80 475 80 528 134.5 c 128,-1,33
 581 189 581 189 581 286 c 2,34,-1
 581 700 l 1,35,-1
 677 700 l 1,0,-1
EndSplineSet
EndChar

StartChar: uogonek
Encoding: 371 371 310
Width: 649
Flags: W
LayerCount: 2
Fore
SplineSet
486.5 -62.5 m 128,-1,1
 465 -88 465 -88 465 -112 c 0,2,3
 465 -145 465 -145 496 -145 c 0,4,5
 516 -145 516 -145 535 -135 c 1,6,-1
 558 -197 l 1,7,8
 520 -216 520 -216 477 -216 c 0,9,10
 432 -216 432 -216 405 -193.5 c 128,-1,11
 378 -171 378 -171 378 -129 c 0,12,13
 378 -55 378 -55 465 9 c 1,14,-1
 465 112 l 1,15,16
 413 -1 413 -1 269 -3 c 0,17,18
 177 -3 177 -3 125 51.5 c 128,-1,19
 73 106 73 106 73 202 c 2,20,-1
 73 529 l 1,21,-1
 167 529 l 1,22,-1
 167 227 l 2,23,24
 167 160 167 160 203.5 122.5 c 128,-1,25
 240 85 240 85 304 85 c 0,26,27
 378 86 378 86 421.5 137.5 c 128,-1,28
 465 189 465 189 465 269 c 2,29,-1
 465 529 l 1,30,-1
 559 529 l 1,31,-1
 559 0 l 1,32,0
 508 -37 508 -37 486.5 -62.5 c 128,-1,1
EndSplineSet
Substitution2: "<3,3> Small Caps in Latin lookup 11 subtable" uogonek.sc
EndChar

StartChar: uni018F
Encoding: 399 399 322
Width: 782
Flags: W
LayerCount: 2
Fore
SplineSet
206.5 42.5 m 128,-1,1
 125 92 125 92 79 179 c 128,-1,2
 33 266 33 266 33 375 c 1,3,-1
 649 375 l 1,4,5
 644 444 644 444 608 500 c 128,-1,6
 572 556 572 556 515.5 588 c 128,-1,7
 459 620 459 620 392 620 c 0,8,9
 328 620 328 620 272 592.5 c 128,-1,10
 216 565 216 565 178 516 c 1,11,-1
 109 581 l 1,12,13
 220 706 220 706 391 706 c 0,14,15
 489 706 489 706 570 659 c 128,-1,16
 651 612 651 612 698 530.5 c 128,-1,17
 745 449 745 449 745 351 c 256,18,19
 745 253 745 253 698 170.5 c 128,-1,20
 651 88 651 88 569.5 40.5 c 128,-1,21
 488 -7 488 -7 391 -7 c 0,22,0
 288 -7 288 -7 206.5 42.5 c 128,-1,1
507 106.5 m 128,-1,24
 560 133 560 133 596 180.5 c 128,-1,25
 632 228 632 228 644 288 c 1,26,-1
 137 288 l 1,27,28
 148 227 148 227 184 180 c 128,-1,29
 220 133 220 133 274 106.5 c 128,-1,30
 328 80 328 80 392 80 c 0,31,23
 454 80 454 80 507 106.5 c 128,-1,24
EndSplineSet
EndChar

StartChar: florin
Encoding: 402 402 323
Width: 358
Flags: W
LayerCount: 2
Fore
SplineSet
256 646 m 128,-1,1
 229 619 229 619 223 574 c 2,2,-1
 210 464 l 1,3,-1
 356 464 l 1,4,-1
 348 397 l 1,5,-1
 201 397 l 1,6,-1
 149 -33 l 2,7,8
 139 -110 139 -110 97 -154 c 128,-1,9
 55 -198 55 -198 -15 -198 c 0,10,11
 -42 -198 -42 -198 -71.5 -187.5 c 128,-1,12
 -101 -177 -101 -177 -121 -160 c 1,13,-1
 -93 -91 l 1,14,15
 -80 -104 -80 -104 -60.5 -111.5 c 128,-1,16
 -41 -119 -41 -119 -24 -119 c 0,17,18
 45 -119 45 -119 58 -20 c 2,19,-1
 109 397 l 1,20,-1
 41 397 l 1,21,-1
 48 464 l 1,22,-1
 117 464 l 1,23,-1
 132 587 l 2,24,25
 141 662 141 662 189.5 707 c 128,-1,26
 238 752 238 752 309 752 c 0,27,28
 341 752 341 752 374.5 741.5 c 128,-1,29
 408 731 408 731 432 714 c 1,30,-1
 397 645 l 1,31,32
 381 657 381 657 360 665 c 128,-1,33
 339 673 339 673 321 673 c 0,34,0
 283 673 283 673 256 646 c 128,-1,1
EndSplineSet
EndChar

StartChar: Ohorn
Encoding: 416 416 324
Width: 837
Flags: W
LayerCount: 2
Fore
SplineSet
744 494 m 128,-1,1
 774 427 774 427 774 351 c 0,2,3
 774 253 774 253 725 170.5 c 128,-1,4
 676 88 676 88 591.5 40.5 c 128,-1,5
 507 -7 507 -7 406 -7 c 256,6,7
 305 -7 305 -7 220.5 40.5 c 128,-1,8
 136 88 136 88 87 170.5 c 128,-1,9
 38 253 38 253 38 351 c 256,10,11
 38 449 38 449 87 530.5 c 128,-1,12
 136 612 136 612 220 659 c 128,-1,13
 304 706 304 706 406 706 c 0,14,15
 491 706 491 706 565 672 c 1,16,-1
 565 673 l 1,17,18
 584 665 584 665 607 665 c 0,19,20
 638 665 638 665 655.5 686 c 128,-1,21
 673 707 673 707 673 738 c 0,22,23
 673 773 673 773 651 804 c 1,24,-1
 729 833 l 1,25,26
 754 787 754 787 754 742 c 0,27,28
 754 695 754 695 728.5 659 c 128,-1,29
 703 623 703 623 660 610 c 1,30,0
 714 561 714 561 744 494 c 128,-1,1
541.5 116.5 m 128,-1,32
 603 153 603 153 639.5 215 c 128,-1,33
 676 277 676 277 676 351 c 256,34,35
 676 425 676 425 639.5 486.5 c 128,-1,36
 603 548 603 548 541.5 584 c 128,-1,37
 480 620 480 620 407 620 c 256,38,39
 334 620 334 620 271.5 584 c 128,-1,40
 209 548 209 548 172 486.5 c 128,-1,41
 135 425 135 425 135 351 c 256,42,43
 135 277 135 277 172 215 c 128,-1,44
 209 153 209 153 271.5 116.5 c 128,-1,45
 334 80 334 80 407 80 c 256,46,31
 480 80 480 80 541.5 116.5 c 128,-1,32
EndSplineSet
EndChar

StartChar: ohorn
Encoding: 417 417 325
Width: 651
Flags: W
LayerCount: 2
Fore
SplineSet
636 570 m 0,1,2
 636 519 636 519 606.5 481.5 c 128,-1,3
 577 444 577 444 527 434 c 1,4,5
 582 365 582 365 582 265 c 0,6,7
 582 187 582 187 547.5 126 c 128,-1,8
 513 65 513 65 451.5 31 c 128,-1,9
 390 -3 390 -3 311 -3 c 0,10,11
 231 -3 231 -3 169.5 31 c 128,-1,12
 108 65 108 65 73.5 125.5 c 128,-1,13
 39 186 39 186 39 265 c 0,14,15
 39 343 39 343 73.5 403.5 c 128,-1,16
 108 464 108 464 169.5 498 c 128,-1,17
 231 532 231 532 311 532 c 0,18,19
 387 532 387 532 447 501 c 0,20,21
 466 493 466 493 489 493 c 0,22,23
 520 493 520 493 537.5 514 c 128,-1,24
 555 535 555 535 555 566 c 0,25,26
 555 601 555 601 533 632 c 1,27,-1
 611 661 l 1,28,0
 636 615 636 615 636 570 c 0,1,2
402.5 99.5 m 128,-1,30
 443 123 443 123 465.5 166 c 128,-1,31
 488 209 488 209 488 264 c 0,32,33
 488 318 488 318 465.5 360.5 c 128,-1,34
 443 403 443 403 402.5 427 c 128,-1,35
 362 451 362 451 311 451 c 0,36,37
 259 451 259 451 218.5 427 c 128,-1,38
 178 403 178 403 155.5 360.5 c 128,-1,39
 133 318 133 318 133 264 c 0,40,41
 133 209 133 209 155.5 166 c 128,-1,42
 178 123 178 123 218.5 99.5 c 128,-1,43
 259 76 259 76 311 76 c 0,44,29
 362 76 362 76 402.5 99.5 c 128,-1,30
EndSplineSet
Substitution2: "<3,3> Small Caps in Latin lookup 11 subtable" ohorn.sc
EndChar

StartChar: Uhorn
Encoding: 431 431 326
Width: 787
Flags: W
LayerCount: 2
Fore
SplineSet
783 755 m 0,1,2
 783 710 783 710 755.5 680 c 128,-1,3
 728 650 728 650 677 642 c 1,4,-1
 677 286 l 2,5,6
 677 149 677 149 598.5 71 c 128,-1,7
 520 -7 520 -7 382 -7 c 0,8,9
 243 -7 243 -7 164 71 c 128,-1,10
 85 149 85 149 85 286 c 2,11,-1
 85 700 l 1,12,-1
 181 700 l 1,13,-1
 181 286 l 2,14,15
 181 189 181 189 234.5 134.5 c 128,-1,16
 288 80 288 80 382 80 c 0,17,18
 475 80 475 80 528 134.5 c 128,-1,19
 581 189 581 189 581 286 c 2,20,-1
 581 700 l 1,21,-1
 640 700 l 2,22,23
 674 700 674 700 691 714 c 128,-1,24
 708 728 708 728 708 752 c 0,25,26
 708 775 708 775 693 805 c 1,27,-1
 765 833 l 1,28,0
 783 791 783 791 783 755 c 0,1,2
EndSplineSet
EndChar

StartChar: uhorn
Encoding: 432 432 327
Width: 654
Flags: W
LayerCount: 2
Fore
SplineSet
649 584 m 0,1,2
 649 543 649 543 625.5 514 c 128,-1,3
 602 485 602 485 559 474 c 1,4,-1
 559 0 l 1,5,-1
 465 0 l 1,6,-1
 465 112 l 1,7,8
 413 -1 413 -1 269 -3 c 0,9,10
 177 -3 177 -3 125 51.5 c 128,-1,11
 73 106 73 106 73 202 c 2,12,-1
 73 529 l 1,13,-1
 167 529 l 1,14,-1
 167 227 l 2,15,16
 167 160 167 160 203.5 122.5 c 128,-1,17
 240 85 240 85 304 85 c 0,18,19
 378 86 378 86 421.5 137.5 c 128,-1,20
 465 189 465 189 465 269 c 2,21,-1
 465 529 l 1,22,-1
 506 529 l 2,23,24
 540 529 540 529 557 543 c 128,-1,25
 574 557 574 557 574 581 c 0,26,27
 574 604 574 604 559 634 c 1,28,-1
 631 662 l 1,29,0
 649 620 649 620 649 584 c 0,1,2
EndSplineSet
Substitution2: "<3,3> Small Caps in Latin lookup 11 subtable" uhorn.sc
EndChar

StartChar: uni01EA
Encoding: 490 490 339
Width: 812
Flags: W
LayerCount: 2
Fore
SplineSet
529 -35 m 128,-1,1
 504 -77 504 -77 504 -108 c 0,2,3
 504 -126 504 -126 512.5 -135.5 c 128,-1,4
 521 -145 521 -145 537 -145 c 0,5,6
 555 -145 555 -145 575 -135 c 1,7,-1
 598 -197 l 1,8,9
 559 -216 559 -216 516 -216 c 0,10,11
 471 -216 471 -216 444.5 -189.5 c 128,-1,12
 418 -163 418 -163 418 -118 c 0,13,14
 418 -61 418 -61 468 -2 c 1,15,16
 435 -7 435 -7 406 -7 c 0,17,18
 305 -7 305 -7 220.5 40.5 c 128,-1,19
 136 88 136 88 87 170.5 c 128,-1,20
 38 253 38 253 38 351 c 256,21,22
 38 449 38 449 87 530.5 c 128,-1,23
 136 612 136 612 220 659 c 128,-1,24
 304 706 304 706 406 706 c 0,25,26
 507 706 507 706 591.5 659 c 128,-1,27
 676 612 676 612 725 530.5 c 128,-1,28
 774 449 774 449 774 351 c 256,29,30
 774 253 774 253 725 170.5 c 128,-1,31
 676 88 676 88 593 41 c 1,32,0
 554 7 554 7 529 -35 c 128,-1,1
172 215 m 128,-1,34
 209 153 209 153 271.5 116.5 c 128,-1,35
 334 80 334 80 407 80 c 256,36,37
 480 80 480 80 541.5 116.5 c 128,-1,38
 603 153 603 153 639.5 215 c 128,-1,39
 676 277 676 277 676 351 c 256,40,41
 676 425 676 425 639.5 486.5 c 128,-1,42
 603 548 603 548 541.5 584 c 128,-1,43
 480 620 480 620 407 620 c 256,44,45
 334 620 334 620 271.5 584 c 128,-1,46
 209 548 209 548 172 486.5 c 128,-1,47
 135 425 135 425 135 351 c 256,48,33
 135 277 135 277 172 215 c 128,-1,34
EndSplineSet
EndChar

StartChar: uni01EB
Encoding: 491 491 340
Width: 621
Flags: W
LayerCount: 2
Fore
SplineSet
409.5 -30.5 m 128,-1,1
 382 -75 382 -75 382 -108 c 0,2,3
 382 -126 382 -126 390.5 -135.5 c 128,-1,4
 399 -145 399 -145 415 -145 c 0,5,6
 433 -145 433 -145 453 -135 c 1,7,-1
 476 -197 l 1,8,9
 437 -216 437 -216 394 -216 c 0,10,11
 349 -216 349 -216 322.5 -189.5 c 128,-1,12
 296 -163 296 -163 296 -118 c 0,13,14
 296 -61 296 -61 347 -1 c 1,15,16
 323 -3 323 -3 311 -3 c 0,17,18
 231 -3 231 -3 169.5 31 c 128,-1,19
 108 65 108 65 73.5 125.5 c 128,-1,20
 39 186 39 186 39 265 c 0,21,22
 39 343 39 343 73.5 403.5 c 128,-1,23
 108 464 108 464 169.5 498 c 128,-1,24
 231 532 231 532 311 532 c 0,25,26
 390 532 390 532 451.5 498 c 128,-1,27
 513 464 513 464 547.5 403.5 c 128,-1,28
 582 343 582 343 582 265 c 0,29,30
 582 196 582 196 555 140 c 128,-1,31
 528 84 528 84 479 48 c 0,32,0
 437 14 437 14 409.5 -30.5 c 128,-1,1
155.5 166 m 128,-1,34
 178 123 178 123 218.5 99.5 c 128,-1,35
 259 76 259 76 311 76 c 0,36,37
 362 76 362 76 402.5 99.5 c 128,-1,38
 443 123 443 123 465.5 166 c 128,-1,39
 488 209 488 209 488 264 c 0,40,41
 488 318 488 318 465.5 360.5 c 128,-1,42
 443 403 443 403 402.5 427 c 128,-1,43
 362 451 362 451 311 451 c 0,44,45
 259 451 259 451 218.5 427 c 128,-1,46
 178 403 178 403 155.5 360.5 c 128,-1,47
 133 318 133 318 133 264 c 0,48,33
 133 209 133 209 155.5 166 c 128,-1,34
EndSplineSet
Substitution2: "<3,3> Small Caps in Latin lookup 11 subtable" uni01EB.sc
EndChar

StartChar: uni0237
Encoding: 567 567 383
Width: 263
Flags: W
LayerCount: 2
Fore
SplineSet
11 -118 m 0,1,2
 49 -119 49 -119 69 -92 c 128,-1,3
 89 -65 89 -65 89 -13 c 2,4,-1
 89 529 l 1,5,-1
 183 529 l 1,6,-1
 183 -26 l 2,7,8
 183 -108 183 -108 143.5 -152.5 c 128,-1,9
 104 -197 104 -197 32 -197 c 0,10,11
 -13 -197 -13 -197 -59 -179 c 1,12,-1
 -37 -108 l 1,13,0
 -15 -116 -15 -116 11 -118 c 0,1,2
EndSplineSet
EndChar

StartChar: uni0259
Encoding: 601 601 384
Width: 588
Flags: W
LayerCount: 2
Fore
SplineSet
421.5 498.5 m 128,-1,1
 482 465 482 465 515.5 404 c 128,-1,2
 549 343 549 343 549 265 c 256,3,4
 549 187 549 187 515.5 126.5 c 128,-1,5
 482 66 482 66 422 31.5 c 128,-1,6
 362 -3 362 -3 285 -3 c 0,7,8
 162 -3 162 -3 99 69.5 c 128,-1,9
 36 142 36 142 36 271 c 0,10,11
 36 291 36 291 37 301 c 1,12,-1
 455 301 l 1,13,14
 444 372 444 372 395.5 414 c 128,-1,15
 347 456 347 456 276 456 c 0,16,17
 229 456 229 456 188.5 439 c 128,-1,18
 148 422 148 422 118 391 c 1,19,-1
 67 444 l 1,20,21
 106 486 106 486 161 509 c 128,-1,22
 216 532 216 532 283 532 c 0,23,0
 361 532 361 532 421.5 498.5 c 128,-1,1
400.5 116 m 128,-1,25
 447 158 447 158 456 229 c 1,26,-1
 120 229 l 1,27,28
 124 157 124 157 168 115.5 c 128,-1,29
 212 74 212 74 284 74 c 0,30,24
 354 74 354 74 400.5 116 c 128,-1,25
EndSplineSet
Substitution2: "<3,3> Small Caps in Latin lookup 11 subtable" uni0259.sc
EndChar

StartChar: uni02BB
Encoding: 699 699 385
Width: 189
Flags: W
LayerCount: 2
Fore
SplineSet
139 508 m 1,0,-1
 50 528 l 1,1,-1
 75 700 l 1,2,-1
 139 700 l 1,3,-1
 139 508 l 1,0,-1
EndSplineSet
EndChar

StartChar: uni02BC
Encoding: 700 700 386
Width: 138
Flags: W
LayerCount: 2
Fore
SplineSet
35 700 m 1,0,-1
 108 700 l 1,1,-1
 95 440 l 1,2,-1
 34 440 l 1,3,-1
 35 700 l 1,0,-1
EndSplineSet
EndChar

StartChar: uni02BE
Encoding: 702 702 387
Width: 249
Flags: W
LayerCount: 2
Fore
SplineSet
65 612 m 1,0,1
 95 612 95 612 117 632.5 c 128,-1,2
 139 653 139 653 139 681 c 256,3,4
 139 709 139 709 117 730 c 128,-1,5
 95 751 95 751 65 751 c 1,6,-1
 65 796 l 1,7,8
 113 796 113 796 147.5 762 c 128,-1,9
 182 728 182 728 182 681 c 256,10,11
 182 634 182 634 147.5 600.5 c 128,-1,12
 113 567 113 567 65 567 c 1,13,-1
 65 612 l 1,0,1
EndSplineSet
EndChar

StartChar: uni02BF
Encoding: 703 703 388
Width: 248
Flags: W
LayerCount: 2
Fore
SplineSet
182 612 m 1,0,1
 152 612 152 612 130.5 632.5 c 128,-1,2
 109 653 109 653 109 681 c 0,3,4
 109 710 109 710 130.5 730.5 c 128,-1,5
 152 751 152 751 182 751 c 1,6,-1
 182 796 l 1,7,8
 134 796 134 796 100 762 c 128,-1,9
 66 728 66 728 66 681 c 256,10,11
 66 634 66 634 100 600.5 c 128,-1,12
 134 567 134 567 182 567 c 1,13,-1
 182 612 l 1,0,1
EndSplineSet
EndChar

StartChar: uni02C8
Encoding: 712 712 391
Width: 105
Flags: W
LayerCount: 2
Fore
SplineSet
18 524 m 1,0,-1
 18 700 l 1,1,-1
 87 700 l 1,2,-1
 87 524 l 1,3,-1
 18 524 l 1,0,-1
EndSplineSet
EndChar

StartChar: uni02CC
Encoding: 716 716 395
Width: 104
Flags: W
LayerCount: 2
Fore
SplineSet
18 -207 m 1,0,-1
 18 -31 l 1,1,-1
 86 -31 l 1,2,-1
 86 -207 l 1,3,-1
 18 -207 l 1,0,-1
EndSplineSet
EndChar

StartChar: gravecomb
Encoding: 768 768 402
Width: 0
Flags: W
LayerCount: 2
Fore
SplineSet
-164 752 m 1,0,-1
 -57 622 l 1,1,-1
 -136 612 l 1,2,-1
 -260 710 l 1,3,-1
 -164 752 l 1,0,-1
EndSplineSet
Substitution2: "<3,3> Small Caps in Latin lookup 11 subtable" gravecomb.sc
EndChar

StartChar: acutecomb
Encoding: 769 769 403
Width: 0
Flags: W
LayerCount: 2
Fore
SplineSet
-116 752 m 1,0,-1
 -20 710 l 1,1,-1
 -144 612 l 1,2,-1
 -223 622 l 1,3,-1
 -116 752 l 1,0,-1
EndSplineSet
Substitution2: "<3,3> Small Caps in Latin lookup 11 subtable" acutecomb.sc
EndChar

StartChar: uni0302
Encoding: 770 770 404
Width: 0
Flags: W
LayerCount: 2
Fore
SplineSet
-12 617 m 1,0,-1
 -105 617 l 1,1,-1
 -166 684 l 1,2,-1
 -227 617 l 1,3,-1
 -320 617 l 1,4,-1
 -215 750 l 1,5,-1
 -117 750 l 1,6,-1
 -12 617 l 1,0,-1
EndSplineSet
Substitution2: "<3,3> Small Caps in Latin lookup 11 subtable" uni0302.sc
EndChar

StartChar: tildecomb
Encoding: 771 771 405
Width: 0
Flags: W
LayerCount: 2
Fore
SplineSet
-50.5 642.5 m 128,-1,1
 -70 608 -70 608 -112 608 c 0,2,3
 -133 608 -133 608 -151.5 616 c 128,-1,4
 -170 624 -170 624 -195 640 c 0,5,6
 -213 651 -213 651 -223.5 656 c 128,-1,7
 -234 661 -234 661 -243 661 c 0,8,9
 -275 661 -275 661 -275 612 c 1,10,-1
 -340 612 l 1,11,12
 -340 665 -340 665 -320.5 699.5 c 128,-1,13
 -301 734 -301 734 -259 734 c 0,14,15
 -238 734 -238 734 -220.5 726.5 c 128,-1,16
 -203 719 -203 719 -176 703 c 0,17,18
 -158 692 -158 692 -147.5 687 c 128,-1,19
 -137 682 -137 682 -128 682 c 0,20,21
 -96 682 -96 682 -96 730 c 1,22,-1
 -31 730 l 1,23,0
 -31 677 -31 677 -50.5 642.5 c 128,-1,1
EndSplineSet
Substitution2: "<3,3> Small Caps in Latin lookup 11 subtable" tildecomb.sc
EndChar

StartChar: uni0304
Encoding: 772 772 406
Width: 0
Flags: W
LayerCount: 2
Fore
SplineSet
-287 710 m 1,0,-1
 0 710 l 1,1,-1
 0 648 l 1,2,-1
 -287 648 l 1,3,-1
 -287 710 l 1,0,-1
EndSplineSet
Substitution2: "<3,3> Small Caps in Latin lookup 11 subtable" uni0304.sc
EndChar

StartChar: uni0306
Encoding: 774 774 407
Width: 0
Flags: W
LayerCount: 2
Fore
SplineSet
-211 694 m 128,-1,1
 -192 674 -192 674 -164 674 c 256,2,3
 -136 674 -136 674 -117 694 c 128,-1,4
 -98 714 -98 714 -96 744 c 1,5,-1
 -31 744 l 1,6,7
 -33 684 -33 684 -70.5 647 c 128,-1,8
 -108 610 -108 610 -164 610 c 0,9,10
 -221 610 -221 610 -258 647 c 128,-1,11
 -295 684 -295 684 -297 744 c 1,12,-1
 -232 744 l 1,13,0
 -230 714 -230 714 -211 694 c 128,-1,1
EndSplineSet
Substitution2: "<3,3> Small Caps in Latin lookup 11 subtable" uni0306.sc
EndChar

StartChar: uni0307
Encoding: 775 775 408
Width: 0
Flags: W
LayerCount: 2
Fore
SplineSet
-66.5 723 m 128,-1,1
 -50 706 -50 706 -50 680 c 256,2,3
 -50 654 -50 654 -66.5 637 c 128,-1,4
 -83 620 -83 620 -108 620 c 256,5,6
 -133 620 -133 620 -149.5 637 c 128,-1,7
 -166 654 -166 654 -166 680 c 256,8,9
 -166 706 -166 706 -149.5 723 c 128,-1,10
 -133 740 -133 740 -108 740 c 256,11,0
 -83 740 -83 740 -66.5 723 c 128,-1,1
EndSplineSet
Substitution2: "<3,3> Small Caps in Latin lookup 11 subtable" uni0307.sc
EndChar

StartChar: uni0308
Encoding: 776 776 409
Width: 0
Flags: W
LayerCount: 2
Fore
SplineSet
-236 718.5 m 128,-1,1
 -221 703 -221 703 -221 679 c 0,2,3
 -221 656 -221 656 -236 640.5 c 128,-1,4
 -251 625 -251 625 -274 625 c 256,5,6
 -297 625 -297 625 -312 640.5 c 128,-1,7
 -327 656 -327 656 -327 679 c 0,8,9
 -327 703 -327 703 -312 718.5 c 128,-1,10
 -297 734 -297 734 -274 734 c 256,11,0
 -251 734 -251 734 -236 718.5 c 128,-1,1
-64 718.5 m 128,-1,13
 -49 703 -49 703 -49 679 c 0,14,15
 -49 656 -49 656 -64 640.5 c 128,-1,16
 -79 625 -79 625 -102 625 c 256,17,18
 -125 625 -125 625 -140 640.5 c 128,-1,19
 -155 656 -155 656 -155 679 c 0,20,21
 -155 703 -155 703 -140 718.5 c 128,-1,22
 -125 734 -125 734 -102 734 c 256,23,12
 -79 734 -79 734 -64 718.5 c 128,-1,13
EndSplineSet
Substitution2: "<3,3> Small Caps in Latin lookup 11 subtable" uni0308.sc
EndChar

StartChar: hookabovecomb
Encoding: 777 777 410
Width: 0
Flags: W
LayerCount: 2
Fore
SplineSet
-54 758 m 128,-1,1
 -27 737 -27 737 -27 699 c 0,2,3
 -27 671 -27 671 -47 638 c 128,-1,4
 -67 605 -67 605 -99 578 c 1,5,-1
 -151 602 l 1,6,7
 -131 621 -131 621 -119 643.5 c 128,-1,8
 -107 666 -107 666 -107 683 c 0,9,10
 -107 696 -107 696 -117 705 c 128,-1,11
 -127 714 -127 714 -141 714 c 0,12,13
 -160 714 -160 714 -180 701 c 1,14,-1
 -211 751 l 1,15,16
 -169 779 -169 779 -122 779 c 0,17,0
 -81 779 -81 779 -54 758 c 128,-1,1
EndSplineSet
Substitution2: "<3,3> Small Caps in Latin lookup 11 subtable" hookabovecomb.sc
EndChar

StartChar: uni030A
Encoding: 778 778 411
Width: 0
Flags: W
LayerCount: 2
Fore
SplineSet
-99.5 759.5 m 128,-1,1
 -68 728 -68 728 -68 685 c 256,2,3
 -68 642 -68 642 -99.5 610.5 c 128,-1,4
 -131 579 -131 579 -174 579 c 256,5,6
 -217 579 -217 579 -248.5 610.5 c 128,-1,7
 -280 642 -280 642 -280 685 c 256,8,9
 -280 728 -280 728 -248.5 759.5 c 128,-1,10
 -217 791 -217 791 -174 791 c 256,11,0
 -131 791 -131 791 -99.5 759.5 c 128,-1,1
-213.5 723 m 128,-1,13
 -230 707 -230 707 -230 685 c 256,14,15
 -230 663 -230 663 -213.5 647.5 c 128,-1,16
 -197 632 -197 632 -174 632 c 256,17,18
 -151 632 -151 632 -134 647.5 c 128,-1,19
 -117 663 -117 663 -117 685 c 256,20,21
 -117 707 -117 707 -134 723 c 128,-1,22
 -151 739 -151 739 -174 739 c 256,23,12
 -197 739 -197 739 -213.5 723 c 128,-1,13
EndSplineSet
EndChar

StartChar: uni030B
Encoding: 779 779 412
Width: 0
Flags: W
LayerCount: 2
Fore
SplineSet
-283 758 m 1,0,-1
 -203 720 l 1,1,-1
 -295 612 l 1,2,-1
 -365 621 l 1,3,-1
 -283 758 l 1,0,-1
-128 758 m 1,4,-1
 -48 720 l 1,5,-1
 -140 612 l 1,6,-1
 -210 621 l 1,7,-1
 -128 758 l 1,4,-1
EndSplineSet
Substitution2: "<3,3> Small Caps in Latin lookup 11 subtable" uni030B.sc
EndChar

StartChar: uni030C
Encoding: 780 780 413
Width: 0
Flags: W
LayerCount: 2
Fore
SplineSet
-112 749 m 1,0,-1
 -19 749 l 1,1,-1
 -124 616 l 1,2,-1
 -222 616 l 1,3,-1
 -327 749 l 1,4,-1
 -234 749 l 1,5,-1
 -173 682 l 1,6,-1
 -112 749 l 1,0,-1
EndSplineSet
Substitution2: "<3,3> Small Caps in Latin lookup 11 subtable" uni030C.sc
EndChar

StartChar: uni030F
Encoding: 783 783 414
Width: 0
Flags: W
LayerCount: 2
Fore
SplineSet
-292 758 m 1,0,-1
 -209 621 l 1,1,-1
 -280 612 l 1,2,-1
 -372 720 l 1,3,-1
 -292 758 l 1,0,-1
-137 758 m 1,4,-1
 -54 621 l 1,5,-1
 -125 612 l 1,6,-1
 -217 720 l 1,7,-1
 -137 758 l 1,4,-1
EndSplineSet
Substitution2: "<3,3> Small Caps in Latin lookup 11 subtable" uni030F.sc
EndChar

StartChar: uni0311
Encoding: 785 785 415
Width: 0
Flags: W
LayerCount: 2
Fore
SplineSet
-297 610 m 1,0,1
 -295 670 -295 670 -258 707 c 128,-1,2
 -221 744 -221 744 -164 744 c 0,3,4
 -108 744 -108 744 -70.5 707 c 128,-1,5
 -33 670 -33 670 -31 610 c 1,6,-1
 -96 610 l 1,7,8
 -98 641 -98 641 -117 660.5 c 128,-1,9
 -136 680 -136 680 -164 680 c 256,10,11
 -192 680 -192 680 -211 660.5 c 128,-1,12
 -230 641 -230 641 -232 610 c 1,13,-1
 -297 610 l 1,0,1
EndSplineSet
Substitution2: "<3,3> Small Caps in Latin lookup 11 subtable" uni0311.sc
EndChar

StartChar: uni0312
Encoding: 786 786 416
Width: 0
Flags: W
LayerCount: 2
Fore
SplineSet
-75 613 m 1,0,-1
 -163 613 l 1,1,-1
 -108 772 l 1,2,-1
 -40 772 l 1,3,-1
 -75 613 l 1,0,-1
EndSplineSet
EndChar

StartChar: uni031B
Encoding: 795 795 417
Width: 0
Flags: W
LayerCount: 2
Fore
SplineSet
-34 584 m 0,1,2
 -34 531 -34 531 -71.5 499.5 c 128,-1,3
 -109 468 -109 468 -177 468 c 1,4,-1
 -177 529 l 1,5,6
 -143 529 -143 529 -126 543 c 128,-1,7
 -109 557 -109 557 -109 581 c 0,8,9
 -109 604 -109 604 -124 634 c 1,10,-1
 -52 662 l 1,11,0
 -34 620 -34 620 -34 584 c 0,1,2
EndSplineSet
EndChar

StartChar: dotbelowcomb
Encoding: 803 803 418
Width: 0
Flags: W
LayerCount: 2
Fore
SplineSet
-66.5 -91 m 128,-1,1
 -50 -108 -50 -108 -50 -134 c 256,2,3
 -50 -160 -50 -160 -66.5 -177 c 128,-1,4
 -83 -194 -83 -194 -108 -194 c 256,5,6
 -133 -194 -133 -194 -149.5 -177 c 128,-1,7
 -166 -160 -166 -160 -166 -134 c 256,8,9
 -166 -108 -166 -108 -149.5 -91 c 128,-1,10
 -133 -74 -133 -74 -108 -74 c 256,11,0
 -83 -74 -83 -74 -66.5 -91 c 128,-1,1
EndSplineSet
Substitution2: "<3,3> Small Caps in Latin lookup 11 subtable" dotbelowcomb.sc
EndChar

StartChar: uni0324
Encoding: 804 804 419
Width: 0
Flags: W
LayerCount: 2
Fore
SplineSet
-223 -86.5 m 128,-1,1
 -208 -102 -208 -102 -208 -126 c 0,2,3
 -208 -149 -208 -149 -223 -164.5 c 128,-1,4
 -238 -180 -238 -180 -261 -180 c 256,5,6
 -284 -180 -284 -180 -299 -164.5 c 128,-1,7
 -314 -149 -314 -149 -314 -126 c 0,8,9
 -314 -102 -314 -102 -299 -86.5 c 128,-1,10
 -284 -71 -284 -71 -261 -71 c 256,11,0
 -238 -71 -238 -71 -223 -86.5 c 128,-1,1
-51 -86.5 m 128,-1,13
 -36 -102 -36 -102 -36 -126 c 0,14,15
 -36 -149 -36 -149 -51 -164.5 c 128,-1,16
 -66 -180 -66 -180 -89 -180 c 256,17,18
 -112 -180 -112 -180 -127 -164.5 c 128,-1,19
 -142 -149 -142 -149 -142 -126 c 0,20,21
 -142 -102 -142 -102 -127 -86.5 c 128,-1,22
 -112 -71 -112 -71 -89 -71 c 256,23,12
 -66 -71 -66 -71 -51 -86.5 c 128,-1,13
EndSplineSet
Substitution2: "<3,3> Small Caps in Latin lookup 11 subtable" uni0324.sc
EndChar

StartChar: uni0326
Encoding: 806 806 420
Width: 0
Flags: W
LayerCount: 2
Fore
SplineSet
-133 -59 m 1,0,-1
 -45 -59 l 1,1,-1
 -100 -218 l 1,2,-1
 -168 -218 l 1,3,-1
 -133 -59 l 1,0,-1
EndSplineSet
EndChar

StartChar: uni0327
Encoding: 807 807 421
Width: 0
Flags: W
LayerCount: 2
Fore
SplineSet
-101 0 m 1,0,-1
 -119 -52 l 1,1,2
 -79 -58 -79 -58 -58.5 -79.5 c 128,-1,3
 -38 -101 -38 -101 -38 -130 c 0,4,5
 -38 -170 -38 -170 -69 -193.5 c 128,-1,6
 -100 -217 -100 -217 -148 -217 c 0,7,8
 -195 -217 -195 -217 -240 -196 c 1,9,-1
 -220 -139 l 1,10,11
 -188 -152 -188 -152 -159 -152 c 0,12,13
 -137 -152 -137 -152 -124.5 -142.5 c 128,-1,14
 -112 -133 -112 -133 -112 -121 c 0,15,16
 -112 -108 -112 -108 -125.5 -99.5 c 128,-1,17
 -139 -91 -139 -91 -163 -91 c 2,18,-1
 -195 -91 l 1,19,-1
 -164 8 l 1,20,-1
 -101 0 l 1,0,-1
EndSplineSet
Substitution2: "<3,3> Small Caps in Latin lookup 11 subtable" uni0327.sc
EndChar

StartChar: uni0328
Encoding: 808 808 422
Width: 0
Flags: W
LayerCount: 2
Fore
SplineSet
-32 0 m 1,0,1
 -83 -37 -83 -37 -104.5 -62.5 c 128,-1,2
 -126 -88 -126 -88 -126 -112 c 0,3,4
 -126 -145 -126 -145 -95 -145 c 0,5,6
 -75 -145 -75 -145 -56 -135 c 1,7,-1
 -33 -197 l 1,8,9
 -71 -216 -71 -216 -114 -216 c 0,10,11
 -159 -216 -159 -216 -186 -193.5 c 128,-1,12
 -213 -171 -213 -171 -213 -129 c 0,13,14
 -213 -41 -213 -41 -90 33 c 1,15,-1
 -32 0 l 1,0,1
EndSplineSet
EndChar

StartChar: uni032E
Encoding: 814 814 423
Width: 0
Flags: W
LayerCount: 2
Fore
SplineSet
-211 -100 m 128,-1,1
 -192 -120 -192 -120 -164 -120 c 256,2,3
 -136 -120 -136 -120 -117 -100 c 128,-1,4
 -98 -80 -98 -80 -96 -50 c 1,5,-1
 -31 -50 l 1,6,7
 -33 -110 -33 -110 -70.5 -147 c 128,-1,8
 -108 -184 -108 -184 -164 -184 c 0,9,10
 -221 -184 -221 -184 -258 -147 c 128,-1,11
 -295 -110 -295 -110 -297 -50 c 1,12,-1
 -232 -50 l 1,13,0
 -230 -80 -230 -80 -211 -100 c 128,-1,1
EndSplineSet
EndChar

StartChar: uni0331
Encoding: 817 817 424
Width: 0
Flags: W
LayerCount: 2
Fore
SplineSet
-317 -82 m 1,0,-1
 -30 -82 l 1,1,-1
 -30 -144 l 1,2,-1
 -317 -144 l 1,3,-1
 -317 -82 l 1,0,-1
EndSplineSet
EndChar

StartChar: uni0335
Encoding: 821 821 425
Width: 0
Flags: W
LayerCount: 2
Fore
SplineSet
-338 470 m 1,0,-1
 -7 470 l 1,1,-1
 -7 412 l 1,2,-1
 -338 412 l 1,3,-1
 -338 470 l 1,0,-1
EndSplineSet
EndChar

StartChar: uni0336
Encoding: 822 822 426
Width: 0
Flags: W
LayerCount: 2
Fore
SplineSet
-503 470 m 1,0,-1
 -101 470 l 1,1,-1
 -101 412 l 1,2,-1
 -503 412 l 1,3,-1
 -503 470 l 1,0,-1
EndSplineSet
EndChar

StartChar: uni0337
Encoding: 823 823 427
Width: 0
Flags: W
LayerCount: 2
Fore
SplineSet
-30 558 m 1,0,-1
 -187 89 l 1,1,-1
 -268 89 l 1,2,-1
 -111 558 l 1,3,-1
 -30 558 l 1,0,-1
EndSplineSet
EndChar

StartChar: uni0338
Encoding: 824 824 428
Width: 0
Flags: W
LayerCount: 2
Fore
SplineSet
-298 0 m 1,0,-1
 -49 742 l 1,1,-1
 32 742 l 1,2,-1
 -217 0 l 1,3,-1
 -298 0 l 1,0,-1
EndSplineSet
EndChar

StartChar: uni0394
Encoding: 916 916 429
Width: 726
Flags: W
LayerCount: 2
Fore
SplineSet
414 700 m 1,0,-1
 724 0 l 1,1,-1
 3 0 l 1,2,-1
 314 700 l 1,3,-1
 414 700 l 1,0,-1
137 76 m 1,4,-1
 587 76 l 1,5,-1
 361 597 l 1,6,-1
 137 76 l 1,4,-1
EndSplineSet
EndChar

StartChar: uni03A9
Encoding: 937 937 430
Width: 892
Flags: W
LayerCount: 2
Fore
SplineSet
677 204 m 128,-1,1
 720 277 720 277 720 355 c 0,2,3
 720 426 720 426 686.5 486.5 c 128,-1,4
 653 547 653 547 590.5 583 c 128,-1,5
 528 619 528 619 446 619 c 256,6,7
 364 619 364 619 302 583 c 128,-1,8
 240 547 240 547 206.5 486.5 c 128,-1,9
 173 426 173 426 173 356 c 0,10,11
 173 277 173 277 215.5 204 c 128,-1,12
 258 131 258 131 337 87 c 1,13,-1
 337 0 l 1,14,-1
 10 0 l 1,15,-1
 10 82 l 1,16,-1
 232 82 l 1,17,18
 168 129 168 129 127.5 208.5 c 128,-1,19
 87 288 87 288 87 368 c 0,20,21
 87 463 87 463 133.5 540 c 128,-1,22
 180 617 180 617 262 660.5 c 128,-1,23
 344 704 344 704 446 704 c 256,24,25
 548 704 548 704 630 660.5 c 128,-1,26
 712 617 712 617 759 540 c 128,-1,27
 806 463 806 463 806 368 c 0,28,29
 806 289 806 289 765 209 c 128,-1,30
 724 129 724 129 660 82 c 1,31,-1
 882 82 l 1,32,-1
 882 0 l 1,33,-1
 556 0 l 1,34,-1
 556 87 l 1,35,0
 634 131 634 131 677 204 c 128,-1,1
EndSplineSet
EndChar

StartChar: uni03BC
Encoding: 956 956 431
Width: 672
Flags: W
LayerCount: 2
Fore
SplineSet
581 529 m 1,0,-1
 581 0 l 1,1,-1
 487 0 l 1,2,-1
 487 112 l 1,3,4
 435 -1 435 -1 291 -3 c 0,5,6
 233 -3 233 -3 190 20 c 1,7,-1
 190 -194 l 1,8,-1
 96 -194 l 1,9,-1
 96 177 l 2,10,11
 95 185 95 185 95 202 c 2,12,-1
 95 529 l 1,13,-1
 190 529 l 1,14,-1
 190 206 l 1,15,16
 196 149 196 149 232 117 c 128,-1,17
 268 85 268 85 326 85 c 0,18,19
 400 86 400 86 443.5 137.5 c 128,-1,20
 487 189 487 189 487 269 c 2,21,-1
 487 529 l 1,22,-1
 581 529 l 1,0,-1
EndSplineSet
EndChar

StartChar: pi
Encoding: 960 960 432
Width: 723
Flags: W
LayerCount: 2
Fore
SplineSet
714 456 m 1,0,-1
 559 456 l 1,1,-1
 559 0 l 1,2,-1
 480 0 l 1,3,-1
 480 456 l 1,4,-1
 312 456 l 1,5,-1
 260 0 l 1,6,-1
 181 0 l 1,7,-1
 232 456 l 1,8,-1
 174 456 l 2,9,10
 128 456 128 456 97.5 430 c 128,-1,11
 67 404 67 404 67 365 c 256,12,13
 67 326 67 326 95 283 c 1,14,-1
 29 257 l 1,15,16
 12 283 12 283 2 316.5 c 128,-1,17
 -8 350 -8 350 -8 380 c 0,18,19
 -8 421 -8 421 14.5 455.5 c 128,-1,20
 37 490 37 490 76 509.5 c 128,-1,21
 115 529 115 529 163 529 c 2,22,-1
 714 529 l 1,23,-1
 714 456 l 1,0,-1
EndSplineSet
EndChar

StartChar: uni1E08
Encoding: 7688 7688 433
Width: 699
Flags: W
LayerCount: 2
Fore
SplineSet
524 860 m 1,0,-1
 400 762 l 1,1,-1
 321 772 l 1,2,-1
 428 902 l 1,3,-1
 524 860 l 1,0,-1
471.5 -79.5 m 128,-1,5
 492 -101 492 -101 492 -130 c 0,6,7
 492 -170 492 -170 461 -193.5 c 128,-1,8
 430 -217 430 -217 382 -217 c 0,9,10
 335 -217 335 -217 290 -196 c 1,11,-1
 310 -139 l 1,12,13
 342 -152 342 -152 371 -152 c 0,14,15
 393 -152 393 -152 405.5 -142.5 c 128,-1,16
 418 -133 418 -133 418 -121 c 0,17,18
 418 -108 418 -108 404.5 -99.5 c 128,-1,19
 391 -91 391 -91 367 -91 c 2,20,-1
 335 -91 l 1,21,-1
 362 -5 l 1,22,23
 271 4 271 4 197 53 c 128,-1,24
 123 102 123 102 80.5 180.5 c 128,-1,25
 38 259 38 259 38 351 c 0,26,27
 38 449 38 449 86.5 530.5 c 128,-1,28
 135 612 135 612 219 659 c 128,-1,29
 303 706 303 706 404 706 c 0,30,31
 477 706 477 706 545.5 678.5 c 128,-1,32
 614 651 614 651 664 601 c 1,33,-1
 607 532 l 1,34,35
 567 574 567 574 514 597.5 c 128,-1,36
 461 621 461 621 405 621 c 0,37,38
 331 621 331 621 269 585 c 128,-1,39
 207 549 207 549 171 487.5 c 128,-1,40
 135 426 135 426 135 352 c 0,41,42
 135 279 135 279 171 217 c 128,-1,43
 207 155 207 155 269 119 c 128,-1,44
 331 83 331 83 405 83 c 0,45,46
 460 83 460 83 513 105.5 c 128,-1,47
 566 128 566 128 607 167 c 1,48,-1
 665 104 l 1,49,50
 616 57 616 57 554.5 28 c 128,-1,51
 493 -1 493 -1 427 -6 c 1,52,-1
 411 -52 l 1,53,4
 451 -58 451 -58 471.5 -79.5 c 128,-1,5
EndSplineSet
EndChar

StartChar: uni1E09
Encoding: 7689 7689 434
Width: 562
Flags: W
LayerCount: 2
Fore
SplineSet
431 719 m 1,0,-1
 307 621 l 1,1,-1
 228 631 l 1,2,-1
 335 761 l 1,3,-1
 431 719 l 1,0,-1
439.5 26 m 128,-1,5
 391 2 391 2 330 -2 c 1,6,-1
 313 -52 l 1,7,8
 353 -58 353 -58 373.5 -79.5 c 128,-1,9
 394 -101 394 -101 394 -130 c 0,10,11
 394 -170 394 -170 363 -193.5 c 128,-1,12
 332 -217 332 -217 284 -217 c 0,13,14
 237 -217 237 -217 192 -196 c 1,15,-1
 212 -139 l 1,16,17
 244 -152 244 -152 273 -152 c 0,18,19
 295 -152 295 -152 307.5 -142.5 c 128,-1,20
 320 -133 320 -133 320 -121 c 0,21,22
 320 -108 320 -108 306.5 -99.5 c 128,-1,23
 293 -91 293 -91 269 -91 c 2,24,-1
 237 -91 l 1,25,-1
 265 -1 l 1,26,27
 198 7 198 7 147 42.5 c 128,-1,28
 96 78 96 78 67.5 135.5 c 128,-1,29
 39 193 39 193 39 264 c 0,30,31
 39 342 39 342 72.5 403 c 128,-1,32
 106 464 106 464 166 498 c 128,-1,33
 226 532 226 532 303 532 c 0,34,35
 370 532 370 532 423.5 511.5 c 128,-1,36
 477 491 477 491 513 452 c 1,37,-1
 462 388 l 1,38,39
 399 449 399 449 311 449 c 0,40,41
 259 449 259 449 218.5 426 c 128,-1,42
 178 403 178 403 155 361 c 128,-1,43
 132 319 132 319 132 264 c 256,44,45
 132 209 132 209 154.5 167 c 128,-1,46
 177 125 177 125 216.5 101.5 c 128,-1,47
 256 78 256 78 307 78 c 256,48,49
 358 78 358 78 399 95 c 128,-1,50
 440 112 440 112 467 144 c 1,51,-1
 520 90 l 1,52,4
 488 50 488 50 439.5 26 c 128,-1,5
EndSplineSet
Substitution2: "<3,3> Small Caps in Latin lookup 11 subtable" uni1E09.sc
EndChar

StartChar: uni1E1C
Encoding: 7708 7708 443
Width: 653
Flags: W
LayerCount: 2
Fore
SplineSet
242.5 799 m 128,-1,1
 205 836 205 836 203 896 c 1,2,-1
 268 896 l 1,3,4
 270 866 270 866 289 846 c 128,-1,5
 308 826 308 826 336 826 c 256,6,7
 364 826 364 826 383 846 c 128,-1,8
 402 866 402 866 404 896 c 1,9,-1
 469 896 l 1,10,11
 467 836 467 836 430 799 c 128,-1,12
 393 762 393 762 336 762 c 0,13,0
 280 762 280 762 242.5 799 c 128,-1,1
392 0 m 1,14,-1
 374 -52 l 1,15,16
 414 -58 414 -58 434.5 -79.5 c 128,-1,17
 455 -101 455 -101 455 -130 c 0,18,19
 455 -170 455 -170 424 -193.5 c 128,-1,20
 393 -217 393 -217 345 -217 c 0,21,22
 299 -217 299 -217 253 -196 c 1,23,-1
 273 -139 l 1,24,25
 305 -152 305 -152 334 -152 c 0,26,27
 356 -152 356 -152 368.5 -142.5 c 128,-1,28
 381 -133 381 -133 381 -121 c 0,29,30
 381 -108 381 -108 367.5 -99.5 c 128,-1,31
 354 -91 354 -91 330 -91 c 2,32,-1
 298 -91 l 1,33,-1
 326 0 l 1,34,-1
 100 0 l 1,35,-1
 100 700 l 1,36,-1
 586 700 l 1,37,-1
 586 613 l 1,38,-1
 196 613 l 1,39,-1
 196 397 l 1,40,-1
 545 397 l 1,41,-1
 545 310 l 1,42,-1
 196 310 l 1,43,-1
 196 87 l 1,44,-1
 598 87 l 1,45,-1
 598 0 l 1,46,-1
 392 0 l 1,14,-1
EndSplineSet
EndChar

StartChar: uni1E1D
Encoding: 7709 7709 444
Width: 588
Flags: W
LayerCount: 2
Fore
SplineSet
196.5 656 m 128,-1,1
 159 693 159 693 157 753 c 1,2,-1
 222 753 l 1,3,4
 224 723 224 723 243 703 c 128,-1,5
 262 683 262 683 290 683 c 256,6,7
 318 683 318 683 337 703 c 128,-1,8
 356 723 356 723 358 753 c 1,9,-1
 423 753 l 1,10,11
 421 693 421 693 384 656 c 128,-1,12
 347 619 347 619 290 619 c 0,13,0
 234 619 234 619 196.5 656 c 128,-1,1
489 459.5 m 128,-1,15
 552 387 552 387 552 258 c 0,16,17
 552 238 552 238 551 228 c 1,18,-1
 133 228 l 1,19,20
 144 157 144 157 192.5 115 c 128,-1,21
 241 73 241 73 312 73 c 0,22,23
 359 73 359 73 399.5 90 c 128,-1,24
 440 107 440 107 470 138 c 1,25,-1
 521 85 l 1,26,27
 488 49 488 49 442 26.5 c 128,-1,28
 396 4 396 4 341 -1 c 1,29,-1
 323 -52 l 1,30,31
 363 -58 363 -58 383.5 -79.5 c 128,-1,32
 404 -101 404 -101 404 -130 c 0,33,34
 404 -170 404 -170 373 -193.5 c 128,-1,35
 342 -217 342 -217 294 -217 c 0,36,37
 248 -217 248 -217 202 -196 c 1,38,-1
 222 -139 l 1,39,40
 254 -152 254 -152 283 -152 c 0,41,42
 305 -152 305 -152 317.5 -142.5 c 128,-1,43
 330 -133 330 -133 330 -121 c 0,44,45
 330 -108 330 -108 316.5 -99.5 c 128,-1,46
 303 -91 303 -91 279 -91 c 2,47,-1
 247 -91 l 1,48,-1
 275 -2 l 1,49,50
 205 4 205 4 151.5 39.5 c 128,-1,51
 98 75 98 75 68.5 133 c 128,-1,52
 39 191 39 191 39 264 c 0,53,54
 39 342 39 342 72.5 402.5 c 128,-1,55
 106 463 106 463 166 497.5 c 128,-1,56
 226 532 226 532 303 532 c 0,57,14
 426 532 426 532 489 459.5 c 128,-1,15
468 300 m 1,58,59
 464 372 464 372 420 413.5 c 128,-1,60
 376 455 376 455 304 455 c 0,61,62
 234 455 234 455 187.5 413 c 128,-1,63
 141 371 141 371 132 300 c 1,64,-1
 468 300 l 1,58,59
EndSplineSet
Substitution2: "<3,3> Small Caps in Latin lookup 11 subtable" uni1E1D.sc
EndChar

StartChar: uni1E9E
Encoding: 7838 7838 506
Width: 676
Flags: W
LayerCount: 2
Fore
SplineSet
594 333.5 m 128,-1,1
 639 282 639 282 639 204 c 0,2,3
 639 110 639 110 574.5 55 c 128,-1,4
 510 0 510 0 398 0 c 2,5,-1
 316 0 l 1,6,-1
 316 87 l 1,7,-1
 398 87 l 2,8,9
 464 87 464 87 502.5 118 c 128,-1,10
 541 149 541 149 541 203 c 0,11,12
 541 258 541 258 503 288.5 c 128,-1,13
 465 319 465 319 396 319 c 2,14,-1
 360 319 l 1,15,-1
 360 406 l 1,16,-1
 510 581 l 1,17,18
 450 617 450 617 369 617 c 0,19,20
 281 617 281 617 231 568 c 128,-1,21
 181 519 181 519 181 432 c 2,22,-1
 181 0 l 1,23,-1
 84 0 l 1,24,-1
 84 432 l 2,25,26
 84 560 84 560 159 632 c 128,-1,27
 234 704 234 704 366 704 c 256,28,29
 498 704 498 704 592 629 c 1,30,-1
 592 547 l 1,31,-1
 466 400 l 1,32,0
 549 385 549 385 594 333.5 c 128,-1,1
EndSplineSet
EndChar

StartChar: figuredash
Encoding: 8210 8210 603
Width: 617
Flags: W
LayerCount: 2
Fore
SplineSet
0 336 m 1,0,-1
 617 336 l 1,1,-1
 617 270 l 1,2,-1
 0 270 l 1,3,-1
 0 336 l 1,0,-1
EndSplineSet
EndChar

StartChar: endash
Encoding: 8211 8211 604
Width: 404
Flags: W
LayerCount: 2
Fore
SplineSet
0 336 m 1,0,-1
 404 336 l 1,1,-1
 404 270 l 1,2,-1
 0 270 l 1,3,-1
 0 336 l 1,0,-1
EndSplineSet
EndChar

StartChar: emdash
Encoding: 8212 8212 605
Width: 706
Flags: W
LayerCount: 2
Fore
SplineSet
0 336 m 1,0,-1
 706 336 l 1,1,-1
 706 270 l 1,2,-1
 0 270 l 1,3,-1
 0 336 l 1,0,-1
EndSplineSet
EndChar

StartChar: quoteleft
Encoding: 8216 8216 607
Width: 204
Flags: W
LayerCount: 2
Fore
SplineSet
139 611.5 m 128,-1,1
 146 599 146 599 146 584 c 0,2,3
 146 560 146 560 130.5 544.5 c 128,-1,4
 115 529 115 529 92 529 c 0,5,6
 70 529 70 529 54.5 544 c 128,-1,7
 39 559 39 559 39 584 c 0,8,9
 39 595 39 595 43.5 607 c 128,-1,10
 48 619 48 619 53 630 c 2,11,-1
 107 744 l 1,12,-1
 158 744 l 1,13,-1
 118 631 l 1,14,0
 132 624 132 624 139 611.5 c 128,-1,1
EndSplineSet
Substitution2: "<3,3> Small Caps in Latin lookup 11 subtable" quoteleft.sc
EndChar

StartChar: quoteright
Encoding: 8217 8217 608
Width: 204
Flags: W
LayerCount: 2
Fore
SplineSet
141.5 727 m 128,-1,1
 157 712 157 712 157 687 c 0,2,3
 157 676 157 676 152.5 664 c 128,-1,4
 148 652 148 652 143 641 c 2,5,-1
 89 527 l 1,6,-1
 38 527 l 1,7,-1
 78 640 l 1,8,9
 64 647 64 647 57 659.5 c 128,-1,10
 50 672 50 672 50 687 c 0,11,12
 50 711 50 711 65.5 726.5 c 128,-1,13
 81 742 81 742 104 742 c 0,14,0
 126 742 126 742 141.5 727 c 128,-1,1
EndSplineSet
Substitution2: "<3,3> Small Caps in Latin lookup 11 subtable" quoteright.sc
EndChar

StartChar: quotesinglbase
Encoding: 8218 8218 609
Width: 204
Flags: W
LayerCount: 2
Fore
SplineSet
141.5 88 m 128,-1,1
 157 73 157 73 157 48 c 0,2,3
 157 37 157 37 152.5 25 c 128,-1,4
 148 13 148 13 143 2 c 2,5,-1
 89 -112 l 1,6,-1
 38 -112 l 1,7,-1
 78 1 l 1,8,9
 64 8 64 8 57 20.5 c 128,-1,10
 50 33 50 33 50 48 c 0,11,12
 50 72 50 72 65.5 87.5 c 128,-1,13
 81 103 81 103 104 103 c 0,14,0
 126 103 126 103 141.5 88 c 128,-1,1
EndSplineSet
EndChar

StartChar: dagger
Encoding: 8224 8224 613
Width: 524
Flags: W
LayerCount: 2
Fore
SplineSet
216 699 m 1,0,-1
 305 699 l 1,1,-1
 305 481 l 1,2,-1
 510 481 l 1,3,-1
 510 394 l 1,4,-1
 305 394 l 1,5,-1
 305 -191 l 1,6,-1
 216 -191 l 1,7,-1
 216 394 l 1,8,-1
 14 394 l 1,9,-1
 14 481 l 1,10,-1
 216 481 l 1,11,-1
 216 699 l 1,0,-1
EndSplineSet
EndChar

StartChar: daggerdbl
Encoding: 8225 8225 614
Width: 524
Flags: W
LayerCount: 2
Fore
SplineSet
510 394 m 1,0,-1
 305 394 l 1,1,-1
 305 139 l 1,2,-1
 510 139 l 1,3,-1
 510 52 l 1,4,-1
 305 52 l 1,5,-1
 305 -191 l 1,6,-1
 216 -191 l 1,7,-1
 216 52 l 1,8,-1
 14 52 l 1,9,-1
 14 139 l 1,10,-1
 216 139 l 1,11,-1
 216 394 l 1,12,-1
 14 394 l 1,13,-1
 14 481 l 1,14,-1
 216 481 l 1,15,-1
 216 699 l 1,16,-1
 305 699 l 1,17,-1
 305 481 l 1,18,-1
 510 481 l 1,19,-1
 510 394 l 1,0,-1
EndSplineSet
EndChar

StartChar: bullet
Encoding: 8226 8226 615
Width: 262
Flags: W
LayerCount: 2
Fore
SplineSet
189.5 328.5 m 128,-1,1
 213 305 213 305 213 268 c 256,2,3
 213 231 213 231 189.5 206 c 128,-1,4
 166 181 166 181 131 181 c 256,5,6
 96 181 96 181 72.5 206 c 128,-1,7
 49 231 49 231 49 268 c 256,8,9
 49 305 49 305 72.5 328.5 c 128,-1,10
 96 352 96 352 131 352 c 256,11,0
 166 352 166 352 189.5 328.5 c 128,-1,1
EndSplineSet
EndChar

StartChar: ellipsis
Encoding: 8230 8230 616
Width: 582
Flags: W
LayerCount: 2
Fore
SplineSet
139.5 86.5 m 128,-1,1
 154 71 154 71 154 47 c 256,2,3
 154 23 154 23 139 7 c 128,-1,4
 124 -9 124 -9 102 -9 c 0,5,6
 79 -9 79 -9 64 7 c 128,-1,7
 49 23 49 23 49 47 c 256,8,9
 49 71 49 71 64 86.5 c 128,-1,10
 79 102 79 102 102 102 c 256,11,0
 125 102 125 102 139.5 86.5 c 128,-1,1
328.5 86.5 m 128,-1,13
 343 71 343 71 343 47 c 256,14,15
 343 23 343 23 328 7 c 128,-1,16
 313 -9 313 -9 291 -9 c 0,17,18
 268 -9 268 -9 253 7 c 128,-1,19
 238 23 238 23 238 47 c 256,20,21
 238 71 238 71 253 86.5 c 128,-1,22
 268 102 268 102 291 102 c 256,23,12
 314 102 314 102 328.5 86.5 c 128,-1,13
518.5 86.5 m 128,-1,25
 533 71 533 71 533 47 c 256,26,27
 533 23 533 23 518 7 c 128,-1,28
 503 -9 503 -9 481 -9 c 0,29,30
 458 -9 458 -9 443 7 c 128,-1,31
 428 23 428 23 428 47 c 256,32,33
 428 71 428 71 443 86.5 c 128,-1,34
 458 102 458 102 481 102 c 256,35,24
 504 102 504 102 518.5 86.5 c 128,-1,25
EndSplineSet
EndChar

StartChar: minute
Encoding: 8242 8242 618
Width: 187
Flags: W
LayerCount: 2
Fore
SplineSet
55 700 m 1,0,-1
 144 700 l 1,1,-1
 102 460 l 1,2,-1
 38 460 l 1,3,-1
 55 700 l 1,0,-1
EndSplineSet
EndChar

StartChar: guilsinglleft
Encoding: 8249 8249 620
Width: 274
Flags: W
LayerCount: 2
Fore
SplineSet
145 427 m 1,0,-1
 225 427 l 1,1,-1
 118 257 l 1,2,-1
 225 88 l 1,3,-1
 145 88 l 1,4,-1
 31 257 l 1,5,-1
 145 427 l 1,0,-1
EndSplineSet
Substitution2: "<3,3> Small Caps in Latin lookup 11 subtable" guilsinglleft.sc
Substitution2: "'rtla' Right to Left Alternates in Latin lookup 0 subtable" guilsinglright
EndChar

StartChar: guilsinglright
Encoding: 8250 8250 621
Width: 274
Flags: W
LayerCount: 2
Fore
SplineSet
129 88 m 1,0,-1
 49 88 l 1,1,-1
 156 258 l 1,2,-1
 49 427 l 1,3,-1
 129 427 l 1,4,-1
 243 258 l 1,5,-1
 129 88 l 1,0,-1
EndSplineSet
Substitution2: "<3,3> Small Caps in Latin lookup 11 subtable" guilsinglright.sc
Substitution2: "'rtla' Right to Left Alternates in Latin lookup 0 subtable" guilsinglleft
EndChar

StartChar: fraction
Encoding: 8260 8260 622
Width: 67
Flags: W
LayerCount: 2
Fore
SplineSet
250 700 m 1,0,-1
 326 700 l 1,1,-1
 -193 0 l 1,2,-1
 -270 0 l 1,3,-1
 250 700 l 1,0,-1
EndSplineSet
EndChar

StartChar: colonmonetary
Encoding: 8353 8353 640
Width: 699
Flags: W
LayerCount: 2
Fore
SplineSet
495 6 m 1,1,-1
 475 -137 l 1,2,-1
 402 -137 l 1,3,-1
 420 -6 l 1,4,5
 414 -7 414 -7 400 -7 c 0,6,7
 378 -7 378 -7 355 -4 c 1,8,-1
 336 -137 l 1,9,-1
 263 -137 l 1,10,-1
 284 11 l 1,11,12
 212 34 212 34 156.5 84 c 128,-1,13
 101 134 101 134 69.5 203 c 128,-1,14
 38 272 38 272 38 351 c 0,15,16
 38 431 38 431 71 501 c 128,-1,17
 104 571 104 571 163.5 621 c 128,-1,18
 223 671 223 671 299 692 c 1,19,-1
 319 827 l 1,20,-1
 392 827 l 1,21,-1
 374 705 l 1,22,23
 384 706 384 706 404 706 c 0,24,25
 417 706 417 706 439 704 c 1,26,-1
 458 827 l 1,27,-1
 530 827 l 1,28,-1
 510 691 l 1,29,30
 603 662 603 662 664 601 c 1,31,-1
 607 532 l 1,32,33
 567 574 567 574 514 597.5 c 128,-1,34
 461 621 461 621 405 621 c 0,35,36
 331 621 331 621 269 585 c 128,-1,37
 207 549 207 549 171 487.5 c 128,-1,38
 135 426 135 426 135 352 c 0,39,40
 135 279 135 279 171 217 c 128,-1,41
 207 155 207 155 269 119 c 128,-1,42
 331 83 331 83 405 83 c 0,43,44
 460 83 460 83 513 105.5 c 128,-1,45
 566 128 566 128 607 167 c 1,46,-1
 665 104 l 1,47,0
 593 34 593 34 495 6 c 1,1,-1
EndSplineSet
EndChar

StartChar: franc
Encoding: 8355 8355 641
Width: 567
Flags: W
LayerCount: 2
Fore
SplineSet
554 612 m 1,0,-1
 195 612 l 1,1,-1
 195 383 l 1,2,-1
 518 383 l 1,3,-1
 518 296 l 1,4,-1
 195 296 l 1,5,-1
 195 182 l 1,6,-1
 425 182 l 1,7,-1
 425 129 l 1,8,-1
 195 129 l 1,9,-1
 195 0 l 1,10,-1
 98 0 l 1,11,-1
 98 129 l 1,12,-1
 16 129 l 1,13,-1
 16 182 l 1,14,-1
 98 182 l 1,15,-1
 98 700 l 1,16,-1
 554 700 l 1,17,-1
 554 612 l 1,0,-1
EndSplineSet
EndChar

StartChar: lira
Encoding: 8356 8356 642
Width: 544
Flags: W
LayerCount: 2
Fore
SplineSet
222 79 m 1,0,-1
 510 79 l 1,1,-1
 510 0 l 1,2,-1
 40 0 l 1,3,-1
 40 79 l 1,4,-1
 126 79 l 1,5,-1
 126 256 l 1,6,-1
 40 256 l 1,7,-1
 40 310 l 1,8,-1
 126 310 l 1,9,-1
 126 375 l 1,10,-1
 40 375 l 1,11,-1
 40 428 l 1,12,-1
 126 428 l 1,13,-1
 126 487 l 2,14,15
 126 591 126 591 179 647.5 c 128,-1,16
 232 704 232 704 330 704 c 0,17,18
 386 704 386 704 435.5 680 c 128,-1,19
 485 656 485 656 522 612 c 1,20,-1
 483 538 l 1,21,22
 452 577 452 577 415 597 c 128,-1,23
 378 617 378 617 339 617 c 0,24,25
 282 617 282 617 252 583.5 c 128,-1,26
 222 550 222 550 222 485 c 2,27,-1
 222 428 l 1,28,-1
 401 428 l 1,29,-1
 401 375 l 1,30,-1
 222 375 l 1,31,-1
 222 310 l 1,32,-1
 401 310 l 1,33,-1
 401 256 l 1,34,-1
 222 256 l 1,35,-1
 222 79 l 1,0,-1
EndSplineSet
EndChar

StartChar: uni20A6
Encoding: 8358 8358 643
Width: 763
Flags: W
LayerCount: 2
Fore
SplineSet
743 375 m 1,0,-1
 661 375 l 1,1,-1
 661 310 l 1,2,-1
 743 310 l 1,3,-1
 743 256 l 1,4,-1
 661 256 l 1,5,-1
 661 0 l 1,6,-1
 564 0 l 1,7,-1
 390 256 l 1,8,-1
 198 256 l 1,9,-1
 198 0 l 1,10,-1
 101 0 l 1,11,-1
 101 256 l 1,12,-1
 17 256 l 1,13,-1
 17 310 l 1,14,-1
 101 310 l 1,15,-1
 101 375 l 1,16,-1
 17 375 l 1,17,-1
 17 428 l 1,18,-1
 101 428 l 1,19,-1
 101 700 l 1,20,-1
 198 700 l 1,21,-1
 383 428 l 1,22,-1
 566 428 l 1,23,-1
 566 700 l 1,24,-1
 661 700 l 1,25,-1
 661 428 l 1,26,-1
 743 428 l 1,27,-1
 743 375 l 1,0,-1
273 428 m 1,28,-1
 198 538 l 1,29,-1
 198 428 l 1,30,-1
 273 428 l 1,28,-1
198 310 m 1,31,-1
 353 310 l 1,32,-1
 309 375 l 1,33,-1
 198 375 l 1,34,-1
 198 310 l 1,31,-1
566 375 m 1,35,-1
 419 375 l 1,36,-1
 464 310 l 1,37,-1
 566 310 l 1,38,-1
 566 375 l 1,35,-1
500 256 m 1,39,-1
 566 160 l 1,40,-1
 566 256 l 1,41,-1
 500 256 l 1,39,-1
EndSplineSet
EndChar

StartChar: peseta
Encoding: 8359 8359 644
Width: 1480
Flags: W
LayerCount: 2
Fore
SplineSet
543.5 638 m 128,-1,1
 615 576 615 576 615 464 c 0,2,3
 615 347 615 347 543 282.5 c 128,-1,4
 471 218 471 218 341 218 c 2,5,-1
 196 218 l 1,6,-1
 196 0 l 1,7,-1
 100 0 l 1,8,-1
 100 700 l 1,9,-1
 341 700 l 2,10,0
 472 700 472 700 543.5 638 c 128,-1,1
981 107 m 1,12,-1
 1007 35 l 1,13,14
 945 -4 945 -4 882 -4 c 0,15,16
 820 -4 820 -4 781 33.5 c 128,-1,17
 742 71 742 71 742 147 c 2,18,-1
 742 440 l 1,19,-1
 666 440 l 1,20,-1
 666 511 l 1,21,-1
 742 511 l 1,22,-1
 742 653 l 1,23,-1
 835 653 l 1,24,-1
 835 511 l 1,25,-1
 990 511 l 1,26,-1
 990 440 l 1,27,-1
 835 440 l 1,28,-1
 835 164 l 2,29,30
 835 120 835 120 851 101 c 128,-1,31
 867 82 867 82 899 82 c 0,32,11
 937 82 937 82 981 107 c 1,12,-1
475 344.5 m 128,-1,34
 523 384 523 384 523 461 c 0,35,36
 523 536 523 536 475 574 c 128,-1,37
 427 612 427 612 337 612 c 2,38,-1
 196 612 l 1,39,-1
 196 305 l 1,40,-1
 337 305 l 2,41,33
 427 305 427 305 475 344.5 c 128,-1,34
1187.5 344.5 m 128,-1,43
 1216 328 1216 328 1274 311 c 0,44,45
 1328 295 1328 295 1363 278.5 c 128,-1,46
 1398 262 1398 262 1423 231 c 128,-1,47
 1448 200 1448 200 1448 149 c 0,48,49
 1448 75 1448 75 1391 36 c 128,-1,50
 1334 -3 1334 -3 1250 -3 c 0,51,52
 1192 -3 1192 -3 1136.5 16 c 128,-1,53
 1081 35 1081 35 1043 70 c 1,54,-1
 1078 138 l 1,55,56
 1111 108 1111 108 1159.5 90 c 128,-1,57
 1208 72 1208 72 1254 72 c 0,58,59
 1299 72 1299 72 1327 89 c 128,-1,60
 1355 106 1355 106 1356 140 c 0,61,62
 1356 165 1356 165 1340.5 181.5 c 128,-1,63
 1325 198 1325 198 1301.5 208 c 128,-1,64
 1278 218 1278 218 1237 230 c 0,65,66
 1184 246 1184 246 1150.5 261.5 c 128,-1,67
 1117 277 1117 277 1093.5 307 c 128,-1,68
 1070 337 1070 337 1070 385 c 0,69,70
 1070 459 1070 459 1124 496 c 128,-1,71
 1178 533 1178 533 1259 533 c 0,72,73
 1307 533 1307 533 1353 519.5 c 128,-1,74
 1399 506 1399 506 1434 483 c 1,75,-1
 1399 412 l 1,76,77
 1366 432 1366 432 1327 444 c 128,-1,78
 1288 456 1288 456 1252 456 c 0,79,80
 1210 456 1210 456 1184.5 440.5 c 128,-1,81
 1159 425 1159 425 1159 393 c 256,82,42
 1159 361 1159 361 1187.5 344.5 c 128,-1,43
EndSplineSet
EndChar

StartChar: uni20A9
Encoding: 8361 8361 645
Width: 960
Flags: W
LayerCount: 2
Fore
SplineSet
955 375 m 1,0,-1
 850 375 l 1,1,-1
 831 310 l 1,2,-1
 945 310 l 1,3,-1
 945 256 l 1,4,-1
 815 256 l 1,5,-1
 740 0 l 1,6,-1
 641 0 l 1,7,-1
 570 256 l 1,8,-1
 392 256 l 1,9,-1
 320 0 l 1,10,-1
 221 0 l 1,11,-1
 146 256 l 1,12,-1
 14 256 l 1,13,-1
 14 310 l 1,14,-1
 130 310 l 1,15,-1
 111 375 l 1,16,-1
 4 375 l 1,17,-1
 4 428 l 1,18,-1
 96 428 l 1,19,-1
 16 700 l 1,20,-1
 119 700 l 1,21,-1
 191 428 l 1,22,-1
 361 428 l 1,23,-1
 435 700 l 1,24,-1
 531 700 l 1,25,-1
 606 428 l 1,26,-1
 776 428 l 1,27,-1
 847 700 l 1,28,-1
 946 700 l 1,29,-1
 866 428 l 1,30,-1
 955 428 l 1,31,-1
 955 375 l 1,0,-1
482 573 m 1,32,-1
 441 428 l 1,33,-1
 522 428 l 1,34,-1
 482 573 l 1,32,-1
205 375 m 1,35,-1
 222 310 l 1,36,-1
 328 310 l 1,37,-1
 346 375 l 1,38,-1
 205 375 l 1,35,-1
407 310 m 1,39,-1
 555 310 l 1,40,-1
 537 375 l 1,41,-1
 426 375 l 1,42,-1
 407 310 l 1,39,-1
745 310 m 1,43,-1
 762 375 l 1,44,-1
 620 375 l 1,45,-1
 638 310 l 1,46,-1
 745 310 l 1,43,-1
274 112 m 1,47,-1
 314 256 l 1,48,-1
 236 256 l 1,49,-1
 274 112 l 1,47,-1
693 112 m 1,50,-1
 730 256 l 1,51,-1
 653 256 l 1,52,-1
 693 112 l 1,50,-1
EndSplineSet
EndChar

StartChar: dong
Encoding: 8363 8363 646
Width: 678
Flags: W
LayerCount: 2
Fore
SplineSet
655 587 m 1,0,-1
 584 587 l 1,1,-1
 584 0 l 1,2,-1
 491 0 l 1,3,-1
 491 105 l 1,4,5
 461 52 461 52 410.5 23.5 c 128,-1,6
 360 -5 360 -5 293 -5 c 0,7,8
 218 -5 218 -5 160.5 29.5 c 128,-1,9
 103 64 103 64 71 125.5 c 128,-1,10
 39 187 39 187 39 266 c 0,11,12
 39 344 39 344 71 404.5 c 128,-1,13
 103 465 103 465 160.5 499 c 128,-1,14
 218 533 218 533 292 533 c 0,15,16
 360 533 360 533 411 505 c 128,-1,17
 462 477 462 477 491 424 c 1,18,-1
 491 587 l 1,19,-1
 356 587 l 1,20,-1
 356 640 l 1,21,-1
 491 640 l 1,22,-1
 491 742 l 1,23,-1
 584 742 l 1,24,-1
 584 640 l 1,25,-1
 655 640 l 1,26,-1
 655 587 l 1,0,-1
404.5 99 m 128,-1,28
 445 123 445 123 468 166 c 128,-1,29
 491 209 491 209 491 263 c 0,30,31
 491 318 491 318 468 361 c 128,-1,32
 445 404 445 404 404.5 428 c 128,-1,33
 364 452 364 452 312 452 c 256,34,35
 260 452 260 452 219.5 427.5 c 128,-1,36
 179 403 179 403 156 360 c 128,-1,37
 133 317 133 317 133 263 c 256,38,39
 133 209 133 209 156 166 c 128,-1,40
 179 123 179 123 219.5 99 c 128,-1,41
 260 75 260 75 312 75 c 256,42,27
 364 75 364 75 404.5 99 c 128,-1,28
112 -123 m 1,43,-1
 112 -70 l 1,44,-1
 534 -70 l 1,45,-1
 534 -123 l 1,46,-1
 112 -123 l 1,43,-1
EndSplineSet
EndChar

StartChar: Euro
Encoding: 8364 8364 647
Width: 792
Flags: W
LayerCount: 2
Fore
SplineSet
758 106 m 1,0,1
 705 55 705 55 635 25.5 c 128,-1,2
 565 -4 565 -4 493 -4 c 0,3,4
 410 -4 410 -4 337.5 29.5 c 128,-1,5
 265 63 265 63 214 122 c 128,-1,6
 163 181 163 181 143 256 c 1,7,-1
 40 256 l 1,8,-1
 40 310 l 1,9,-1
 132 310 l 1,10,11
 130 336 130 336 130 351 c 0,12,13
 130 367 130 367 131 375 c 1,14,-1
 40 375 l 1,15,-1
 40 428 l 1,16,-1
 139 428 l 1,17,18
 156 507 156 507 207.5 569.5 c 128,-1,19
 259 632 259 632 334.5 667 c 128,-1,20
 410 702 410 702 497 702 c 0,21,22
 570 702 570 702 638 674.5 c 128,-1,23
 706 647 706 647 757 598 c 1,24,-1
 701 529 l 1,25,26
 660 570 660 570 606.5 593.5 c 128,-1,27
 553 617 553 617 498 617 c 0,28,29
 407 617 407 617 335.5 564 c 128,-1,30
 264 511 264 511 239 428 c 1,31,-1
 517 428 l 1,32,-1
 517 375 l 1,33,-1
 229 375 l 1,34,35
 228 367 228 367 228 352 c 0,36,37
 228 331 228 331 231 310 c 1,38,-1
 517 310 l 1,39,-1
 517 256 l 1,40,-1
 246 256 l 1,41,42
 276 180 276 180 344 133 c 128,-1,43
 412 86 412 86 498 86 c 0,44,45
 553 86 553 86 605.5 108 c 128,-1,46
 658 130 658 130 701 169 c 1,47,-1
 758 106 l 1,0,1
EndSplineSet
EndChar

StartChar: uni20AD
Encoding: 8365 8365 648
Width: 649
Flags: W
LayerCount: 2
Fore
SplineSet
629 0 m 1,0,-1
 511 0 l 1,1,-1
 174 325 l 1,2,-1
 174 0 l 1,3,-1
 78 0 l 1,4,-1
 78 325 l 1,5,-1
 -4 325 l 1,6,-1
 -4 378 l 1,7,-1
 78 378 l 1,8,-1
 78 700 l 1,9,-1
 174 700 l 1,10,-1
 174 378 l 1,11,-1
 176 378 l 1,12,-1
 495 700 l 1,13,-1
 610 700 l 1,14,-1
 287 378 l 1,15,-1
 548 378 l 1,16,-1
 548 325 l 1,17,-1
 287 325 l 1,18,-1
 629 0 l 1,0,-1
EndSplineSet
EndChar

StartChar: uni20B1
Encoding: 8369 8369 649
Width: 762
Flags: W
LayerCount: 2
Fore
SplineSet
739 491 m 1,0,-1
 658 491 l 1,1,2
 659 482 659 482 659 464 c 0,3,4
 659 450 659 450 657 426 c 1,5,-1
 739 426 l 1,6,-1
 739 373 l 1,7,-1
 645 373 l 1,8,9
 621 298 621 298 553.5 258 c 128,-1,10
 486 218 486 218 384 218 c 2,11,-1
 211 218 l 1,12,-1
 211 0 l 1,13,-1
 115 0 l 1,14,-1
 115 373 l 1,15,-1
 32 373 l 1,16,-1
 32 426 l 1,17,-1
 115 426 l 1,18,-1
 115 491 l 1,19,-1
 32 491 l 1,20,-1
 32 545 l 1,21,-1
 115 545 l 1,22,-1
 115 700 l 1,23,-1
 384 700 l 2,24,25
 489 700 489 700 557 660 c 128,-1,26
 625 620 625 620 648 545 c 1,27,-1
 739 545 l 1,28,-1
 739 491 l 1,0,-1
211 545 m 1,29,-1
 545 545 l 1,30,31
 502 612 502 612 380 612 c 2,32,-1
 211 612 l 1,33,-1
 211 545 l 1,29,-1
565 491 m 1,35,-1
 211 491 l 1,36,-1
 211 426 l 1,37,-1
 564 426 l 1,38,39
 567 443 567 443 567 461 c 0,40,34
 567 473 567 473 565 491 c 1,35,-1
544 373 m 1,42,-1
 211 373 l 1,43,-1
 211 305 l 1,44,-1
 380 305 l 2,45,41
 500 305 500 305 544 373 c 1,42,-1
EndSplineSet
EndChar

StartChar: uni20B2
Encoding: 8370 8370 650
Width: 725
Flags: W
LayerCount: 2
Fore
SplineSet
584 342 m 1,0,-1
 669 342 l 1,1,-1
 669 85 l 1,2,3
 623 49 623 49 562.5 25 c 128,-1,4
 502 1 502 1 440 -5 c 1,5,-1
 440 -137 l 1,6,-1
 367 -137 l 1,7,-1
 367 -5 l 1,8,9
 275 3 275 3 199.5 52.5 c 128,-1,10
 124 102 124 102 81 180 c 128,-1,11
 38 258 38 258 38 351 c 0,12,13
 38 442 38 442 81 519.5 c 128,-1,14
 124 597 124 597 199 646 c 128,-1,15
 274 695 274 695 367 704 c 1,16,-1
 367 827 l 1,17,-1
 440 827 l 1,18,-1
 440 705 l 1,19,20
 505 700 505 700 565.5 675 c 128,-1,21
 626 650 626 650 672 609 c 1,22,-1
 617 539 l 1,23,24
 575 578 575 578 520.5 599.5 c 128,-1,25
 466 621 466 621 409 621 c 0,26,27
 334 621 334 621 271 585 c 128,-1,28
 208 549 208 549 171.5 487 c 128,-1,29
 135 425 135 425 135 351 c 256,30,31
 135 277 135 277 172 214.5 c 128,-1,32
 209 152 209 152 272 115.5 c 128,-1,33
 335 79 335 79 410 79 c 0,34,35
 454 79 454 79 499.5 93.5 c 128,-1,36
 545 108 545 108 584 134 c 1,37,-1
 584 342 l 1,0,-1
EndSplineSet
EndChar

StartChar: uni20B5
Encoding: 8373 8373 651
Width: 699
Flags: W
LayerCount: 2
Fore
SplineSet
557.5 29.5 m 128,-1,1
 497 1 497 1 432 -5 c 1,2,-1
 432 -137 l 1,3,-1
 359 -137 l 1,4,-1
 359 -5 l 1,5,6
 269 5 269 5 195.5 54.5 c 128,-1,7
 122 104 122 104 80 181.5 c 128,-1,8
 38 259 38 259 38 351 c 0,9,10
 38 442 38 442 80 518.5 c 128,-1,11
 122 595 122 595 195 644 c 128,-1,12
 268 693 268 693 359 703 c 1,13,-1
 359 827 l 1,14,-1
 432 827 l 1,15,-1
 432 705 l 1,16,17
 498 700 498 700 558 673 c 128,-1,18
 618 646 618 646 664 601 c 1,19,-1
 607 532 l 1,20,21
 567 574 567 574 514 597.5 c 128,-1,22
 461 621 461 621 405 621 c 0,23,24
 331 621 331 621 269 585 c 128,-1,25
 207 549 207 549 171 487.5 c 128,-1,26
 135 426 135 426 135 352 c 0,27,28
 135 279 135 279 171 217 c 128,-1,29
 207 155 207 155 269 119 c 128,-1,30
 331 83 331 83 405 83 c 0,31,32
 460 83 460 83 513 105.5 c 128,-1,33
 566 128 566 128 607 167 c 1,34,-1
 665 104 l 1,35,0
 618 58 618 58 557.5 29.5 c 128,-1,1
EndSplineSet
EndChar

StartChar: uni20B9
Encoding: 8377 8377 652
Width: 593
Flags: W
LayerCount: 2
Fore
SplineSet
449 613 m 1,0,1
 492 562 492 562 498 486 c 1,2,-1
 574 486 l 1,3,-1
 574 433 l 1,4,-1
 498 433 l 1,5,6
 492 371 492 371 462.5 325 c 128,-1,7
 433 279 433 279 382 253 c 1,8,-1
 574 0 l 1,9,-1
 464 0 l 1,10,-1
 296 224 l 1,11,12
 260 218 260 218 220 218 c 2,13,-1
 32 218 l 1,14,-1
 32 305 l 1,15,-1
 220 305 l 2,16,17
 302 305 302 305 349.5 337.5 c 128,-1,18
 397 370 397 370 405 433 c 1,19,-1
 32 433 l 1,20,-1
 32 486 l 1,21,-1
 405 486 l 1,22,23
 398 548 398 548 350.5 580 c 128,-1,24
 303 612 303 612 220 612 c 2,25,-1
 32 612 l 1,26,-1
 32 700 l 1,27,-1
 574 700 l 1,28,-1
 574 613 l 1,29,-1
 449 613 l 1,0,1
EndSplineSet
EndChar

StartChar: uni20BA
Encoding: 8378 8378 653
Width: 672
Flags: W
LayerCount: 2
Fore
SplineSet
646 350 m 1,0,1
 646 248 646 248 600.5 168.5 c 128,-1,2
 555 89 555 89 472.5 44.5 c 128,-1,3
 390 0 390 0 283 0 c 2,4,-1
 116 0 l 1,5,-1
 116 320 l 1,6,-1
 35 297 l 1,7,-1
 35 354 l 1,8,-1
 116 377 l 1,9,-1
 116 463 l 1,10,-1
 35 440 l 1,11,-1
 35 498 l 1,12,-1
 116 521 l 1,13,-1
 116 700 l 1,14,-1
 213 700 l 1,15,-1
 213 549 l 1,16,-1
 536 641 l 1,17,-1
 536 583 l 1,18,-1
 213 491 l 1,19,-1
 213 405 l 1,20,-1
 536 497 l 1,21,-1
 536 440 l 1,22,-1
 213 348 l 1,23,-1
 213 88 l 1,24,-1
 287 88 l 2,25,26
 363 88 363 88 422.5 120.5 c 128,-1,27
 482 153 482 153 515.5 212.5 c 128,-1,28
 549 272 549 272 549 349 c 1,29,-1
 646 350 l 1,0,1
EndSplineSet
EndChar

StartChar: uni20BC
Encoding: 8380 8380 654
Width: 737
Flags: W
LayerCount: 2
Fore
SplineSet
566 550.5 m 128,-1,1
 631 505 631 505 667.5 433 c 128,-1,2
 704 361 704 361 704 274 c 2,3,-1
 704 0 l 1,4,-1
 606 0 l 1,5,-1
 606 274 l 2,6,7
 606 368 606 368 553.5 435 c 128,-1,8
 501 502 501 502 417 518 c 1,9,-1
 417 0 l 1,10,-1
 319 0 l 1,11,-1
 319 518 l 1,12,13
 235 501 235 501 182.5 434 c 128,-1,14
 130 367 130 367 130 274 c 2,15,-1
 130 0 l 1,16,-1
 32 0 l 1,17,-1
 32 274 l 2,18,19
 32 361 32 361 68.5 433 c 128,-1,20
 105 505 105 505 170.5 550.5 c 128,-1,21
 236 596 236 596 319 607 c 1,22,-1
 319 700 l 1,23,-1
 417 700 l 1,24,-1
 417 607 l 1,25,0
 501 596 501 596 566 550.5 c 128,-1,1
EndSplineSet
EndChar

StartChar: uni20BD
Encoding: 8381 8381 655
Width: 671
Flags: W
LayerCount: 2
Fore
SplineSet
196 231 m 1,0,-1
 196 161 l 1,1,-1
 451 161 l 1,2,-1
 451 108 l 1,3,-1
 196 108 l 1,4,-1
 196 0 l 1,5,-1
 100 0 l 1,6,-1
 100 108 l 1,7,-1
 18 108 l 1,8,-1
 18 161 l 1,9,-1
 100 161 l 1,10,-1
 100 700 l 1,11,-1
 370 700 l 2,12,13
 500 700 500 700 572 640 c 128,-1,14
 644 580 644 580 644 470 c 0,15,16
 644 356 644 356 572.5 293.5 c 128,-1,17
 501 231 501 231 370 231 c 2,18,-1
 196 231 l 1,0,-1
504 575.5 m 128,-1,20
 456 612 456 612 366 612 c 2,21,-1
 196 612 l 1,22,-1
 196 318 l 1,23,-1
 366 318 l 2,24,25
 456 318 456 318 504 356 c 128,-1,26
 552 394 552 394 552 468 c 0,27,19
 552 539 552 539 504 575.5 c 128,-1,20
EndSplineSet
EndChar

StartChar: uni2113
Encoding: 8467 8467 656
Width: 466
Flags: W
LayerCount: 2
Fore
SplineSet
220 656.5 m 128,-1,1
 264 705 264 705 323 705 c 0,2,3
 370 705 370 705 399.5 673.5 c 128,-1,4
 429 642 429 642 429 584 c 0,5,6
 429 494 429 494 361.5 401 c 128,-1,7
 294 308 294 308 183 219 c 1,8,9
 177 183 177 183 177 156 c 0,10,11
 177 113 177 113 194 92 c 128,-1,12
 211 71 211 71 248 71 c 0,13,14
 287 71 287 71 321.5 93.5 c 128,-1,15
 356 116 356 116 391 158 c 1,16,-1
 425 118 l 1,17,18
 340 -3 340 -3 227 -3 c 0,19,20
 158 -3 158 -3 129.5 41 c 128,-1,21
 101 85 101 85 104 168 c 1,22,-1
 50 130 l 1,23,-1
 32 177 l 1,24,-1
 113 237 l 1,25,-1
 158 513 l 2,26,0
 176 608 176 608 220 656.5 c 128,-1,1
322 444.5 m 128,-1,28
 369 520 369 520 369 582 c 0,29,30
 369 613 369 613 355.5 629 c 128,-1,31
 342 645 342 645 321 645 c 0,32,33
 291 645 291 645 267.5 614 c 128,-1,34
 244 583 244 583 233 519 c 2,35,-1
 196 302 l 1,36,27
 275 369 275 369 322 444.5 c 128,-1,28
EndSplineSet
EndChar

StartChar: trademark
Encoding: 8482 8482 658
Width: 880
Flags: W
LayerCount: 2
Fore
SplineSet
-4 700 m 1,0,-1
 320 700 l 1,1,-1
 320 638 l 1,2,-1
 193 638 l 1,3,-1
 193 280 l 1,4,-1
 122 280 l 1,5,-1
 122 638 l 1,6,-1
 -4 638 l 1,7,-1
 -4 700 l 1,0,-1
382 700 m 1,8,-1
 465 700 l 1,9,-1
 603 416 l 1,10,-1
 740 700 l 1,11,-1
 824 700 l 1,12,-1
 824 280 l 1,13,-1
 759 280 l 1,14,-1
 759 600 l 1,15,-1
 626 324 l 1,16,-1
 580 324 l 1,17,-1
 447 600 l 1,18,-1
 447 280 l 1,19,-1
 382 280 l 1,20,-1
 382 700 l 1,8,-1
EndSplineSet
EndChar

StartChar: estimated
Encoding: 8494 8494 660
Width: 809
Flags: W
LayerCount: 2
Fore
SplineSet
192 308 m 2,1,-1
 192 144 l 2,2,3
 192 135 192 135 200 125 c 0,4,5
 239 83 239 83 292.5 59.5 c 128,-1,6
 346 36 346 36 406 36 c 0,7,8
 469 36 469 36 525.5 62.5 c 128,-1,9
 582 89 582 89 621 135 c 1,10,-1
 670 135 l 1,11,12
 624 81 624 81 554 49.5 c 128,-1,13
 484 18 484 18 405 18 c 0,14,15
 314 18 314 18 237 58.5 c 128,-1,16
 160 99 160 99 115 168 c 128,-1,17
 70 237 70 237 70 319 c 256,18,19
 70 401 70 401 115 470.5 c 128,-1,20
 160 540 160 540 237 580.5 c 128,-1,21
 314 621 314 621 405 621 c 256,22,23
 496 621 496 621 573 580.5 c 128,-1,24
 650 540 650 540 695 470.5 c 128,-1,25
 740 401 740 401 740 319 c 2,26,-1
 740 312 l 1,27,-1
 197 312 l 2,28,0
 192 312 192 312 192 308 c 2,1,-1
609 518 m 0,30,31
 569 558 569 558 516.5 580.5 c 128,-1,32
 464 603 464 603 406 603 c 0,33,34
 347 603 347 603 294 579.5 c 128,-1,35
 241 556 241 556 201 515 c 0,36,37
 192 506 192 506 192 495 c 2,38,-1
 192 333 l 2,39,40
 192 328 192 328 197 328 c 2,41,-1
 613 328 l 2,42,43
 618 328 618 328 618 333 c 2,44,-1
 618 498 l 2,45,29
 618 509 618 509 609 518 c 0,30,31
EndSplineSet
EndChar

StartChar: arrowleft
Encoding: 8592 8592 667
Width: 600
Flags: W
LayerCount: 2
Fore
SplineSet
522 310 m 1,0,-1
 522 239 l 1,1,-1
 225 239 l 1,2,-1
 331 74 l 1,3,-1
 245 74 l 1,4,-1
 109 274 l 1,5,-1
 245 476 l 1,6,-1
 331 476 l 1,7,-1
 225 310 l 1,8,-1
 522 310 l 1,0,-1
EndSplineSet
EndChar

StartChar: arrowup
Encoding: 8593 8593 668
Width: 600
Flags: W
LayerCount: 2
Fore
SplineSet
499 349 m 1,0,-1
 499 264 l 1,1,-1
 338 367 l 1,2,-1
 338 72 l 1,3,-1
 262 72 l 1,4,-1
 262 368 l 1,5,-1
 101 264 l 1,6,-1
 101 349 l 1,7,-1
 299 486 l 1,8,-1
 499 349 l 1,0,-1
EndSplineSet
EndChar

StartChar: arrowright
Encoding: 8594 8594 669
Width: 600
Flags: W
LayerCount: 2
Fore
SplineSet
355 475 m 1,0,-1
 491 275 l 1,1,-1
 355 73 l 1,2,-1
 269 73 l 1,3,-1
 375 239 l 1,4,-1
 78 239 l 1,5,-1
 78 310 l 1,6,-1
 375 310 l 1,7,-1
 269 475 l 1,8,-1
 355 475 l 1,0,-1
EndSplineSet
EndChar

StartChar: arrowdown
Encoding: 8595 8595 670
Width: 600
Flags: W
LayerCount: 2
Fore
SplineSet
365 181 m 1,0,-1
 526 285 l 1,1,-1
 526 200 l 1,2,-1
 328 63 l 1,3,-1
 128 200 l 1,4,-1
 128 285 l 1,5,-1
 289 182 l 1,6,-1
 289 477 l 1,7,-1
 365 477 l 1,8,-1
 365 181 l 1,0,-1
EndSplineSet
EndChar

StartChar: arrowboth
Encoding: 8596 8596 671
Width: 693
Flags: W
LayerCount: 2
Fore
SplineSet
508 476 m 1,0,-1
 643 274 l 1,1,-1
 508 74 l 1,2,-1
 422 74 l 1,3,-1
 528 239 l 1,4,-1
 165 239 l 1,5,-1
 271 74 l 1,6,-1
 185 74 l 1,7,-1
 50 274 l 1,8,-1
 185 476 l 1,9,-1
 271 476 l 1,10,-1
 166 310 l 1,11,-1
 528 310 l 1,12,-1
 422 476 l 1,13,-1
 508 476 l 1,0,-1
EndSplineSet
EndChar

StartChar: arrowupdn
Encoding: 8597 8597 672
Width: 600
Flags: W
LayerCount: 2
Fore
SplineSet
499 429 m 1,0,-1
 338 532 l 1,1,-1
 338 180 l 1,2,-1
 499 285 l 1,3,-1
 499 200 l 1,4,-1
 302 63 l 1,5,-1
 101 200 l 1,6,-1
 101 285 l 1,7,-1
 262 182 l 1,8,-1
 262 533 l 1,9,-1
 101 429 l 1,10,-1
 101 514 l 1,11,-1
 299 651 l 1,12,-1
 499 514 l 1,13,-1
 499 429 l 1,0,-1
EndSplineSet
EndChar

StartChar: uni2196
Encoding: 8598 8598 673
Width: 600
Flags: W
LayerCount: 2
Fore
SplineSet
483 164 m 1,0,-1
 429 110 l 1,1,-1
 220 319 l 1,2,-1
 180 132 l 1,3,-1
 120 192 l 1,4,-1
 163 429 l 1,5,-1
 401 474 l 1,6,-1
 461 414 l 1,7,-1
 274 373 l 1,8,-1
 483 164 l 1,0,-1
EndSplineSet
EndChar

StartChar: uni2197
Encoding: 8599 8599 674
Width: 600
Flags: W
LayerCount: 2
Fore
SplineSet
495 186 m 1,0,-1
 435 126 l 1,1,-1
 394 313 l 1,2,-1
 185 104 l 1,3,-1
 131 158 l 1,4,-1
 340 367 l 1,5,-1
 153 407 l 1,6,-1
 213 467 l 1,7,-1
 450 424 l 1,8,-1
 495 186 l 1,0,-1
EndSplineSet
EndChar

StartChar: uni2198
Encoding: 8600 8600 675
Width: 600
Flags: W
LayerCount: 2
Fore
SplineSet
434 432 m 1,0,-1
 494 372 l 1,1,-1
 451 135 l 1,2,-1
 213 90 l 1,3,-1
 153 150 l 1,4,-1
 340 191 l 1,5,-1
 131 400 l 1,6,-1
 185 454 l 1,7,-1
 394 245 l 1,8,-1
 434 432 l 1,0,-1
EndSplineSet
EndChar

StartChar: uni2199
Encoding: 8601 8601 676
Width: 600
Flags: W
LayerCount: 2
Fore
SplineSet
483 406 m 1,0,-1
 274 197 l 1,1,-1
 461 157 l 1,2,-1
 401 97 l 1,3,-1
 164 140 l 1,4,-1
 119 378 l 1,5,-1
 179 438 l 1,6,-1
 220 251 l 1,7,-1
 429 460 l 1,8,-1
 483 406 l 1,0,-1
EndSplineSet
EndChar

StartChar: partialdiff
Encoding: 8706 8706 677
Width: 606
Flags: W
LayerCount: 2
Fore
SplineSet
162 687.5 m 128,-1,1
 217 704 217 704 268 704 c 0,2,3
 356 704 356 704 421.5 659 c 128,-1,4
 487 614 487 614 522.5 531 c 128,-1,5
 558 448 558 448 558 339 c 0,6,7
 558 231 558 231 524.5 154 c 128,-1,8
 491 77 491 77 428.5 36.5 c 128,-1,9
 366 -4 366 -4 280 -4 c 0,10,11
 170 -4 170 -4 104.5 58.5 c 128,-1,12
 39 121 39 121 39 228 c 0,13,14
 39 330 39 330 99.5 390 c 128,-1,15
 160 450 160 450 263 450 c 0,16,17
 340 450 340 450 392.5 413 c 128,-1,18
 445 376 445 376 463 313 c 1,19,20
 465 345 465 345 465 361 c 0,21,22
 465 486 465 486 412 554.5 c 128,-1,23
 359 623 359 623 262 623 c 0,24,25
 219 623 219 623 176.5 609 c 128,-1,26
 134 595 134 595 99 569 c 1,27,-1
 61 643 l 1,28,0
 107 671 107 671 162 687.5 c 128,-1,1
169.5 334.5 m 128,-1,30
 129 296 129 296 129 229 c 0,31,32
 129 159 129 159 172 119 c 128,-1,33
 215 79 215 79 286 79 c 0,34,35
 338 79 338 79 374 100.5 c 128,-1,36
 410 122 410 122 427.5 155.5 c 128,-1,37
 445 189 445 189 445 224 c 0,38,39
 445 265 445 265 425 299 c 128,-1,40
 405 333 405 333 367.5 353 c 128,-1,41
 330 373 330 373 280 373 c 0,42,29
 210 373 210 373 169.5 334.5 c 128,-1,30
EndSplineSet
EndChar

StartChar: emptyset
Encoding: 8709 8709 678
Width: 487
Flags: W
LayerCount: 2
Fore
SplineSet
412 448 m 1,0,1
 454 391 454 391 454 324 c 0,2,3
 454 268 454 268 425.5 220 c 128,-1,4
 397 172 397 172 349.5 144 c 128,-1,5
 302 116 302 116 247 116 c 0,6,7
 209 116 209 116 174 129.5 c 128,-1,8
 139 143 139 143 111 168 c 1,9,-1
 38 100 l 1,10,-1
 6 136 l 1,11,-1
 79 203 l 1,12,13
 40 258 40 258 40 324 c 0,14,15
 40 380 40 380 68 427.5 c 128,-1,16
 96 475 96 475 143.5 503 c 128,-1,17
 191 531 191 531 247 531 c 0,18,19
 323 531 323 531 382 480 c 1,20,-1
 453 545 l 1,21,-1
 480 512 l 1,22,-1
 412 448 l 1,0,1
128 248 m 1,24,-1
 332 434 l 1,25,26
 295 462 295 462 247 462 c 0,27,28
 208 462 208 462 175.5 443.5 c 128,-1,29
 143 425 143 425 124 393 c 128,-1,30
 105 361 105 361 105 324 c 0,31,23
 105 284 105 284 128 248 c 1,24,-1
363 403 m 1,33,-1
 160 214 l 1,34,35
 199 185 199 185 247 185 c 0,36,37
 285 185 285 185 317.5 204 c 128,-1,38
 350 223 350 223 369 255 c 128,-1,39
 388 287 388 287 388 324 c 0,40,32
 388 367 388 367 363 403 c 1,33,-1
EndSplineSet
EndChar

StartChar: uni2206
Encoding: 8710 8710 679
Width: 675
Flags: W
LayerCount: 2
Fore
SplineSet
0 0 m 1,0,-1
 0 65 l 1,1,-1
 289 700 l 1,2,-1
 388 700 l 1,3,-1
 675 65 l 1,4,-1
 675 0 l 1,5,-1
 0 0 l 1,0,-1
106 82 m 1,6,-1
 567 82 l 1,7,-1
 335 597 l 1,8,-1
 106 82 l 1,6,-1
EndSplineSet
EndChar

StartChar: product
Encoding: 8719 8719 680
Width: 753
Flags: W
LayerCount: 2
Fore
SplineSet
100 742 m 1,0,-1
 653 742 l 1,1,-1
 653 -194 l 1,2,-1
 559 -194 l 1,3,-1
 559 662 l 1,4,-1
 194 662 l 1,5,-1
 194 -194 l 1,6,-1
 100 -194 l 1,7,-1
 100 742 l 1,0,-1
EndSplineSet
EndChar

StartChar: summation
Encoding: 8721 8721 681
Width: 609
Flags: W
LayerCount: 2
Fore
SplineSet
40 743 m 1,0,-1
 597 743 l 1,1,-1
 597 657 l 1,2,-1
 151 657 l 1,3,-1
 444 308 l 1,4,-1
 150 -51 l 1,5,-1
 607 -51 l 1,6,-1
 607 -138 l 1,7,-1
 34 -138 l 1,8,-1
 34 -62 l 1,9,-1
 339 308 l 1,10,-1
 40 666 l 1,11,-1
 40 743 l 1,0,-1
EndSplineSet
EndChar

StartChar: minus
Encoding: 8722 8722 682
Width: 494
Flags: W
LayerCount: 2
Fore
SplineSet
36 357 m 1,0,-1
 458 357 l 1,1,-1
 458 290 l 1,2,-1
 36 290 l 1,3,-1
 36 357 l 1,0,-1
EndSplineSet
EndChar

StartChar: uni2219
Encoding: 8729 8729 684
Width: 262
Flags: W
LayerCount: 2
Fore
SplineSet
189.5 328.5 m 128,-1,1
 213 305 213 305 213 268 c 256,2,3
 213 231 213 231 189.5 206 c 128,-1,4
 166 181 166 181 131 181 c 256,5,6
 96 181 96 181 72.5 206 c 128,-1,7
 49 231 49 231 49 268 c 256,8,9
 49 305 49 305 72.5 328.5 c 128,-1,10
 96 352 96 352 131 352 c 256,11,0
 166 352 166 352 189.5 328.5 c 128,-1,1
EndSplineSet
EndChar

StartChar: radical
Encoding: 8730 8730 685
Width: 682
Flags: W
LayerCount: 2
Fore
SplineSet
583 751 m 1,0,-1
 674 751 l 1,1,-1
 393 -152 l 1,2,-1
 293 -152 l 1,3,-1
 136 315 l 1,4,-1
 14 315 l 1,5,-1
 14 395 l 1,6,-1
 201 395 l 1,7,-1
 343 -50 l 1,8,-1
 583 751 l 1,0,-1
EndSplineSet
EndChar

StartChar: infinity
Encoding: 8734 8734 686
Width: 883
Flags: W
LayerCount: 2
Fore
SplineSet
751.5 473.5 m 128,-1,1
 795 448 795 448 819.5 403 c 128,-1,2
 844 358 844 358 844 303 c 256,3,4
 844 248 844 248 819.5 203 c 128,-1,5
 795 158 795 158 751.5 132.5 c 128,-1,6
 708 107 708 107 655 107 c 0,7,8
 578 107 578 107 530.5 143.5 c 128,-1,9
 483 180 483 180 442 246 c 1,10,11
 401 180 401 180 353.5 143.5 c 128,-1,12
 306 107 306 107 228 107 c 0,13,14
 174 107 174 107 131 132.5 c 128,-1,15
 88 158 88 158 63.5 202.5 c 128,-1,16
 39 247 39 247 39 302 c 256,17,18
 39 357 39 357 63.5 402 c 128,-1,19
 88 447 88 447 131 472.5 c 128,-1,20
 174 498 174 498 228 498 c 0,21,22
 305 498 305 498 352 462 c 128,-1,23
 399 426 399 426 441 360 c 1,24,25
 481 426 481 426 529 462.5 c 128,-1,26
 577 499 577 499 655 499 c 0,27,0
 708 499 708 499 751.5 473.5 c 128,-1,1
742.5 212.5 m 128,-1,29
 777 248 777 248 777 303 c 256,30,31
 777 358 777 358 742.5 394 c 128,-1,32
 708 430 708 430 655 430 c 0,33,34
 592 430 592 430 553 397 c 128,-1,35
 514 364 514 364 476 302 c 1,36,37
 513 242 513 242 552.5 209.5 c 128,-1,38
 592 177 592 177 655 177 c 0,39,28
 708 177 708 177 742.5 212.5 c 128,-1,29
330.5 209.5 m 128,-1,41
 370 242 370 242 407 304 c 1,42,43
 370 364 370 364 330.5 396.5 c 128,-1,44
 291 429 291 429 228 429 c 0,45,46
 175 429 175 429 140 393 c 128,-1,47
 105 357 105 357 105 302 c 256,48,49
 105 247 105 247 140 212 c 128,-1,50
 175 177 175 177 228 177 c 0,51,40
 291 177 291 177 330.5 209.5 c 128,-1,41
EndSplineSet
EndChar

StartChar: integral
Encoding: 8747 8747 687
Width: 325
Flags: W
LayerCount: 2
Fore
SplineSet
265 766 m 0,1,2
 224 766 224 766 207 737.5 c 128,-1,3
 190 709 190 709 190 640 c 0,4,5
 190 578 190 578 200 370 c 0,6,7
 211 174 211 174 211 83 c 0,8,9
 211 -29 211 -29 179.5 -76.5 c 128,-1,10
 148 -124 148 -124 74 -124 c 0,11,12
 50 -124 50 -124 32.5 -119.5 c 128,-1,13
 15 -115 15 -115 -4 -104 c 1,14,-1
 10 -39 l 1,15,16
 38 -53 38 -53 64 -53 c 0,17,18
 105 -53 105 -53 122.5 -23 c 128,-1,19
 140 7 140 7 140 76 c 0,20,21
 140 134 140 134 135 234 c 128,-1,22
 130 334 130 334 129 363 c 0,23,24
 118 552 118 552 118 632 c 0,25,26
 118 744 118 744 149.5 791 c 128,-1,27
 181 838 181 838 255 838 c 0,28,29
 289 838 289 838 326 820 c 1,30,-1
 313 755 l 1,31,0
 290 766 290 766 265 766 c 0,1,2
EndSplineSet
EndChar

StartChar: approxequal
Encoding: 8776 8776 688
Width: 494
Flags: W
LayerCount: 2
Fore
SplineSet
402 402 m 128,-1,1
 379 370 379 370 334 370 c 0,2,3
 309 370 309 370 288 379 c 128,-1,4
 267 388 267 388 240 405 c 0,5,6
 218 418 218 418 204.5 424 c 128,-1,7
 191 430 191 430 178 430 c 0,8,9
 158 430 158 430 147 416.5 c 128,-1,10
 136 403 136 403 136 377 c 1,11,-1
 70 377 l 1,12,13
 70 439 70 439 93 471.5 c 128,-1,14
 116 504 116 504 161 504 c 0,15,16
 183 504 183 504 203 495.5 c 128,-1,17
 223 487 223 487 253 470 c 0,18,19
 277 456 277 456 291 450 c 128,-1,20
 305 444 305 444 318 444 c 0,21,22
 359 444 359 444 359 496 c 1,23,-1
 425 496 l 1,24,0
 425 434 425 434 402 402 c 128,-1,1
402 186 m 128,-1,26
 379 154 379 154 334 154 c 0,27,28
 309 154 309 154 288 163 c 128,-1,29
 267 172 267 172 240 189 c 0,30,31
 218 202 218 202 204.5 208 c 128,-1,32
 191 214 191 214 178 214 c 0,33,34
 158 214 158 214 147 200.5 c 128,-1,35
 136 187 136 187 136 161 c 1,36,-1
 70 161 l 1,37,38
 70 223 70 223 93 255.5 c 128,-1,39
 116 288 116 288 161 288 c 0,40,41
 183 288 183 288 203 279.5 c 128,-1,42
 223 271 223 271 253 254 c 0,43,44
 277 240 277 240 291 234 c 128,-1,45
 305 228 305 228 318 228 c 0,46,47
 359 228 359 228 359 280 c 1,48,-1
 425 280 l 1,49,25
 425 218 425 218 402 186 c 128,-1,26
EndSplineSet
EndChar

StartChar: notequal
Encoding: 8800 8800 689
Width: 494
Flags: W
LayerCount: 2
Fore
SplineSet
458 394 m 1,0,-1
 300 394 l 1,1,-1
 256 253 l 1,2,-1
 458 253 l 1,3,-1
 458 187 l 1,4,-1
 235 187 l 1,5,-1
 187 35 l 1,6,-1
 114 35 l 1,7,-1
 162 187 l 1,8,-1
 36 187 l 1,9,-1
 36 253 l 1,10,-1
 183 253 l 1,11,-1
 228 394 l 1,12,-1
 36 394 l 1,13,-1
 36 460 l 1,14,-1
 248 460 l 1,15,-1
 295 607 l 1,16,-1
 367 607 l 1,17,-1
 321 460 l 1,18,-1
 458 460 l 1,19,-1
 458 394 l 1,0,-1
EndSplineSet
EndChar

StartChar: lessequal
Encoding: 8804 8804 690
Width: 494
Flags: W
LayerCount: 2
Fore
SplineSet
458 612 m 1,0,-1
 458 539 l 1,1,-1
 100 388 l 1,2,-1
 458 237 l 1,3,-1
 458 164 l 1,4,-1
 36 347 l 1,5,-1
 36 429 l 1,6,-1
 458 612 l 1,0,-1
36 94 m 1,7,-1
 458 94 l 1,8,-1
 458 27 l 1,9,-1
 36 27 l 1,10,-1
 36 94 l 1,7,-1
EndSplineSet
EndChar

StartChar: greaterequal
Encoding: 8805 8805 691
Width: 494
Flags: W
LayerCount: 2
Fore
SplineSet
36 168 m 1,0,-1
 36 241 l 1,1,-1
 394 392 l 1,2,-1
 36 543 l 1,3,-1
 36 616 l 1,4,-1
 458 433 l 1,5,-1
 458 351 l 1,6,-1
 36 168 l 1,0,-1
36 94 m 1,7,-1
 458 94 l 1,8,-1
 458 27 l 1,9,-1
 36 27 l 1,10,-1
 36 94 l 1,7,-1
EndSplineSet
EndChar

StartChar: filledbox
Encoding: 9632 9632 692
Width: 600
Flags: W
LayerCount: 2
Fore
SplineSet
106 459 m 1,0,-1
 494 459 l 1,1,-1
 494 71 l 1,2,-1
 106 71 l 1,3,-1
 106 459 l 1,0,-1
EndSplineSet
EndChar

StartChar: uni25A1
Encoding: 9633 9633 693
Width: 600
Flags: W
LayerCount: 2
Fore
SplineSet
106 459 m 1,0,-1
 494 459 l 1,1,-1
 494 71 l 1,2,-1
 106 71 l 1,3,-1
 106 459 l 1,0,-1
168 394 m 1,4,-1
 168 136 l 1,5,-1
 432 136 l 1,6,-1
 432 394 l 1,7,-1
 168 394 l 1,4,-1
EndSplineSet
EndChar

StartChar: triagup
Encoding: 9650 9650 694
Width: 600
Flags: W
LayerCount: 2
Fore
SplineSet
300 478 m 1,0,-1
 513 52 l 1,1,-1
 87 52 l 1,2,-1
 300 478 l 1,0,-1
EndSplineSet
EndChar

StartChar: uni25B3
Encoding: 9651 9651 695
Width: 600
Flags: W
LayerCount: 2
Fore
SplineSet
300 478 m 1,0,-1
 513 52 l 1,1,-1
 87 52 l 1,2,-1
 300 478 l 1,0,-1
300 340 m 1,3,-1
 183 114 l 1,4,-1
 417 114 l 1,5,-1
 300 340 l 1,3,-1
EndSplineSet
EndChar

StartChar: uni25B6
Encoding: 9654 9654 696
Width: 600
Flags: W
LayerCount: 2
Fore
SplineSet
541 266 m 1,0,-1
 115 53 l 1,1,-1
 115 479 l 1,2,-1
 541 266 l 1,0,-1
EndSplineSet
EndChar

StartChar: uni25B7
Encoding: 9655 9655 697
Width: 600
Flags: W
LayerCount: 2
Fore
SplineSet
541 266 m 1,0,-1
 115 53 l 1,1,-1
 115 479 l 1,2,-1
 541 266 l 1,0,-1
403 266 m 1,3,-1
 177 383 l 1,4,-1
 177 149 l 1,5,-1
 403 266 l 1,3,-1
EndSplineSet
EndChar

StartChar: triagdn
Encoding: 9660 9660 698
Width: 600
Flags: W
LayerCount: 2
Fore
SplineSet
300 52 m 1,0,-1
 87 478 l 1,1,-1
 513 478 l 1,2,-1
 300 52 l 1,0,-1
EndSplineSet
EndChar

StartChar: uni25BD
Encoding: 9661 9661 699
Width: 600
Flags: W
LayerCount: 2
Fore
SplineSet
300 52 m 1,0,-1
 87 478 l 1,1,-1
 513 478 l 1,2,-1
 300 52 l 1,0,-1
300 190 m 1,3,-1
 417 416 l 1,4,-1
 183 416 l 1,5,-1
 300 190 l 1,3,-1
EndSplineSet
EndChar

StartChar: uni25C0
Encoding: 9664 9664 700
Width: 600
Flags: W
LayerCount: 2
Fore
SplineSet
58 265 m 1,0,-1
 484 478 l 1,1,-1
 484 52 l 1,2,-1
 58 265 l 1,0,-1
EndSplineSet
EndChar

StartChar: uni25C1
Encoding: 9665 9665 701
Width: 600
Flags: W
LayerCount: 2
Fore
SplineSet
58 265 m 1,0,-1
 484 478 l 1,1,-1
 484 52 l 1,2,-1
 58 265 l 1,0,-1
196 265 m 1,3,-1
 422 148 l 1,4,-1
 422 382 l 1,5,-1
 196 265 l 1,3,-1
EndSplineSet
EndChar

StartChar: uni25C6
Encoding: 9670 9670 702
Width: 600
Flags: W
LayerCount: 2
Fore
SplineSet
300 540 m 1,0,-1
 574 265 l 1,1,-1
 300 -9 l 1,2,-1
 25 265 l 1,3,-1
 300 540 l 1,0,-1
EndSplineSet
EndChar

StartChar: uni25C7
Encoding: 9671 9671 703
Width: 600
Flags: W
LayerCount: 2
Fore
SplineSet
300 540 m 1,0,-1
 574 265 l 1,1,-1
 300 -9 l 1,2,-1
 25 265 l 1,3,-1
 300 540 l 1,0,-1
297 450 m 1,4,-1
 115 267 l 1,5,-1
 302 81 l 1,6,-1
 484 263 l 1,7,-1
 297 450 l 1,4,-1
EndSplineSet
EndChar

StartChar: lozenge
Encoding: 9674 9674 704
Width: 528
Flags: W
LayerCount: 2
Fore
SplineSet
264 668 m 1,0,-1
 489 330 l 1,1,-1
 263 -10 l 1,2,-1
 39 330 l 1,3,-1
 264 668 l 1,0,-1
264 531 m 1,4,-1
 127 330 l 1,5,-1
 263 129 l 1,6,-1
 401 330 l 1,7,-1
 264 531 l 1,4,-1
EndSplineSet
EndChar

StartChar: uniA78B
Encoding: 42891 42891 705
Width: 255
Flags: W
LayerCount: 2
Fore
SplineSet
79 700 m 1,0,-1
 175 700 l 1,1,-1
 165 301 l 1,2,-1
 79 301 l 1,3,-1
 79 700 l 1,0,-1
EndSplineSet
EndChar

StartChar: uniA78C
Encoding: 42892 42892 706
Width: 253
Flags: W
LayerCount: 2
Fore
SplineSet
80 659 m 1,0,-1
 173 659 l 1,1,-1
 161 301 l 1,2,-1
 79 301 l 1,3,-1
 80 659 l 1,0,-1
EndSplineSet
Substitution2: "<3,3> Small Caps in Latin lookup 11 subtable" uniA78C.sc
EndChar

StartChar: A.ss01
Encoding: 65538 -1 709
Width: 765
Flags: W
LayerCount: 2
Fore
SplineSet
120.5 569 m 128,-1,1
 156 635 156 635 223 670.5 c 128,-1,2
 290 706 290 706 382 706 c 256,3,4
 474 706 474 706 541 670.5 c 128,-1,5
 608 635 608 635 644 569 c 128,-1,6
 680 503 680 503 680 413 c 2,7,-1
 680 0 l 1,8,-1
 583 0 l 1,9,-1
 583 196 l 1,10,-1
 181 196 l 1,11,-1
 181 0 l 1,12,-1
 85 0 l 1,13,-1
 85 413 l 2,14,0
 85 503 85 503 120.5 569 c 128,-1,1
529.5 565 m 128,-1,16
 476 620 476 620 382 620 c 256,17,18
 288 620 288 620 234.5 565 c 128,-1,19
 181 510 181 510 181 413 c 2,20,-1
 181 283 l 1,21,-1
 583 283 l 1,22,-1
 583 413 l 2,23,15
 583 510 583 510 529.5 565 c 128,-1,16
EndSplineSet
EndChar

StartChar: Adieresis.alt
Encoding: 65553 -1 724
Width: 726
Flags: W
LayerCount: 2
Fore
SplineSet
134.5 612 m 128,-1,1
 119 628 119 628 119 651 c 256,2,3
 119 674 119 674 134 689.5 c 128,-1,4
 149 705 149 705 172 705 c 256,5,6
 195 705 195 705 210 689.5 c 128,-1,7
 225 674 225 674 225 651 c 256,8,9
 225 628 225 628 209.5 612 c 128,-1,10
 194 596 194 596 172 596 c 256,11,0
 150 596 150 596 134.5 612 c 128,-1,1
520.5 612 m 128,-1,13
 505 628 505 628 505 651 c 256,14,15
 505 674 505 674 520 689.5 c 128,-1,16
 535 705 535 705 558 705 c 256,17,18
 581 705 581 705 596 689.5 c 128,-1,19
 611 674 611 674 611 651 c 256,20,21
 611 628 611 628 595.5 612 c 128,-1,22
 580 596 580 596 558 596 c 256,23,12
 536 596 536 596 520.5 612 c 128,-1,13
620 0 m 1,24,-1
 546 170 l 1,25,-1
 177 170 l 1,26,-1
 104 0 l 1,27,-1
 3 0 l 1,28,-1
 314 700 l 1,29,-1
 414 700 l 1,30,-1
 724 0 l 1,31,-1
 620 0 l 1,24,-1
215 257 m 1,32,-1
 509 257 l 1,33,-1
 361 597 l 1,34,-1
 215 257 l 1,32,-1
EndSplineSet
EndChar

StartChar: Aogonek.ss01
Encoding: 65560 -1 731
Width: 765
Flags: W
LayerCount: 2
Fore
SplineSet
607.5 -62.5 m 128,-1,1
 586 -88 586 -88 586 -112 c 0,2,3
 586 -145 586 -145 617 -145 c 0,4,5
 637 -145 637 -145 656 -135 c 1,6,-1
 679 -197 l 1,7,8
 641 -216 641 -216 598 -216 c 0,9,10
 553 -216 553 -216 526 -193.5 c 128,-1,11
 499 -171 499 -171 499 -129 c 0,12,13
 499 -56 499 -56 583 7 c 1,14,-1
 583 196 l 1,15,-1
 181 196 l 1,16,-1
 181 0 l 1,17,-1
 85 0 l 1,18,-1
 85 413 l 2,19,20
 85 503 85 503 120.5 569 c 128,-1,21
 156 635 156 635 223 670.5 c 128,-1,22
 290 706 290 706 382 706 c 256,23,24
 474 706 474 706 541 670.5 c 128,-1,25
 608 635 608 635 644 569 c 128,-1,26
 680 503 680 503 680 413 c 2,27,-1
 680 0 l 1,28,0
 629 -37 629 -37 607.5 -62.5 c 128,-1,1
583 283 m 1,29,-1
 583 413 l 2,30,31
 583 510 583 510 529.5 565 c 128,-1,32
 476 620 476 620 382 620 c 256,33,34
 288 620 288 620 234.5 565 c 128,-1,35
 181 510 181 510 181 413 c 2,36,-1
 181 283 l 1,37,-1
 583 283 l 1,29,-1
EndSplineSet
EndChar

StartChar: E.ss01
Encoding: 65566 -1 737
Width: 581
Flags: W
LayerCount: 2
Fore
SplineSet
195.5 290.5 m 128,-1,1
 144 257 144 257 144 203 c 0,2,3
 144 167 144 167 168 138 c 128,-1,4
 192 109 192 109 235 93 c 128,-1,5
 278 77 278 77 331 77 c 0,6,7
 378 77 378 77 435 92 c 128,-1,8
 492 107 492 107 531 128 c 1,9,-1
 569 53 l 1,10,11
 524 26 524 26 456 9.5 c 128,-1,12
 388 -7 388 -7 323 -7 c 0,13,14
 242 -7 242 -7 178.5 18 c 128,-1,15
 115 43 115 43 80 87.5 c 128,-1,16
 45 132 45 132 45 190 c 0,17,18
 45 257 45 257 92.5 307 c 128,-1,19
 140 357 140 357 218 371 c 1,20,21
 157 385 157 385 118.5 428.5 c 128,-1,22
 80 472 80 472 80 528 c 0,23,24
 80 581 80 581 111.5 622 c 128,-1,25
 143 663 143 663 200 685.5 c 128,-1,26
 257 708 257 708 331 708 c 0,27,28
 387 708 387 708 444.5 696 c 128,-1,29
 502 684 502 684 539 665 c 1,30,-1
 506 589 l 1,31,32
 472 604 472 604 426.5 614 c 128,-1,33
 381 624 381 624 339 624 c 0,34,35
 265 624 265 624 218.5 592 c 128,-1,36
 172 560 172 560 172 511 c 0,37,38
 172 463 172 463 215.5 436 c 128,-1,39
 259 409 259 409 328 409 c 2,40,-1
 467 409 l 1,41,-1
 467 324 l 1,42,-1
 328 324 l 2,43,0
 247 324 247 324 195.5 290.5 c 128,-1,1
EndSplineSet
EndChar

StartChar: uni1E1C.ss01
Encoding: 65570 -1 741
Width: 581
Flags: W
LayerCount: 2
Fore
SplineSet
214.5 799 m 128,-1,1
 177 836 177 836 175 896 c 1,2,-1
 240 896 l 1,3,4
 242 866 242 866 261 846 c 128,-1,5
 280 826 280 826 308 826 c 256,6,7
 336 826 336 826 355 846 c 128,-1,8
 374 866 374 866 376 896 c 1,9,-1
 441 896 l 1,10,11
 439 836 439 836 402 799 c 128,-1,12
 365 762 365 762 308 762 c 0,13,0
 252 762 252 762 214.5 799 c 128,-1,1
406.5 -79.5 m 128,-1,15
 427 -101 427 -101 427 -130 c 0,16,17
 427 -170 427 -170 396 -193.5 c 128,-1,18
 365 -217 365 -217 317 -217 c 0,19,20
 271 -217 271 -217 225 -196 c 1,21,-1
 245 -139 l 1,22,23
 277 -152 277 -152 306 -152 c 0,24,25
 328 -152 328 -152 340.5 -142.5 c 128,-1,26
 353 -133 353 -133 353 -121 c 0,27,28
 353 -108 353 -108 339.5 -99.5 c 128,-1,29
 326 -91 326 -91 302 -91 c 2,30,-1
 270 -91 l 1,31,-1
 297 -6 l 1,32,33
 223 -2 223 -2 165.5 23.5 c 128,-1,34
 108 49 108 49 76.5 92 c 128,-1,35
 45 135 45 135 45 190 c 0,36,37
 45 257 45 257 92.5 307 c 128,-1,38
 140 357 140 357 218 371 c 1,39,40
 157 385 157 385 118.5 428.5 c 128,-1,41
 80 472 80 472 80 528 c 0,42,43
 80 581 80 581 111.5 622 c 128,-1,44
 143 663 143 663 200 685.5 c 128,-1,45
 257 708 257 708 331 708 c 0,46,47
 387 708 387 708 444.5 696 c 128,-1,48
 502 684 502 684 539 665 c 1,49,-1
 506 589 l 1,50,51
 472 604 472 604 426.5 614 c 128,-1,52
 381 624 381 624 339 624 c 0,53,54
 265 624 265 624 218.5 592 c 128,-1,55
 172 560 172 560 172 511 c 0,56,57
 172 463 172 463 215.5 436 c 128,-1,58
 259 409 259 409 328 409 c 2,59,-1
 467 409 l 1,60,-1
 467 324 l 1,61,-1
 328 324 l 2,62,63
 247 324 247 324 195.5 290.5 c 128,-1,64
 144 257 144 257 144 203 c 0,65,66
 144 167 144 167 168 138 c 128,-1,67
 192 109 192 109 235 93 c 128,-1,68
 278 77 278 77 331 77 c 0,69,70
 378 77 378 77 435 92 c 128,-1,71
 492 107 492 107 531 128 c 1,72,-1
 569 53 l 1,73,74
 531 31 531 31 475 15.5 c 128,-1,75
 419 0 419 0 362 -5 c 1,76,-1
 346 -52 l 1,77,14
 386 -58 386 -58 406.5 -79.5 c 128,-1,15
EndSplineSet
EndChar

StartChar: Eogonek.ss01
Encoding: 65587 -1 758
Width: 581
Flags: W
LayerCount: 2
Fore
SplineSet
532 -135 m 1,1,-1
 555 -197 l 1,2,3
 516 -216 516 -216 473 -216 c 0,4,5
 428 -216 428 -216 401.5 -189.5 c 128,-1,6
 375 -163 375 -163 375 -118 c 0,7,8
 375 -56 375 -56 431 4 c 1,9,10
 374 -7 374 -7 323 -7 c 0,11,12
 242 -7 242 -7 178.5 18 c 128,-1,13
 115 43 115 43 80 87.5 c 128,-1,14
 45 132 45 132 45 190 c 0,15,16
 45 257 45 257 92.5 307 c 128,-1,17
 140 357 140 357 218 371 c 1,18,19
 157 385 157 385 118.5 428.5 c 128,-1,20
 80 472 80 472 80 528 c 0,21,22
 80 581 80 581 111.5 622 c 128,-1,23
 143 663 143 663 200 685.5 c 128,-1,24
 257 708 257 708 331 708 c 0,25,26
 387 708 387 708 444.5 696 c 128,-1,27
 502 684 502 684 539 665 c 1,28,-1
 506 589 l 1,29,30
 472 604 472 604 426.5 614 c 128,-1,31
 381 624 381 624 339 624 c 0,32,33
 265 624 265 624 218.5 592 c 128,-1,34
 172 560 172 560 172 511 c 0,35,36
 172 463 172 463 215.5 436 c 128,-1,37
 259 409 259 409 328 409 c 2,38,-1
 467 409 l 1,39,-1
 467 324 l 1,40,-1
 328 324 l 2,41,42
 247 324 247 324 195.5 290.5 c 128,-1,43
 144 257 144 257 144 203 c 0,44,45
 144 167 144 167 168 138 c 128,-1,46
 192 109 192 109 235 93 c 128,-1,47
 278 77 278 77 331 77 c 0,48,49
 378 77 378 77 435 92 c 128,-1,50
 492 107 492 107 531 128 c 1,51,-1
 569 53 l 1,52,53
 559 47 559 47 554 45 c 0,54,55
 513 10 513 10 487 -33.5 c 128,-1,56
 461 -77 461 -77 461 -108 c 0,57,58
 461 -126 461 -126 469.5 -135.5 c 128,-1,59
 478 -145 478 -145 494 -145 c 0,60,0
 512 -145 512 -145 532 -135 c 1,1,-1
EndSplineSet
EndChar

StartChar: F.ss01
Encoding: 65589 -1 760
Width: 523
Flags: W
LayerCount: 2
Fore
SplineSet
218 580.5 m 128,-1,1
 181 544 181 544 181 482 c 2,2,-1
 181 370 l 1,3,-1
 459 370 l 1,4,-1
 459 283 l 1,5,-1
 181 283 l 1,6,-1
 181 0 l 1,7,-1
 85 0 l 1,8,-1
 85 484 l 2,9,10
 85 550 85 550 112.5 600 c 128,-1,11
 140 650 140 650 190.5 677 c 128,-1,12
 241 704 241 704 308 704 c 0,13,14
 363 704 363 704 418.5 692 c 128,-1,15
 474 680 474 680 516 661 c 1,16,-1
 492 575 l 1,17,18
 453 594 453 594 404.5 605.5 c 128,-1,19
 356 617 356 617 316 617 c 0,20,0
 255 617 255 617 218 580.5 c 128,-1,1
EndSplineSet
EndChar

StartChar: G.ss01
Encoding: 65590 -1 761
Width: 752
Flags: W
LayerCount: 2
Fore
SplineSet
584 353 m 1,0,-1
 669 353 l 1,1,-1
 669 0 l 1,2,-1
 595 0 l 1,3,-1
 595 68 l 1,4,5
 551 33 551 33 499.5 13 c 128,-1,6
 448 -7 448 -7 395 -7 c 0,7,8
 297 -7 297 -7 215 40.5 c 128,-1,9
 133 88 133 88 85.5 170.5 c 128,-1,10
 38 253 38 253 38 351 c 256,11,12
 38 449 38 449 87 530.5 c 128,-1,13
 136 612 136 612 221 659 c 128,-1,14
 306 706 306 706 408 706 c 0,15,16
 481 706 481 706 551 680 c 128,-1,17
 621 654 621 654 672 609 c 1,18,-1
 617 539 l 1,19,20
 575 578 575 578 521 599.5 c 128,-1,21
 467 621 467 621 409 621 c 0,22,23
 334 621 334 621 271 585 c 128,-1,24
 208 549 208 549 171.5 487 c 128,-1,25
 135 425 135 425 135 351 c 256,26,27
 135 277 135 277 171 214.5 c 128,-1,28
 207 152 207 152 269 115.5 c 128,-1,29
 331 79 331 79 404 79 c 0,30,31
 456 79 456 79 503 100 c 128,-1,32
 550 121 550 121 584 159 c 1,33,-1
 584 353 l 1,0,-1
EndSplineSet
EndChar

StartChar: I.ss01
Encoding: 65597 -1 768
Width: 476
Flags: W
LayerCount: 2
Fore
SplineSet
423 612 m 1,0,-1
 286 612 l 1,1,-1
 286 88 l 1,2,-1
 423 88 l 1,3,-1
 423 0 l 1,4,-1
 53 0 l 1,5,-1
 53 88 l 1,6,-1
 190 88 l 1,7,-1
 190 612 l 1,8,-1
 53 612 l 1,9,-1
 53 700 l 1,10,-1
 423 700 l 1,11,-1
 423 612 l 1,0,-1
EndSplineSet
EndChar

StartChar: Iogonek.ss01
Encoding: 65613 -1 784
Width: 476
Flags: W
LayerCount: 2
Fore
SplineSet
286 612 m 1,0,-1
 286 88 l 1,1,-1
 423 88 l 1,2,-1
 423 0 l 1,3,-1
 286 0 l 1,4,5
 235 -37 235 -37 213.5 -62.5 c 128,-1,6
 192 -88 192 -88 192 -112 c 0,7,8
 192 -145 192 -145 223 -145 c 0,9,10
 243 -145 243 -145 262 -135 c 1,11,-1
 285 -197 l 1,12,13
 247 -216 247 -216 204 -216 c 0,14,15
 159 -216 159 -216 132 -193.5 c 128,-1,16
 105 -171 105 -171 105 -129 c 0,17,18
 105 -61 105 -61 180 0 c 1,19,-1
 53 0 l 1,20,-1
 53 88 l 1,21,-1
 190 88 l 1,22,-1
 190 612 l 1,23,-1
 53 612 l 1,24,-1
 53 700 l 1,25,-1
 423 700 l 1,26,-1
 423 612 l 1,27,-1
 286 612 l 1,0,-1
EndSplineSet
EndChar

StartChar: J.ss01
Encoding: 65615 -1 786
Width: 490
Flags: W
LayerCount: 2
Fore
SplineSet
351 -47.5 m 128,-1,1
 296 -104 296 -104 197 -104 c 0,2,3
 138 -104 138 -104 87.5 -78.5 c 128,-1,4
 37 -53 37 -53 -1 -5 c 1,5,-1
 46 70 l 1,6,7
 79 31 79 31 118.5 10.5 c 128,-1,8
 158 -10 158 -10 197 -10 c 0,9,10
 251 -10 251 -10 280 22.5 c 128,-1,11
 309 55 309 55 309 115 c 2,12,-1
 309 612 l 1,13,-1
 62 612 l 1,14,-1
 62 700 l 1,15,-1
 406 700 l 1,16,-1
 406 112 l 2,17,0
 406 9 406 9 351 -47.5 c 128,-1,1
EndSplineSet
EndChar

StartChar: M.ss01
Encoding: 65620 -1 791
Width: 1202
Flags: W
LayerCount: 2
Fore
SplineSet
1006 673.5 m 128,-1,1
 1059 641 1059 641 1088.5 583 c 128,-1,2
 1118 525 1118 525 1118 451 c 2,3,-1
 1118 0 l 1,4,-1
 1021 0 l 1,5,-1
 1021 429 l 2,6,7
 1021 482 1021 482 1000 524.5 c 128,-1,8
 979 567 979 567 941 590.5 c 128,-1,9
 903 614 903 614 855 614 c 0,10,11
 799 614 799 614 753.5 584 c 128,-1,12
 708 554 708 554 682.5 503 c 128,-1,13
 657 452 657 452 657 391 c 2,14,-1
 657 0 l 1,15,-1
 560 0 l 1,16,-1
 560 429 l 2,17,18
 560 482 560 482 538.5 524.5 c 128,-1,19
 517 567 517 567 479 590.5 c 128,-1,20
 441 614 441 614 393 614 c 0,21,22
 337 614 337 614 292 584 c 128,-1,23
 247 554 247 554 221.5 503 c 128,-1,24
 196 452 196 452 196 391 c 2,25,-1
 196 0 l 1,26,-1
 100 0 l 1,27,-1
 100 706 l 1,28,-1
 196 706 l 1,29,-1
 196 584 l 1,30,31
 232 642 232 642 291.5 674 c 128,-1,32
 351 706 351 706 426 706 c 256,33,34
 501 706 501 706 558 665 c 128,-1,35
 615 624 615 624 640 553 c 1,36,37
 673 624 673 624 737.5 665 c 128,-1,38
 802 706 802 706 887 706 c 0,39,0
 953 706 953 706 1006 673.5 c 128,-1,1
EndSplineSet
EndChar

StartChar: N.ss01
Encoding: 65622 -1 793
Width: 774
Flags: W
LayerCount: 2
Fore
SplineSet
571 673.5 m 128,-1,1
 627 641 627 641 658.5 583 c 128,-1,2
 690 525 690 525 690 451 c 2,3,-1
 690 0 l 1,4,-1
 593 0 l 1,5,-1
 593 429 l 2,6,7
 593 482 593 482 570 524.5 c 128,-1,8
 547 567 547 567 506 590.5 c 128,-1,9
 465 614 465 614 413 614 c 0,10,11
 351 614 351 614 301.5 584 c 128,-1,12
 252 554 252 554 224 503 c 128,-1,13
 196 452 196 452 196 391 c 2,14,-1
 196 0 l 1,15,-1
 100 0 l 1,16,-1
 100 700 l 1,17,-1
 196 700 l 1,18,-1
 196 581 l 1,19,20
 234 640 234 640 298.5 673 c 128,-1,21
 363 706 363 706 444 706 c 0,22,0
 515 706 515 706 571 673.5 c 128,-1,1
EndSplineSet
EndChar

StartChar: Eng.ss01
Encoding: 65629 -1 800
Width: 775
Flags: W
LayerCount: 2
Fore
SplineSet
571 667.5 m 128,-1,1
 627 635 627 635 658.5 576.5 c 128,-1,2
 690 518 690 518 690 444 c 2,3,-1
 690 0 l 2,4,5
 690 -93 690 -93 634 -147.5 c 128,-1,6
 578 -202 578 -202 482 -202 c 0,7,8
 425 -202 425 -202 376 -180.5 c 128,-1,9
 327 -159 327 -159 291 -119 c 1,10,-1
 338 -45 l 1,11,12
 369 -76 369 -76 406.5 -92 c 128,-1,13
 444 -108 444 -108 480 -108 c 0,14,15
 533 -108 533 -108 563 -75.5 c 128,-1,16
 593 -43 593 -43 593 17 c 2,17,-1
 593 423 l 2,18,19
 593 476 593 476 570 518 c 128,-1,20
 547 560 547 560 506 583.5 c 128,-1,21
 465 607 465 607 413 607 c 0,22,23
 351 606 351 606 301.5 576 c 128,-1,24
 252 546 252 546 224 495.5 c 128,-1,25
 196 445 196 445 196 384 c 2,26,-1
 196 0 l 1,27,-1
 100 0 l 1,28,-1
 100 700 l 1,29,-1
 196 700 l 1,30,-1
 196 573 l 1,31,32
 234 632 234 632 298.5 665.5 c 128,-1,33
 363 699 363 699 445 700 c 0,34,0
 515 700 515 700 571 667.5 c 128,-1,1
EndSplineSet
EndChar

StartChar: Q.ss01
Encoding: 65633 -1 804
Width: 812
Flags: W
LayerCount: 2
Fore
SplineSet
731 181 m 128,-1,1
 688 103 688 103 612.5 53.5 c 128,-1,2
 537 4 537 4 445 -5 c 1,3,-1
 445 -128 l 1,4,-1
 366 -128 l 1,5,-1
 366 -5 l 1,6,7
 274 4 274 4 199 53.5 c 128,-1,8
 124 103 124 103 81 181 c 128,-1,9
 38 259 38 259 38 351 c 0,10,11
 38 449 38 449 87 530.5 c 128,-1,12
 136 612 136 612 220 659 c 128,-1,13
 304 706 304 706 406 706 c 0,14,15
 507 706 507 706 591.5 659 c 128,-1,16
 676 612 676 612 725 530.5 c 128,-1,17
 774 449 774 449 774 351 c 0,18,0
 774 259 774 259 731 181 c 128,-1,1
562 129.5 m 128,-1,20
 615 167 615 167 645.5 225.5 c 128,-1,21
 676 284 676 284 676 351 c 0,22,23
 676 425 676 425 639.5 486.5 c 128,-1,24
 603 548 603 548 541.5 584 c 128,-1,25
 480 620 480 620 407 620 c 256,26,27
 334 620 334 620 271.5 584 c 128,-1,28
 209 548 209 548 172 486.5 c 128,-1,29
 135 425 135 425 135 351 c 0,30,31
 135 284 135 284 165.5 226.5 c 128,-1,32
 196 169 196 169 249 131 c 128,-1,33
 302 93 302 93 366 83 c 1,34,-1
 366 259 l 1,35,-1
 445 259 l 1,36,-1
 445 83 l 1,37,19
 509 92 509 92 562 129.5 c 128,-1,20
EndSplineSet
EndChar

StartChar: uni018F.ss01
Encoding: 65634 -1 805
Width: 760
Flags: W
LayerCount: 2
Fore
SplineSet
548 659 m 128,-1,1
 629 612 629 612 676 530.5 c 128,-1,2
 723 449 723 449 723 351 c 256,3,4
 723 253 723 253 676 170.5 c 128,-1,5
 629 88 629 88 547.5 40.5 c 128,-1,6
 466 -7 466 -7 369 -7 c 0,7,8
 283 -7 283 -7 213.5 27.5 c 128,-1,9
 144 62 144 62 98 120.5 c 128,-1,10
 52 179 52 179 30 251 c 1,11,-1
 599 476 l 1,12,13
 565 542 565 542 504 581 c 128,-1,14
 443 620 443 620 370 620 c 0,15,16
 306 620 306 620 250 592.5 c 128,-1,17
 194 565 194 565 156 516 c 1,18,-1
 87 581 l 1,19,20
 198 706 198 706 369 706 c 0,21,0
 467 706 467 706 548 659 c 128,-1,1
504 117 m 128,-1,23
 563 154 563 154 596 215.5 c 128,-1,24
 629 277 629 277 629 349 c 0,25,26
 629 371 629 371 626 392 c 1,27,-1
 148 202 l 1,28,29
 180 149 180 149 237 114.5 c 128,-1,30
 294 80 294 80 370 80 c 0,31,22
 445 80 445 80 504 117 c 128,-1,23
EndSplineSet
EndChar

StartChar: T.ss01
Encoding: 65635 -1 806
Width: 642
Flags: W
LayerCount: 2
Fore
SplineSet
574 552 m 1,0,1
 482 600 482 600 367 611 c 1,2,-1
 367 0 l 1,3,-1
 271 0 l 1,4,-1
 271 611 l 1,5,6
 159 600 159 600 64 552 c 1,7,-1
 30 635 l 1,8,9
 93 669 93 669 167 687.5 c 128,-1,10
 241 706 241 706 318 706 c 256,11,12
 395 706 395 706 469 687.5 c 128,-1,13
 543 669 543 669 607 634 c 1,14,-1
 574 552 l 1,0,1
EndSplineSet
EndChar

